/* XPM */
static char *_683193894197[] = {
/* columns rows colors chars-per-pixel */
"64 64 251 2 ",
"   c #020201",
".  c #040306",
"X  c #101417",
"o  c #121C28",
"O  c #3F3D31",
"+  c #443C2F",
"@  c #50483F",
"#  c #65523A",
"$  c #7C6234",
"%  c #35354F",
"&  c #324873",
"*  c #534F54",
"=  c #6F6454",
"-  c #505771",
";  c #625D69",
":  c #516375",
">  c #767877",
",  c #706F6D",
"<  c #655848",
"1  c #927A52",
"2  c #8E796D",
"3  c #AE7C49",
"4  c #7E8176",
"5  c #B88B59",
"6  c #B28E53",
"7  c #898479",
"8  c #998B7B",
"9  c #968970",
"0  c #BA9764",
"q  c #B79A77",
"w  c #A99071",
"e  c #B5A177",
"r  c #94825A",
"t  c #CC9753",
"y  c #D9A74C",
"u  c #DCA757",
"i  c #E4A54C",
"p  c #E6AA4C",
"a  c #E3A653",
"s  c #E3AA55",
"d  c #E4AC5C",
"f  c #E9A959",
"g  c #E4B25D",
"h  c #E8B35A",
"j  c #F5AE54",
"k  c #C69A68",
"l  c #CC9B73",
"z  c #DAAA68",
"x  c #DDB466",
"c  c #C7A679",
"v  c #D8AC77",
"b  c #DAB378",
"n  c #C7A970",
"m  c #E5AD63",
"M  c #EAAD63",
"N  c #E4AE6B",
"B  c #EAAE6A",
"V  c #E5B264",
"C  c #EAB264",
"Z  c #E5B46C",
"A  c #EAB46C",
"S  c #EAB96D",
"D  c #E6BA6A",
"F  c #F4B76B",
"G  c #E5AD71",
"H  c #E6B572",
"J  c #EBB573",
"K  c #E5BA74",
"L  c #EBBA74",
"P  c #E4B57A",
"I  c #ECB67B",
"U  c #E5BA7B",
"Y  c #EBBB7B",
"T  c #F1BB74",
"R  c #F2BC7C",
"E  c #F7B877",
"W  c #F1AB63",
"Q  c #E09F5D",
"!  c #ECC27D",
"~  c #E8C47A",
"^  c #F2C17C",
"/  c #FAC879",
"(  c #FFC360",
")  c #39558F",
"_  c #395AA7",
"`  c #3A65AE",
"'  c #445897",
"]  c #4B5E87",
"[  c #556C91",
"{  c #757884",
"}  c #6B7D98",
"|  c #475CA6",
" . c #4A66A9",
".. c #4B6DB4",
"X. c #476BB7",
"o. c #4E72BA",
"O. c #4975B8",
"+. c #5273BC",
"@. c #5779BE",
"#. c #5270AD",
"$. c #6579B2",
"%. c #4D75C5",
"&. c #5678C7",
"*. c #4D70C6",
"=. c #857A86",
"-. c #7B8387",
";. c #738997",
":. c #758CA9",
">. c #738AB2",
",. c #7795B8",
"<. c #698AAF",
"1. c #5A87AD",
"2. c #5B84C8",
"3. c #5F8AD9",
"4. c #698BC9",
"5. c #6B96CA",
"6. c #6488D5",
"7. c #6A97DA",
"8. c #769CDA",
"9. c #7598C8",
"0. c #79A4D9",
"q. c #6DA4DA",
"w. c #6D98E5",
"e. c #79A7E7",
"r. c #7BB5F4",
"t. c #78ADE9",
"y. c #7AC3FD",
"u. c #858686",
"i. c #938D8B",
"p. c #9A9898",
"a. c #8F938F",
"s. c #AC998B",
"d. c #B2A593",
"f. c #8394A5",
"g. c #979AA7",
"h. c #8A99B2",
"j. c #A39CA5",
"k. c #9DA4A7",
"l. c #93A9B3",
"z. c #A9A6A7",
"x. c #B9B5AB",
"c. c #ADABB7",
"v. c #B7ACB6",
"b. c #ABB6B9",
"n. c #B4B3B5",
"m. c #B5B4BA",
"M. c #BBB5BA",
"N. c #BCBBBC",
"B. c #BBB7B5",
"V. c #AFB3A9",
"C. c #CAAA88",
"Z. c #D9B687",
"A. c #C8B595",
"S. c #D2B391",
"D. c #E5BC83",
"F. c #ECBD83",
"G. c #E5BD8C",
"H. c #EDBC8A",
"J. c #E9B585",
"K. c #F2BC83",
"L. c #F1BD8C",
"P. c #F7BA88",
"I. c #E8BE92",
"U. c #F4BE93",
"Y. c #C5BABA",
"T. c #CEB9AA",
"R. c #BEC2BC",
"E. c #DFC997",
"W. c #E5C283",
"Q. c #ECC284",
"!. c #ECC38B",
"~. c #ECC98C",
"^. c #E8C689",
"/. c #F2C284",
"(. c #F2C48B",
"). c #F9C989",
"_. c #E5C593",
"`. c #EDC592",
"'. c #EDCA94",
"]. c #ECC699",
"[. c #EDCB9C",
"{. c #E4C996",
"}. c #F2C593",
"|. c #F2CA94",
" X c #F2C59A",
".X c #F2CB9C",
"XX c #FBCA95",
"oX c #EDD19A",
"OX c #FBD399",
"+X c #FED68F",
"@X c #C7C3B7",
"#X c #D6C7B1",
"$X c #EDCDA2",
"%X c #E9C9A5",
"&X c #F2CDA3",
"*X c #F3CDAB",
"=X c #F7C8A3",
"-X c #EDD2A4",
";X c #EDD3AB",
":X c #E6D9AD",
">X c #F2D1A4",
",X c #F3D2AB",
"<X c #FBD6A8",
"1X c #F6D6B3",
"2X c #EFCDB4",
"3X c #F8E4BE",
"4X c #839ACD",
"5X c #87A5C9",
"6X c #85AAD9",
"7X c #94ADCE",
"8X c #BABAC4",
"9X c #A8B7CB",
"0X c #87ABE6",
"qX c #86B6EB",
"wX c #92BAEA",
"eX c #8BBCF5",
"rX c #84BCFD",
"tX c #8CBDFC",
"yX c #86B7F5",
"uX c #93BCFE",
"iX c #95BCF7",
"pX c #C7BDC3",
"aX c #B8C2CF",
"sX c #84C3FE",
"dX c #8DC3FD",
"fX c #8CCBFD",
"gX c #8AC5F6",
"hX c #93C4FE",
"jX c #92CAFE",
"kX c #9BCBFD",
"lX c #97C4F8",
"zX c #90CBF3",
"xX c #A9C9F8",
"cX c #C8C4C6",
"vX c #D5CED3",
"bX c #D8D9D7",
"nX c #D0D0CF",
"mX c #EAD6C3",
"MX c #ECE4D7",
"NX c #DADDE7",
"BX c #E4DDE6",
"VX c #E8E6E5",
"CX c #F4ECEB",
"ZX c #F8F8E8",
"AX c #EAF3F4",
"SX c #FDFCF5",
"DX c #F5FEFD",
"FX c #FEFEFD",
"GX c #F9F6F8",
"HX c #ECECF1",
"JX c #DEE7E2",
/* pixels */
"/.Q._.%X;X,X$X`.J J J J L Y '.[.>XQ.K J B M d V S b L ! ~ (.~ 2X-X>X[.Q.H Z J J P /. X=X&X/.D Z N V M A P S D.F.F. X&X;X;XoX!.Y ",
"!.'.[..X.X(.Y L J L L U !.!.(.(.U P D Z B J Y F.D.E J.^  XoX-X-X X!.L H S L Y L ~.'._.^.H h d Z m U T T z Z.mXS.[.[..X.X!.Q.L J ",
"'.|.(.R B M m C L U F.!.}.}.!.Y J J A h S !. XH.L S  XXXoXS.H.L m B A J I F._._.H.`.^.K.A D L J XX~.D.c mXGXbXZ.oX!.Y A M m B L ",
"Y J d a a d Z U ^.F.!.Q.Q.!.`._.}.I B A (.$X`.Y E {.[.^.e l j i s d V K Q.!.H.K.].R Y !.Q.A m I XXc d.HXFXGXd.H S d a a d B K Q.",
"d u a s V S Y (.Q.Q.F.F.!.`..X$X~.L V K.[.'.Y S U.].K.k T.0 p z S L ^ (.!.(.~.~.}._.;X].Q.A N +XC.V.GXFXDXDX2 j i a s C J Q.Q.!.",
"d V Z H I L Y R R F.!.'.[..X}.Q.b Z Y }.`.U J P.~.D.u A.M.k T F Y K.Y K z z G J.).>X_.R B b [.0 z.SXSXSXGXHXr j M C S J L F.Q.F.",
"^ Y L J H J L Y K.!.`.[.'.!.Y Z D Y Q.F.J Z J F.W.XX5 aX> u S Z v s.p.h.9.,.>.:.a.c F Y Z / n p.FXFXFXFXFXbX6 ).Y J S A H L Y Q.",
"H.F.Z h V L Q.`.[.[.|.(.F.L H J F.L.F.V h L ^ Y /.R w nX7 t l l.eXwXtXdXfXjXjXfXrX0.u.k ).D.8 FXSXGXFXVXnXk.b =XY Z N A L F.!.|.",
"F.L H U Q.~.'.[.!.F.I H A A J F.L.F.D V T F.U Y !.H a.VX{ } eXt.6XyXhXyXrXtXtXeXrXlXw.| p.w HXDXGXDXcXx.Y.s.J./.H L D.!.|.|.'._.",
"(.}.$X$X>X.X XH.U J A C V Z Y /.Q.H A J A B E Y ).t B.b.,.kXqX8XbX-.,.kXwXgXrXlXeXzXt.%.' N.GXSXFXnXm.cXaX8 '.)..X.X[.[.[. XQ.Y ",
"$X,X,X&X].H.L V m d d C A L K.Q.H.L.I m d M N P !.c u.9.gXrXwXSXCXx.<.tXtXlXfXlXuXfXqX+.>.FXFXDXJX8X8Xk.z., e S.G.]. X|.F.H N M ",
";X>X!.J C d u y s f d C L /.(.!.(.U u p N %XmX@X#Xs.: lXhXrXlXxXaX5XqXtXhXqX,.:.} yXkX4.R.FXFXZXz.i.2 7 p.s.z.nXnXcXT.b z d s p ",
"_.Y m s i i s d d C F R Q.`.}.|.T u g C U #XVXFXFXb.>.hXyXlXrXrXyXgXgXjX0X;.nXFXO X qXzXHXFXAXz.a.z.8XN.#XBXDXFXvX#XS.z u a s d ",
"B d u d h B B J J R ! !. X X|.|.x h m J.|.W.Z.T.CXbXk.0.kXgXtXhXdXuXrXgX-.DXFXCXX . #.xXGXVXb.v.Y.v.m.nXAXDXB.6 t y d d M C J Y ",
"C C A L Y F.K.K.L./.!.'.>X,X.XW.s h Y (.H.Q.}.%Xw * X 1.kXeXeXhXtXuXhX8.8XFXbX* .   [ iXaXNXV.x.pXcXCXFXDXs.6 C C S Y ! F.K.K.R ",
"U R /.Y I H L ~ `.|.'.>X,X>X'.U B J.F.^ ~.`.'.+X2     1.lXdXhXgXdXdXkX;.o X     . . 4.zX5XZXvXvXMXFXFXSX@X6 j J F./.Y I J K Q.~.",
"`.!.I B f C Y `.[.[.-X,X1X].F.Z L ^ /.!.'._.'.OX1   . 9.uXrXr.yXqXe.lX1..   . . . o wXfX4Xc.NXFXSXFXDXFXq C ^ !.(.L m f C Y !.[.",
"Y Z m d J F.`.[.$X,X,X$X_.W.Y Y !.`.!.`. X|.(.(.k . o 5X5X9XaXb.9X8X7X:   .     o 0.kXr.hX,.5 w b.AXDXHXs.Q.(.Q.N m x H F.!.'.>X",
"C d V S /. X[.&X;X*X&X`.Y L Y Q.!.`.!.!.|.!.P H ).+ , AXFXGXFXFXSXSXFXAXp.X o [ wXgXgXtXsXf.).).C.q #XSXT.{./.P d m L Q.'.[.&X>X",
"A A Y !.~.oX[.;X2X&X!.L I F.!.Q.Q./.Q.F.!.'.~.|.Z.v.DXGXSXFXGXFXSXFXGXDXFXz.: dXrXdXlXlXq.0 ^ W.).H.Z.T.A..XY B Z Y Q.}. X&X;X;X",
"L K.!.].[.oX;X,X$X!.K S L Y !.!.}.}.}.|.[.$X&X>XA.DXFXGXFXDXDXDXFXSXVXbXY.cX;  .kXqXwXdX{ Q.XX2X-X-X<X].Z.H K R ! (.`.].-X;X,X-X",
"F.!.~.[.*X1X*X$X! U K L L Y !. X[.'.(.!.Q.Q.U H x.DXSXFXFXFXSXBXcXY.Y.x.m.pX2 ) e.dXfX<.w OX/.H.^.U J.F.R Y L F./.!.[.;X;X,X'.!.",
"!.!.'.|. X.X!.F.A H P F.! Q.!.|.Q.U Z m V Z L J w AXFXFXZXnXB.n.n.N.m.8Xb.cXp.& 7.kX5., ~ L Z s d F Y Z L L L !.!.}.[.$X'.!.L H ",
"'.[. X`.Q.Z V B J L Y !.`.'.!.! H A C A L Y (./.x T.FXBXV.Y.n.B.N.M.Y.x.R.Y.- _ 8.t.2 S S B W K R U `.Q.S Y ~.].$X[.!.F.H N A J ",
"!.D.A f f s d S ! Q.(.}.!.!.Q.Q.~ Y J B W.$X[.R U !.#XpX8XY.cX@XcXT.cXcXz.: ' 2.gX, Y /._.P B T [.|.(.U ~ ~.[.}.I A d i s m H H.",
"h s a i d A Y Q.!.F.F.F.Q.~.'..X|.H m R |.].F.Y !.'.G.l w a.g.g.g.p.-.> ) ' 2.sX:.A.XX'.Q.A C _.$X~.L Y _.}.I m s a a M A I Q.!.",
"f f d V H Y K.L.F.F.W.!.'..X[.`.H.Z Z /..XF.H J /.R J J < #.$.#.[ | *.` w.8.lXe.s.<X~.!.J C Y ].!.U J F.}.F.Z a s h B I K.F.Y ! ",
"I Y Y J L J Y Y Y Q.`..X X'.F.U Z L F.!.Y D H F.H.T / 1 k.SXSXGXAXaX0XfXtXlXgXg.).}.P K J J }.~ C J I /.L.Y L J L L S S J P L F.",
"(.Y Z V h Z L ! '.|._.`.!.F.L A S /.!.P V S R /.!.XXn i.DXFXGXFXFXFXNX0.tXdXe.S.K.J L V ^ L.I S Z J K././.! Q.(.Y H x V Z Y (.}.",
"! L N S R !.'.[.].!.F.U H Z J L /.F.K A S I F.L P.R 9 GXFXSXDXDXSXDXSX9XeXdXg.J Z Z L F.Y Y S B D.L Y ! Q.(.(.R S A H Y !.~.'.'.",
"Q.!.!. X.X&X X_.Y H Z V V S I Y !.Y Z C S I Y L ).e cXSXGXFXFXSXFXFXSXl.y.qXw h Z J L !.U D F J I J K ! /.(.!.Q.F.!.|..X.X'.!.D.",
"[.>X,X2X$X`.! D V C C M B J F.(.G.L S B M N L L.Y d.FXFXFXFXFXFXDXFXHX4XjX4Xt W Z T (.Q.Q.I N V h A Y !.(.Q.`. X;X;X;X$X`.F.J Z ",
";X;X[.!.H h f d i s m B T R Q.(.! F.N s C U F.).c mXGXFXFXFXFXFXFXGXaXt.dXu.f S ~ R }.U.F.J M d N Y (.~.!.'.oX>X;X%X!.P m d h f ",
".XH.H d a f s u d B B L Y /.!.!.F.H d f J !.(./.d.MXFXFXFXFXFXDXSXFX,.jX0.r F H.F.!.}.!.S u g D R K.Q.!.].*X,X-XF.Z s s p i a f ",
"Y B i i f W M d J J L ! !.|..X XJ d d L K.).~.S.mXSXFXFXFXFXFXFXFXnX0.r.' 6 / Q.(.|.|.Q.V u N R {.!.(.}..X>X`.F.W p i d m d d V ",
"d d V J Y Y R R F.F.~.|.[.*X>X!.C a S !.Q./._.#XSXFXFXFXFXSXFXFXFXc.e.&.- Y |.E.=X,X%XU s j R .X~.(.).XX$X_.A p d V J I I Y Q.Q.",
"V L Q.Q.U U F.Q.(.!.|.>X*X,X.XU h B F.`.!.|.S.mXFXFXFXFXFXFXFXFXFXh.w.*.; }.%X2X:X.X/.B m Z b Z.b Z.{.&X}.T V x b H.!.! L T P.}.",
"!.L.K.J h C L Q.'.'.-X,X*X&X!.Z P F.(.!._.&XZ.:XFXFXFXFXFXFXFXFXVX4X7.` , <XXX<X;X].S.z.7Xt.qXqXqX6X7Xg.q k A ).).K.J A C L /.(.",
"!.I m f C S Q.~.[.;X,X*X[.!.L Y F.(.~./.'._.c ~.GXSXFXFXFXFXFXFXvX9.6._ , 3X1XA.c.7XrXsXdXhXhXdXhXhXhXdXr.6Xg.i.b h p W D.^.'.%X",
"Z d d Z Y  X X$X-X,X*X[.Q.K U /.!.!.(.(.|.b v P.SXFXFXFXFXFXFXFXcXq.4.' 2 oXp.6XtXgXdXdXeXuXtXdXgXuXeXtXdXdXsXyX=.0 D K.`.~.oX*X",
"Z m I (.'.{..X%X:X,X.XY L G.`.~ U.(./.Q.|.k 1XFXFXFXFXFXFXFXFXFX8X8.2.` * ;.r.hXhXtXtXhXdXtXtXuXtXhXdXdXhXtXtXhXjX<.w +X{.$X,X>X",
"S Y /.I.!.oX<X<X&XZ.c z R Y (./.!.!.!.!._.A.GXFXFXFXFXFXFXFXFXFXV.0.6.#.% wXzXrXgXuXtXeXeXdXdXdXtXtXtXeXyXdXhXtXhXzX>.c <X;X;X,X",
"K.~ U.'.%X<XT.z.l.9.i.z ~ D.K. X{.|..XXX!.#XDXGXFXFXFXFXFXFXFXFXV.0.6.*.) 0.hXgXuXtXhXhXhXdXyXgXhXdXhXhXdXrXgXtXhXhXsX} _.1X[. X",
"!.^.^.1X%Xs.0.gXt.s.D ^ Z /.!.'.|./.P J z e ZXSXSXFXFXFXFXFXFXFXcX5.t.*.' ) xXrXyXtXtXyXuXhXhXuXeXeXeXdXhXhXdXtXeXdXzXt.7 >XY K ",
"}.'.,XG.u.r.lXy.8 P.F K.).~.{.F.Z Z M C Z 6 1XFXFXFXFXFXFXFXFXFXJX<.yX..&.) ] 2.&.@.+.&.&.2.7.e.tXhXkXtXtXtXdXdXtXtXzXhX<.t Y V ",
"|.Q.J 7 sXfXlX9.u W.K./.E.'.^ U F.I C V !.k %XGXSXFXFXFXFXFXFXFXDX{ kX5.X.&.) & @.......o...X.O.O.2.e.tXhXuXeXtXhXrXiXhXe.1 E Y ",
"b j 3 q.kX0XjX:.m ~.I.U.K.W._.*X XY Z H .Xc c <XSXFXFXFXFXFXFXFXDXj.9.lX@.X.&.' )  .@.@.X.+.+.+.....X.6.eXhXgXhXeXtXuXhXqX- / H.",
"f i > jXdXhXhX0.w |.Y F.`. X.X`.F.Z V ^ =XC.q / GXSXFXFXFXFXFXFXFXMX#.jXtX@...*.| ) ) ..&.+...o.o.&.....7.tXuXtXdXhXgXsXr.* P '.",
"F z <.dXuXlXeXhX:.w / OX<X>X~.F.L L H.|./.M q DX3XZXGXSXFXSXFXDXFXSX;.0.lXwX6.X.%.o. .' '  .+.o.o.+.+.o.o.tXtXeXhXwXrXkX6.% z Q.",
").k :.lXyXsXgXhXdX,.u.w c n u M Z b b k q d.{ NXMX<XFXGXFXZXFXFXFXSXAX;.hXfXdX8.O.#.O.O..._ |  .....+.*.+.yXhXdXgXsXdX0X%.- z =X",
"XX6 5.lXuXsXuXyXlXhXhXt.5.,.:.f.f.h.4X6Xr.y.gXf.1XK.GXFXDXFXFXFXFXFXFXN.1.fXsXlXuX7.o.X.O.o..... .+... .4.rXhXrXyXdXiX&.%.* F.*X",
").z <.zXiXzXeXkXtXrXsXgXjXkXdXfXsXfXhXlXjXtXhX5.s.XXZXZXFXFXFXFXFXFXFXFXk.,.dXlXiXlXuXw.&.+.*.X.X.....2.yXkXtXhXhXtX$.%.` = OXD.",
" XXX> y.r.lXuXtXfXdXuXeXuXuXuXeXsXeXgXdXrXiXyXjX;.v ZXSXSXFXFXFXGXFXFXGXSX8X<.qXhXdXeXdXeXyX0X8.w.7.qXtXtXtXhXtX0X2.o.*.& 0 Q.H ",
",X1Xq [ kXuXrXdXtXuXuXhXgXgXyXlXuXlXuXuXuXkXhXqX&.; GXSXFXFXFXFXFXFXFXFXGXFXNXh.8.qXhXdXrXdXhXdXhXuXhXhXuXhXyX6.*.*.%.` # B d V ",
"oX].XX$ [ kXkXsXhXuXuXiXiXtXdXdXiXgXjXgXeXe.&.#.%. .] MXFXFXSXbX@XcXcXVXGXFXFXFXnXb.h.0.yXrXrXhXkXjXhXrXe.6.+...X...} O t p i y ",
"~.A i M $ & q.gXtXeXsXfXdXtXiXeXyXe.7.2.%.%.o.%.`  .[ > b.SXbXv.M.N.V.n.@XbXHXFXDXFXFXbXaX9X7X6X0.5.&.O.` X.X. .$.g.@ 3 F y Q Q ",
"a C u j E 5 O & ..&.&.3.&.&.&.&.%.X.` ` X._ ] [ -.z.R.B.7 i.x.pXpXM.m.N.m.V.m.cXnXbXVXVXVXbXcXV.c.p.u.f.f.;.g.v.z.# 6 E J H z z ",
"B G W.W.L ).G.6 @ * : [ [ [ ] ] ] - : { { i.z.B.pX@XN.Y.cXg.; > V.N.cXY.n.Y.M.m.n.B.n.v.V.n.M.M.v.pXpXpXY.vXN.{ # c ).T E Y v F.",
"Y (.Q.Y Z V J ).|.Z.w 2 8 i.z.n.B.M.cXcXcXpXpXY.8X8Xc.z.s.s.v 6 = 2 j.n.@X@XN.n.v.B.M.B.Y.B.Y.B.Y.Y.pXpX8X, # 1 _.).Z V J N N N ",
"~.Y M d d J Q.!.XX<X1X;XS.l w 1 7 8 i.i.p.g.p.i.w 9 q c U T h F F k 2 , u.p.v.pXcXcXcXcXpXcXY.Y.n.g.=.= # 1 G.OXY N m C H K K z ",
"Y B M M Y Q.~.oXoX[.$X&X X(.^ ^ Y U P b v v z z Z F.XX(.S y V M L |.OX_.s.9 , , , > > 4 4 > ; ; < = 6 t R +X(.H.h s d L !.!.Z.J.",
"S m N I `.`.[.[.:X,XoX_.I P ~ /.'.(.!.).XX).(.H.[.&X}.Z g u L }.XX[.%X;X3X<X(.d k k k 5 5 k z J.|.+X/ ! $X%XL.W M S ! !.'.].G.G.",
"Z K F.(.XX$X2X1X2X=XQ.H J /.~._.!.Q.! Q.~.].$X&X$X`.(.H I F.!.'.'.[.;X,X[.!.Y T ! ).XXOXOX|.|.).=XI.{.-X[.!.U V P (.!._.>X`.Z.D.",
"E /.'.{.[.-X>X;X.XQ.K Y R R F.!.!.}. X&X&X>X>X-X&X^.D L K.(.|.~.[.;X,X&X!.U H Y Q.F.Q.!.!.'.'.'.{.<X2X&X_.~ Y E (.D.'.-X$X,X$XZ."
};
