/* XPM */
static char *ddec9e405b08433ca67a82ebd50d52dclyb4sV9QkvYyB1IG[] = {
/* columns rows colors chars-per-pixel */
"64 64 133 2 ",
"   c #352D3F",
".  c #362E40",
"X  c #393142",
"o  c #433B47",
"O  c #443C48",
"+  c #4A424C",
"@  c #50474F",
"#  c #51484F",
"$  c #4D4754",
"%  c #4E4854",
"&  c #554E53",
"*  c #565056",
"=  c #5F5556",
"-  c #57525B",
";  c #5B565E",
":  c #605757",
">  c #615758",
",  c #635A5A",
"<  c #685F5F",
"1  c #68605F",
"2  c #5C5660",
"3  c #645E65",
"4  c #6A6261",
"5  c #6F6967",
"6  c #69636D",
"7  c #6E6968",
"8  c #706A67",
"9  c #726B69",
"0  c #77726E",
"q  c #78706F",
"w  c #7A7672",
"e  c #7E7B76",
"r  c #807D77",
"t  c #857F7C",
"y  c #85837D",
"u  c #88857F",
"i  c #878681",
"p  c #888781",
"a  c #8C8C84",
"s  c #918D89",
"d  c #8F9087",
"f  c #909087",
"g  c #94938B",
"h  c #979693",
"j  c #989692",
"k  c #9B9B93",
"l  c #A09E98",
"z  c #A3A39C",
"x  c #ABACA3",
"c  c #ACACA4",
"v  c #ADADA5",
"b  c #ADAEA5",
"n  c #AEAEA6",
"m  c #AEAFA6",
"M  c #AFAFA7",
"N  c #ADADA5",
"B  c #AFB0A7",
"V  c #B0B0A7",
"C  c #B0B0A8",
"Z  c #B1B1A8",
"A  c #B1B1A9",
"S  c #B1B2A9",
"D  c #B2B2AA",
"F  c #B2B3AA",
"G  c #B3B3AB",
"H  c #B3B4AB",
"J  c #B4B4AC",
"K  c #B5B5AD",
"L  c #B7B5AE",
"P  c #B6B6AE",
"I  c #B7B7AF",
"U  c #B3B3AA",
"Y  c #B8B7B1",
"T  c #B8B7B2",
"R  c #B8B8B0",
"E  c #B9B9B1",
"W  c #BABAB2",
"Q  c #BBBBB2",
"!  c #BBBBB3",
"~  c #BCBCB4",
"^  c #BEBEB5",
"/  c #BEBEB6",
"(  c #BFBFB7",
")  c #BCBCB4",
"_  c #C1BFB9",
"`  c #C0C0B8",
"'  c #C1C0B9",
"]  c #C1C1B9",
"[  c #C2C0B9",
"{  c #C2C2BA",
"}  c #C2C3BA",
"|  c #C3C3BB",
" . c #C4C4BC",
".. c #C5C4BD",
"X. c #C5C5BD",
"o. c #C6C6BE",
"O. c #C7C7BF",
"+. c #C2C2BA",
"@. c #C7C8BF",
"#. c #C8C8BF",
"$. c #C8C8C0",
"%. c #C8C9C0",
"&. c #C9C9C0",
"*. c #C9C9C1",
"=. c #C8C8C2",
"-. c #CACAC2",
";. c #CCCBC3",
":. c #CCCCC4",
">. c #CDCCC5",
",. c #CDCDC5",
"<. c #CFCFC7",
"1. c #CBCAC3",
"2. c #D0D0C8",
"3. c #D1D1C9",
"4. c #D2D2CA",
"5. c #D3D3CA",
"6. c #D3D3CB",
"7. c #D4D4CC",
"8. c #D5D5CD",
"9. c #D6D6CE",
"0. c #D7D7CF",
"q. c #D5D5CD",
"w. c #D7D8D0",
"e. c #D8D8D0",
"r. c #D9D9D1",
"t. c #DADAD2",
"y. c #DADBD2",
"u. c #DBDBD3",
"i. c #DBDCD3",
"p. c #DCDCD3",
"a. c #DCDDD4",
"s. c #DDDDD5",
"d. c #D9D9D1",
/* pixels */
", # X X X X X X X X   X X X X X X X X X X X   X X X X X     X o   X X X X X X X X X X X X X   $ j C c c c M c c c U z 2 . X X X ",
", @ X .     X X X       X     X     X     X     X     X o   X   X         X   X       X X     @ j C c n c M c M c C z 2 . X X X ",
"< & X X X o o X X o X o   o o X o X X o o o X o X o o X o   X o o X o o X o o X X o X o o X X & h D n c c c M c M U z 2 . X . X ",
"r 9 * * & & & & * & & & = & & * & & & & & & & & & & & & & & & & & & # & & & & & & & & & & & & < l C c n M c c c c C l 2   X X X ",
"a e , , , , , , , , , , , , , , , , , , , , , , , , , , , , , , , , , , , , , , , , , , , , : 8 l n c c c M c M v A x 2   X X X ",
"a w , , , , , , , , , , , , , , , , , , , , , , , , , , , , , , , , , , , , , , , , < , 1 , , 8 l C M c c c c M v A k 2   . X X ",
"a w , > 4 0 e w r 8 , , , , , , , , , , , , > , , , , , , , , , , , , , , , r p a a a a u u y y L $.| J c c c c v A l 2 . X . X ",
"a e , , 8 a a a u 0 , > , , , , , , , , , , , , , , , , , , , , , , , , > , a M V v v V V V g j $.d.4.W c M M c v A l 2 . X X X ",
"d w 1 , 9 u f y 8 < , , , , , > , , , , , , , , , , , , , , , , , , , , > , f M v M v M B b j k $.u.4.R c v v v v C x 2 . . . . ",
"u w , = 9 u f y 1 : , > , , , , , , , , , , , , , > , > : : : , > , , > > , a b v v b b B x j k $.u.4.W c v v v v C l 2 . . X X ",
"d w , = 5 y u y 1 , , , > , , , > , , , > , , , , , , < 4 4 3 1 < , < < , 1 f S M M b x Z x g k $.u.4.T c v v v v A z 2 . . X X ",
"d w 1 = 1 5 8 5 < , , , , , , , , , , , , , , , , > < u j g g d t r r r r r x X.U x v v Z z k j =.u.4.T c v v v v C z 2 . X X X ",
"d w , , , > , > , , , , , , , , , , , , , , , , , > 4 j A C C x g a f a a f R 2.L x v v M c k k =.t.6.Y x x x c c C z 2 . X X X ",
"a w 1 = , , , , , , , , , , , , , > , , , , , , , > 4 g C v M x g a f u u d R <.J x v v M c j j O.t.6.R x M v M v C z 2 . . X . ",
"d w , = , > , , , , , , , , > , > > > > > > > , > : < g M c v x l l l g a d K <.J c c v v c j j #.t.4.-.........=.~ k 2 . . X X ",
"d w , , , , , , , > , , , , , , 5 8 8 5 4 4 4 4 4 < 9 l J M v v v M z j u d R 3.L c v v M x j j $.t.9.9.q.q.q.0.q.=.x 2 . X X X ",
"a w , , , , , , , : , , , , , 7 d z k d y r y y y e a R %.C c v b B x j u d L <.L b b b B B k g $.t.9.9.9.9.9.9.0.$.z 2 . X . X ",
"d w , , , , = , , , , , , , = 7 l S x g a d d d a a g } <.A c v b B x g a a R 3.H b z B B z k k $.t.9.9.9.9.9.9.9.$.z ; . X X X ",
"a w , , , , , , , , , , , , = 7 z H B k d a a a a a g ] 1.A c v b b x g u d R 3.R Z F V x x g k O.d.9.9.9.9.9.9.9.#.z 2 . X X X ",
"a w , , , , , , , , , , , , = 0 H <.@.B k d u a a a g ] :.C c v b v x g u d H 7.<.#.#.R z B k k O.d.9.9.9.9.9.9.9.#.z 2 . . X X ",
"d w , 1 , , = , , : , , , , = 0 } a.7.Q l d a a a a f ] :.A c v b v x g a d H w.e.e.7.R B b j g $.t.9.9.9.9.d.9.9.=.z 2   X X X ",
"d w , = , , 1 , , , , , , , = 0 } a.3.Q l d a a a a f ] :.A c v b v x j u a R e.e.e.7.R Z z j k O.t.9.9.9.9.7.7.4.=.z 2   . X X ",
"a w , = 1 w w w w w w w w w 0 d } i.3.Q l d a a a a g ] :.A c v v v x g a d H 0.0.e.3.R Z B k g O.t.6.O.( ( ( ( ( W z 2 . X X X ",
"a w 1 = 5 y d a a a a a a d u k %.y.3.Q l d a a a a f ] :.C v v v M x g u a R 0.0.e.7.R z B g k $.t.6.R x x x c v A l 2 . X X . ",
"d w , = 9 p a a a a a a d d u k %.w.6.! z a a a a a f ] -.M x v v M x g a f L w.9.0.6.R v v j k O.t.6.Y x c x v x C z 2 . X X X ",
"a w 1 = 9 s k j a a a a u d u k %.w.6.%.J k k j a a f ] 6.] ( R M v x g u a L 9.0.t.6.R x b j k =.t.6.=.( ( ( ( _ W z 2   . X . ",
"d w , = w x U x g a a a d u u k %.t.9.9.-.C c z f a g ] 0.9.9.<.U v x j a d L w.7.6.<.Y v c j j O.t.9.7.7.9.9.4.9.@.z 2 . X X X ",
"d w , = r _ <.| b j a a d d u k %.w.9.w.;.A v x f a f ] t.9.9.<.L v x g u a L 6._ R R A v x j j O.t.9.0.0.0.0.0.9.%.z 2 . X X X ",
"a w , = y ,.s.3.I l d u d d u k %.t.9.9.-.A c z g p g ` w.w.t.<.L c c g u a I <.H x x x v x j k O.t.9.9.9.9.9.9.4...l 2   X . X ",
"a w , = y ,.t.<.K k d u d u u k =.w.9.9.-.A c x f p g ` w.9.9.<.H B x g a d I <.L v v v v b j g #.t.9.9.9.9.9.9.0.=.x 2   . X X ",
"d w , = t ;.t.<.K l d d a a u k =.t.6.O.R M v z g p g ` 6.] ( R C c x g u a I 7.#. .] H v b k k =.0.9.9.9.9.9.9.0.6.T 3 . X X X ",
"a w , = t ;.t.<.K k a u a a u k O.t.6.R x v v x f a g ` -.B x x c B x g a d I w.0.t.4.R b b g k O.d.9.9.9.9.9.9.9.u.=.6   . X X ",
"s w > : t ;.u.<.H k d a u d u k %.t.6.R x v C z f p f ] :.C x c v B x g a a I w.0.t.6.R v c j k O.w.9.9.9.9.9.9.9.p.=.6   X . X ",
"a w , : t :.t.6.} x u a d d u k %.t.6.O.R B B z g a g ] 6.] ( R C c x j p d L w.0.0.6.L x x k g R O.O.} ......| | -.T 3   X X X ",
"a w , : t :.t.9.w.I d d d u u k =.t.9.9.-.A v x f a g ] 9.9.9.<.J c x g a a L w.0.0.4.R M M k g x v v v v M M v v A z 2   X X X ",
"f w , : t :.t.0.w.} z z k d u k #.0.9.w.-.A v z f p f ( t.9.9.<.L c x g u d H w.0.9.9.<.-.-.G z x v x v c c c c v Z z ;   X . X ",
"a w , > t :.u.9.8.@.B b z d u k -.d.9.9.-.S c x g p g ` t.w.w.<.L v x j p a I w.t.9.t.t.i.w.( B x c v v v v v v M M z 2   X X X ",
"a w , : t 1.t.9.8.} B b z d u k O.t.9.9.-.C B z f p g ` w.9.9.<.H v x g a d H 7.9.4.6.4.9.7.! x c c v v v v v v x M z 2   X . X ",
"a w , > y -.y.8.8.} b x z d u k O.d.9.9.-.S B z g p g ` 3.` ( Q B v x g a d x Q A x x x x x l l x M v v v v v v M M z 2 . X X X ",
"a w , : y :.y.8.w.} B B z d u k O.t.9.t.-.C B z g p g } :.C x c v B x g u a z z a a a a a a a g z v v v v v v v v A l 2   X X X ",
"a w , : t ;.d.9.9.O.v v z d u k O.t.9.t.-.A v z g y g } :.B x c x B x g a d k z g a a a a a u f x v v v v v v v v A z 2 . . X X ",
"s w , : t :.t.7.-.R v v z d u j O.t.6.-.( v v x g p g ` 2.} ( ` ( ( R k u d l x k k k k k k k k x M v v v v v v v A z 2 . . X X ",
"a w , : t ;.t.<.L c v v z d a k O.t.6.R v v v z g y g ` w.6.8.6.9.9.<.z u d l B B x z B x b x x x c v v v v v v v A z 2 . X X X ",
"a e , : t :.t.<.H c v v z a u k -.t.6.L x v v x g p g ` i.y.y.w.t.i.6.z u d l B B B B B B B B B v v v M v M v v v A z 2 . X X . ",
"s w > = t :.u.3.( A v B z d u k $.t.7.] A v v z d p d C } ` ^ ^ ( ] R k a a g z z l l z z z z z z z z z z z z z z z h - . X X X ",
"a w , : t >.t.9.6.` v v z d u k $.t.9.9.$.A v x g d d d g g g g g g g d a a d d d d d d d d d d s d d a f f d f f g i & . . X . ",
"s w < : t ;.t.0.t.O.v x z d u k $.t.9.9.6.O.O.~ z l k d d k k k k k k l l l l l l k k g a a g k l l k l k k z k k z h - . . X X ",
"a w > > t ;.t.9.9.} B x z d u k $.d.9.9.9.9.t.<.P c c g g x B B v v v v v v B x B B x g u d l B B v v v v v v v v A z 2 . X X X ",
"a w , : t :.t.0.0.| v v z f u k @.y.w.w.w.w.y.2.H B x g g x B x v v v v v v v v x B B g u d k B v v v v v v v v v A z 2 . X X X ",
"a w , : t ;.t.0.9...M v z f a g B E P P K K E H z l k d g x B B v v v v v v v v x B x g a d k B c v v v v v v v v Z z 2   X . X ",
"s w , : t :.t.9.9...v v z a a a d d d d d d d d u d d d g x B b v v v v v v v v x B z k u d l B v c v v v v b b v Z z 2   X X X ",
"a w , : t ;.t.9.9.| v c z a u a u d u u u u u u u d u u g x B B v v B v v B v v c B B g u d l B v B v B v v v v B A z ;   X X X ",
"a w , : t :.t.0.t.-.( R Z k g g d u d g j j j k k g g d d z z z z z z z z z z z z z l g u d g z z z z z z z z z z z h 2   . X X ",
"a w , : t ;.t.4.6.6.<.<.} v x z f d d l z b z z x B x g d d d d d d f a a d d d d d d d a d d d d d a a a d d a d g p % . X X X ",
"z u , : w z v b x v x v x k k k d u d g l k k k k k k d u u d u a a a a a a g k l k k l l l l k a a a a a a a a a d y % . X X X ",
"v a , > 5 u a a a a a a a a a a d u d d u d a a u d u d d a a a a a a a a d l B B B c B B B B z g a a a a a a a a d i & . X . X ",
"M a , = 8 u a a a a a a a a a a a a a a a a a a a a d u d u d u a a a a a a l B B B B B B B B z d u a a a a a a a a y % . X X X ",
"v f , > 8 u a a a a a a a a a a a a a a a a a a a a a d d a a d a a a a a a g l l k k l l k l k d a a a a a a a a d i * . X X X ",
"M a , > 8 u a a a a a a a a a a a a a a a a a a a a d u u d u d a a a a a a d a d a d a d d a d d a a a a a a a a d u % . X X X ",
"c a , = 5 a s a a a a a a d a a f a a a a a d a d d d u d d d d a a a d a d a d a a a d a a a a a d a d a a d d a d y & . . X . ",
"~ j 5 4 9 r r r r r r r e e e e r r r r e e e e e e e e e e e e e e e e e e e e e e e e e e e e e e e e e e e e e r w * X + X X ",
"7.J a a t 8 < < < < < 3 1 1 4 1 1 3 < < 1 1 1 1 1 1 1 1 1 1 1 1 1 1 1 1 1 1 1 1 1 1 1 1 1 1 1 1 1 1 1 1 1 1 1 1 1 1 1 , , ; + X ",
"0.;.Y Y D l l l s p a a a a a a a a a a a a d y e w w w w w w w w w 0 w w w w w w w 0 w w w 0 w 0 w w w w w w w w w w w w w 1 # ",
"0.0.0.0.0.t.t.3.L n c C c v v v v v v c B B B x g u d u a a a a d d d a a a a d a a d a d d d a d d a d a d a a a d a a d a 0 , "
};
