/* XPM */
static char *_683145971219[] = {
/* columns rows colors chars-per-pixel */
"64 64 256 2 ",
"   c #16070D",
".  c #351E2D",
"X  c #501929",
"o  c #6B294A",
"O  c #274B74",
"+  c #606973",
"@  c #8C2C66",
"#  c #A54D5F",
"$  c #958770",
"%  c #B59B77",
"&  c #B0926F",
"*  c #BAA174",
"=  c #B5925E",
"-  c #D39C56",
";  c #DBA757",
":  c #DEAA51",
">  c #E6A74C",
",  c #E2A654",
"<  c #E3AA55",
"1  c #E4AC5C",
"2  c #EAAB5C",
"3  c #E8A757",
"4  c #E7B25C",
"5  c #F0AD54",
"6  c #C79C73",
"7  c #DBA968",
"8  c #DCB268",
"9  c #C7A679",
"0  c #DDB576",
"q  c #CCA86E",
"w  c #E4AD63",
"e  c #E9AD63",
"r  c #E7AD6A",
"t  c #E4B365",
"y  c #EAB264",
"u  c #E5B36C",
"i  c #EBB46C",
"p  c #EBB96C",
"a  c #E6BA6A",
"s  c #F4B86B",
"d  c #E5B573",
"f  c #EBB573",
"g  c #E5BA74",
"h  c #EBB974",
"j  c #EAB67B",
"k  c #E5BB7B",
"l  c #ECBC7B",
"z  c #E5B57A",
"x  c #F3BB74",
"c  c #F2BC7C",
"v  c #F5B977",
"b  c #EAAE6E",
"n  c #E29A4E",
"m  c #DBC17D",
"M  c #ECC27C",
"N  c #E8C47A",
"B  c #F6C27B",
"V  c #E9C16A",
"C  c #E39F3E",
"Z  c #012C98",
"A  c #033A96",
"S  c #053DA8",
"D  c #0133AC",
"F  c #124F93",
"G  c #366598",
"H  c #024CBA",
"J  c #0349B5",
"K  c #0254BB",
"L  c #064BAB",
"P  c #0968B6",
"I  c #3272B3",
"U  c #2C5086",
"Y  c #527294",
"T  c #617F96",
"R  c #4B7BAD",
"E  c #6B79B2",
"W  c #054BC5",
"Q  c #0152C4",
"!  c #0259C8",
"~  c #045AD4",
"^  c #044ED1",
"/  c #0163C5",
"(  c #0265CB",
")  c #016AD4",
"_  c #0369D7",
"`  c #0A74DC",
"'  c #1572D1",
"]  c #327DCB",
"[  c #0874E5",
"{  c #197BE5",
"}  c #0C76F3",
"|  c #217DE8",
" . c #005CE1",
".. c #E54EA4",
"X. c #C43E87",
"o. c #3484B4",
"O. c #6D8891",
"+. c #4F85B6",
"@. c #7896B7",
"#. c #6B8FB0",
"$. c #7BA5B8",
"%. c #378BD9",
"&. c #168AF5",
"*. c #2C83EA",
"=. c #2583E9",
"-. c #358CEC",
";. c #3589E8",
":. c #3B94ED",
">. c #3998EA",
",. c #2C8AF4",
"<. c #348DF4",
"1. c #3B95F3",
"2. c #3D9BF5",
"3. c #3698F8",
"4. c #2A93F1",
"5. c #3AA4F8",
"6. c #3BA4EB",
"7. c #1284DD",
"8. c #4589C9",
"9. c #5192D4",
"0. c #6A9DD3",
"q. c #72ACD5",
"w. c #4399EC",
"e. c #4798E8",
"r. c #439CF4",
"t. c #429DFB",
"y. c #4899F6",
"u. c #5199EC",
"i. c #44A3F5",
"p. c #44A3FC",
"a. c #4BA4FC",
"s. c #44ABFE",
"d. c #4CABFC",
"f. c #4AA8F5",
"g. c #56ABF8",
"h. c #4DB1FA",
"j. c #57B7F9",
"k. c #50AAEF",
"l. c #68B7FA",
"z. c #76BAFA",
"x. c #6EAFED",
"c. c #52A3CA",
"v. c #68C5FA",
"b. c #78C7FB",
"n. c #7DDBFD",
"m. c #78C5EB",
"M. c #5CC1F7",
"N. c #90948F",
"B. c #AA9989",
"V. c #AC9C9E",
"C. c #B7A488",
"Z. c #A8A496",
"A. c #B5AD92",
"S. c #859BAA",
"D. c #919BAE",
"F. c #93A9B8",
"G. c #8BA8B4",
"H. c #ABB6B7",
"J. c #B6B9B9",
"K. c #ADB1AB",
"L. c #9DA19C",
"P. c #C8A984",
"I. c #CBB38A",
"U. c #D8B584",
"Y. c #CEB18F",
"T. c #E5BB83",
"R. c #ECBD83",
"E. c #ECBD8A",
"W. c #E5BA89",
"Q. c #F2BD84",
"!. c #F2BC8A",
"~. c #E3BD94",
"^. c #F7BE91",
"/. c #C7BAAA",
"(. c #BBC4BB",
"). c #B0D0B9",
"_. c #8FC2B3",
"`. c #D9C48D",
"'. c #ECC284",
"]. c #ECC38C",
"[. c #ECC88D",
"{. c #E5C387",
"}. c #F1C284",
"|. c #F2C48B",
" X c #F3C98C",
".X c #F9C788",
"XX c #EDC592",
"oX c #EDCA94",
"OX c #EDCB9C",
"+X c #E8C799",
"@X c #F2C492",
"#X c #F1CA94",
"$X c #F2C69B",
"%X c #F2CB9B",
"&X c #FBC897",
"*X c #EDD19C",
"=X c #F8D19A",
"-X c #D3C8B9",
";X c #D0C8B0",
":X c #ECCDA3",
">X c #E9CBA6",
",X c #F2CDA3",
"<X c #F2CEAB",
"1X c #F9CAA3",
"2X c #EDD3A5",
"3X c #EDD3AB",
"4X c #E4D2A7",
"5X c #F2D1A5",
"6X c #F2D2AB",
"7X c #FBD6A7",
"8X c #F3D3B2",
"9X c #F7D9B5",
"0X c #EBD3B4",
"qX c #FFE1B3",
"wX c #90B0C8",
"eX c #B8BEC6",
"rX c #ACB8C9",
"tX c #85B8F2",
"yX c #BAC6C8",
"uX c #ADCDD0",
"iX c #84C9FB",
"pX c #84D3FD",
"aX c #89D6FC",
"sX c #94D8FA",
"dX c #8DCAEA",
"fX c #8CE5FD",
"gX c #97E5FB",
"hX c #99F2FE",
"jX c #B4F1F6",
"kX c #9FD4E3",
"lX c #C9CAC9",
"zX c #DAD6CC",
"xX c #DCDCDC",
"cX c #D8D8D7",
"vX c #CBCFD2",
"bX c #E4DAD8",
"nX c #F0DBC0",
"mX c #DCE1DC",
"MX c #E7E4DD",
"NX c #DADCE3",
"BX c #CDD7E0",
"VX c #E3DCE4",
"CX c #D9E4E6",
"ZX c #C9FCFD",
"AX c #D8E8FA",
"SX c #E7E7E7",
"DX c #F6EBE8",
"FX c #F8F6EC",
"GX c #E7EAF4",
"HX c #EBF6F8",
"JX c #FEFDF5",
"KX c #F4FCFE",
"LX c #FDFDFD",
"PX c #F8F4F9",
"IX c #F5F0F3",
"UX c #FB84E8",
/* pixels */
"t g l Q.l M oX6X<X6X`.0 p Q.z p '.%X:X[.d t r e s x x x d 9 C.B.L.B.$ = 6 q - q j R.7X@XM 4 r e 2 4 f ^.l M [.<X9X<XXXN a a f h ",
"c f f T.XX:XOXOX%XR.x s a f Q.}.$X|.g u s s i b % $ + U F L S Z Z Z Z A O O.K.J.F.V.% 6 7 < p f R.Q.t l XXoXoX6XXX'.h x f f !.~.",
"Q.l l [.OXOXR.h 1 w 2 b l '.[.>X{.{.v s ; $ Y F J J H W W W H L Z S A D D Z U D.lX/.J.H.B.C.U..X[.W.k  X%XOXk f ; t r i c Q.].XX",
"k '.oX[.g t 1 , ; y l XX@X'.T.Q..X|.% Y K Q S H H Q H H H H H K J S S J S S D Z Y lXyXrXyXeXV.C.k k ^.&Xk 7 r 3 < r f R.!.[.'.}.",
"T.[.!.f ; > , 2 h k {.].T.M .X|.N.G H Q J L H W H H W H Q Q W W P K H J W K J K Z + lXlXyXeXvXH.B.9 =Xf : 5 , 3 i x '.].{.].R.}.",
"R.!.Q.b w t i d l '.c l B .XB.G ! ( / ! ! J J W W W Q Q ! ! ~ ^ H Q ~ ! ! ! ( ( ! Z O.cXeXlXyXJ.yXV.P.t 1 4 u g k N l l R.].$X,X",
"Q.Q.c c l l h d s r {. X7 Y ( ) ' ) _ ~ ( ~ ~ ~ ! ~ ) _ _ _ ) ( ~ ^ K ! ! / / P ) ^ O yXcXlXvXeX(.uXV.%  X!.z 8 d g l l ].|.oXOX",
"l '.].[.'.g y y 0 c B Z.I [ &.7.=.{ | { { ` ` [ [ [ [ [ } [ [ ` _ ( K / ! ~ ~ ) ! ( L F.cXBXzXcXlXlXBXV.0 B 1 i i l E.oXOX#XT.g ",
"v |.`.Q.'.j p `.OX.XN.=.:.%.3.;.:.;.;.*.=.| | &.| | | | | { { { { ` ) ) ) ) ( ( ! ( H #.DXBXNXxXNXxXcXNXB.k x T.oXOXoX[.T.j f i ",
"M M '.@XE. X[.7X=XO.%.w.w.w.e.2.:.-.;.-.-.,.,.,.,.,.,.*.| | | | =.{ { ` [ ` ) ( ( ( W O.SXcXxXxXNXxXcXVXvXC.=X,X%X@X].k f t t y ",
"M [..X%X%X6X=X$XN.%.2.r.2.e.e.:.1.:.-.1.1.1.1.2.3.3.<.<.-.;.*.;.*.| =.=.{ =.` ) _ ( Q O.CXVXzXCXNXcXCXVXSXK.~.,XR.l f w 1 1 4 y ",
"@XE.#X3X5X4X.X& %.w.r.u.w.>.u.;.w.:.w.2.r.2.t.2.2.t.1.r.1.<.-.;.;.*.*.=.=.=.7.{ _ ( H @.SXbXbXCXNXcXCXbXNXvXC.p 1 < < , 3 r f l ",
"$XoX*X:X+Xg ; Y 3.w.1.w.e.w.r.>.w.w.:.r.i.i.p.d.p.p.p.2.2.1.-.:.-.-.<.*.*.| | { ` ` H K.SXNXNXxXNXCXCXMXbXCXC.: , , , 2 y f Q.|.",
"@X:X,X'.y 3 $ ;.e.y.e.w.w.e.:.w.w.w.w.r.2.p.p.f.a.a.p.p.2.r.1.:.>.>.3.<.<.<.=.| { _ F vXbXNXNXcXVXSXCXSXbXAX/.- x i i h l l [.#X",
"oX:X!.y 2 1 O.3.r.e.>.u.2.>.e.e.w.r.y.y.p.g.g.j.g.j.g.i.i.r.2.2.2.2.3.3.<.,.,.=.| _ Y IXxXCXCXSXSXSXIXSXSXGXlX9 c c l }.[.oX#X%X",
"1X{.i y R.8 %.u.2.e.w.1.w.u.1.y.r.r.p.a.g.l.z.b.b.z.l.g.a.p.p.i.p.p.t.2.3.,.,.{ ,.( H.LXGXMXSXIXPXFXHXHXSXGXcX* h f j [.oX:X6X6X",
"{.j b x #XC.9.p.r.e.w.t.y.%.e.y.e.a.h.l.tXiXb.sXsXsXb.b.l.g.h.5.p.f.p.p.1.4.,.*.} I DXJXKXPXKXJXLXKXLXKXFXSXCX% w f |.oX:X2X6X<X",
"c t E.XXB - u.x.t.p.t.r.r.y.r.r.t.l.x.pXfXaXm.x.q.q.tXaXiXiXx.l.s.a.5.t.3.,.3.&.' G.LXLXJXPXLXJXLXLXLXKXFXIXCX% x }.@X:X,X7X%XXX",
"h M %X+Xt n @.l.k.p.p.i.i.t.r.f.g.b.aXpXq.@.N.D.K.F.F.#.v.pXiXz.d.a.i.2.3.<.*.&.] cXLXKXJXLXLXLXLXLXLXKXPXPXNX*  X#X:X0X6X%X'.g ",
"%X2X:Xl a s L.v.m.g.a.d.i.p.a.g.l.iXpXc.U N.zXFXLXFXIXzXO.z.b.b.l.p.5.3.3.3.*.} S.PXLXKXLXJXLXLXLXLXLXLXKXKXxXP.#X*X3X8X2XE.k h ",
"5X+X{.s k .XP.q.n.v.h.g.h.s.h.j.l.b.iX' } [ ( +.S.yXAXPXGX#.z.b.z.p.i.3.4.-.4.I NXLXLXLXLXLXLXLXLXLXLXLXLXLX-XY.2X6X6X%X].k f c ",
"R.i T.c '.T.[.A.n.n.v.k.j.s.s.j.v.b.m.q.6.&.&.[ _ ^ K E eXS.z.b.l.i.2.3.-.-.{ S.JXPXJXLXLXLXLXJXLXJXLXLXKXLXI.,X8X8X%X{.g a h h ",
"j s f l XX{.=X XL.kXn.M.g.j.j.h.j.l.v.fXaXl.s.5.5.&.[  .W F 0.b.z.y.t.1.:.,.I SXLXLXLXLXLXLXLXLXLXJXLXLXLXbXI.=X$X$XE.f p h M T.",
"R.`.s XX+X*X+X[.5 L.m.n.b.j.j.M.M.j.v.v.m.n.v.h.s.s.6.&.} ! x.pXl.g.1.y.2.{ F.LXHXLXLXLXLXKXJXLXLXLXLXLXLXK.+X[.a u r f v l !.%X",
"h T.oXOXXXz t , > 1 C.wXpXn.v.j.j.M.M.j.j.M.M.h.s.5.h.s.>.+.m.b.l.s.5.6.3.R FXKXLXLXLXLXLXLXLXJXLXLXLXPX-Xq 5 3 3 2 f T.].].].E.",
"h }.@Xl 4 > , , y z '.0 L.m.n.b.v.M.j.j.j.j.j.h.j.h.g.h.k.+.pXiXj.f.s.f.;.rXLXLXLXLXJXLXJXJXLXLXLXKXLXMX6 > < 8 u d l '.}.'.E.|.",
"k }.Q.y > 3 e b j }.N f v Y.F.dXaXpXn.v.v.v.j.j.k.d.h.j.9.c.aXb.j.g.d.5.8.DXLXKXKXLXLXLXLXLXJXJXFXLXHX* 5 ; 8 2 g l M c R.'.@XoX",
"{.].l d f x h a j f N {.]..XoXA.G.kXgXfXaXsXaXn.b.v.v.b.R iXpXz.h.d.k.4.eXLXJXLXLXLXKXKXLXLXLXKXLXGX% x s h l j a h l R.].oXOX+X",
"}.'.'.R.|.Q.u 8 x b l oX>X:X|.v 5 8 C.H.kXhXgXsXaXpXpXq.0.iXb.l.d.h.i.8.DXLXJXLXLXLXLXLXLXKXKXJXcX$ q Q.].[.r 2 i h R.XXOX%XXX{.",
"v c [.}.l f f h Q.oX:X$X'.k z r f l }.f q P.(.uXjXjXkX+.tXz.l.d.r.a.>.wXJXJXLXLXJXJXPXLXPXLXLXK.L.IXBXC.!.j i f {.XX%XOX].R.h i ",
"c l }.'.'.R.@X%X4X<X].a h y 4 f d R.Q.j p a u w Y./.@.0.iXl.u.r.i.p.8.cXLXJXLXLXLXLXLXHXLXDX#.L / I H.cXP.W.+XoX1X%X[.l d u b e ",
"].'.[.@X,X<X6X*XXXB f r t t u p }.}.'.h r 2 b f Q.p N.z.z.f.y.a.r.p.#.JXLXLXJXLXLXKXLXFXrX+.=.&.7.` ( R H.Y.7X4XOXE.z y 4 t t i ",
"].@X@XOX3X2XXXh r w 1 < < 1 p f !.OXl j t > 0 '..XB.l.tXl.2.y.i.p.2.@.LXHXKXLXLXKXLXcXwXm.fXpXb.j.a.p.,.%.N.P.].b 4 1 1 < > u l ",
"}.oX,X3X:XR.r 1 < : 3 2 e f Q.&X.XoX'.r , r E..X9 u.tXl.g.y.k.5.a.3.#.LXLXLXJXJXIXZ.$ Y.A.K.uXuXkXb.v.l.p.%.+ > > ; , < w x c R.",
"@X%X2XOXh 1 , < 1 1 e y c |.U.6 Y.U.; C a [..Xk @.b.tXg.3.f.p.i.a.h.%.eXLXJXLX-XY.XXs > 5 x k 0 I.A.F.b.dXg.%.$ 5 4 e y j Q.}.].",
":X:X|.f < 2 i h h c c l }.@X`.P.J.CXbXY.% u h N.l.z.Y %.p.p.d.d.p.p.1.P #.rXK.~.9X[.4 7 k ].XX].7X&X#X* G.M.f.+.0 v c }.Q.{.[.%X",
":XXXf 1 i x }.l l l Q.|.[.OX6X9X+XP.VXKXKXzXZ.9.x.z.R R i.e.i.f.k.5.,.[ A B.7X*X$Xh 4 a ].oX[.XXOX#XE.e 3 Z.sXg.% v R.XX X+X5X5X",
" Xg t l }.[.j r d g T.oX5X6X6X<XoXy q /.PXcXMXMXF.+.#./.' 5.7.;.5.3.&.P I.7X:X8X$Xg u R.^.|. X@XoX{.y u |.R.Z.sXN.V T.+X=X<X8X8X",
"l f k ].{.z t 2 u '.#X5X:X6X1X+Xf f B U.V.PXJ.DXPXGXHXLX$.) / Y a.3.P A.7X0X=XXXT.k M .X!.R.[.%XT.2 l {.`.c n yXK.h oXOX5X3X%X,X",
"f R.#X|.f 1 w p |.@X5X3X2X*X[.k N XXB I.@.rXJXH.LXPXLXLXKX@.G K.e.&.Y =X0X4X|.k h Q.].R.XX#XXX{.g Q.@X&Xz 2 5 * H.R.6XOX1X0X'.k ",
".X,X:XN t f l M oX,X2X2XOX[.d h W.#Xq F.AXwXeXDXJ.LXLXLXJXJXJXbX8.{ N.7X0X{.k j T.].[.'.M |.].].[.%X:X{.u u l W.$ 2X%X7XOXOXk p ",
"3X:X].l a l ^.1X<X6X<X,X&Xh l '..Xl @.sXz.tXq.lXlXcXLXKXLXLXKXDXo.} % qX+Xh f l .X@X@X{.E.$X,XOX<X%X[.k f Q.|.{.% 4X5X7XXXT.f h ",
"+Xk g Q.E.'.[.+X*X5X7X.Xz f l - q N.l.z.l.z.l.0.bXJ.IXIXIXLXPXMXR &.O.oXh a h l k |.$X@X@X@XXX[.XXE.c v x M XXoX4X9X2XXXl l j c ",
"p a g R.'.[.+X>X3X5X9 9 P.9 U.% B.0.z.x.z.x.x.x.F.SXZ.IXSXSXLXcX%.>.P q s h f '.[.oX@X'.f d a i g z f c T.].%X<X5X%X{.z f f h k ",
"R.h v E.+X+X%X@X{.k = C.mXKXGXIXD.z.z.l.x.u.0.z.9.vXvXuXDXbXHXeX] e.' $ N Q.!.+X#X].z u 4 r x h l h p '.OX:X$X@Xl d i p f R.'.'.",
"E.l '.oX1X].p w n n 7 % -XLXKXcX0.pXz.g.u.y.u.y.x.#.FXK.J.K.bXwX;.>.w.+.N }.}.[.R.E.R.i y h ~.%X}.l E.oXoX'.h t 7 w i h l {.[.#X",
"h T.[.[.y - q P.;XzXSXKXGXGXPXL.m.b.b.x.y.1.t.t.u.u.@.IXuX/.VX+.>.e.>.%.9 B c Q.^.%X|.f u E.XXOXh {.OXXXd 1 < ; 1 r z }.}.'.'.T.",
"M ].|.t - = B.;X-XxXHXGX-XJ.H.S.dXpXb.x.y.2.r.e.2.1.u.#.rXrX#.e.8.E %.:.N.}.{.>XoXOX].0 f .X Xk j '.'.f 3 > 3 2 s R.{.].R.c |.%X",
"Q.Q.l a d d f r t u 7 P.lXSXzX$.aXsXb.g.g.r.t.y.2.y.y.t.%.%.3.8...UXX.| #.N +X1X%Xl y z !.|.h t M }.R.d u u j l l f l l '.].oX*X",
"c Q.|.Q.Q.h p y b R.|.M `.Y./.G.fXsXv.j.i.i.d.2.a.1.a.y.y.5.;.@ ....X.R G 0 3XM j g h Q.R.d a l }.c B Q.!.l i 4 u z l '.@X#XoXXX",
"l R.!.|.l p t u c R.+X#X%Xl d N.fXgXm.j.g.s.i.i.y.d.i.>.y.a.O X o o # Y ] = N r t g l Q.f u f Q.Q.R.'.}.Q.l u 4 l |.oXoXXX].j f ",
"R.'.].|.M k {.XXXXOX:X].h i g % fXgXpXl.h.a.i.d.f.i.p.i.a.y.. o   X @ I I = s j h h l k d p x h R.R.|.'.M N '.XXOX%X%X].k d i y ",
"E.}.[.[.#X,X<X5X:XXXk t 4 1 i 9 hXhXgXv.d.h.h.s.d.s.a.i.y.o.zXHX  X o ,.T - 2 8 h }.'.j u y i t c }.|.XX[.oX1X<X$XXXR.f i e w y ",
"'.'.[.OX<X8X%X].d y t 2 e 1 5 w _.jXhXn.M.h.f.h.a.5.s.w.y.$.PXLX. X I | = * 2 l c @X@Xh 1 3 u l }.}.[.OX3X8X%X[.l d w 2 2 1 u h ",
" XoXOX5X,XXXf t w > > 3 e t x B A.kXjXhXn.v.k.h.f.a.5.a.;.D.LXSX  O 3.O.7 % l N |.@X].u , w l |.'.|.oX:X,X+Xj t ; < , , 1 r z R.",
"[.$X,X5X{.t , , 1 > 4 r f k }.@X'.H.ZXjXfXpXb.j.h.a.a.a.6.+.bX+ O j.+.- ;X6 .X'.@XXXN ; 2 Q.|.'.XXOX:X5X].a ; , > , ; - ; 8 d d ",
"oXOXOXl 4 , w u f j R.l c B oX:X2XW.Y.HXZXjXsXb.m.b.l.x.l.j.8.9.dXG.6 =X/.0 $X:X2X[.b < u Q.].}.[.:X<XR.w < 1 u f f 7 7 j l z z ",
":X@Xl r w f B c x l Q.|.|.oX:X6X8Xl 7 C.AXHXZXhXsXsXn.aXdXtXaXb.G.9 B 0XK.c ,X6X5X'.r t l [.XXXXOX#XR.r 1 h c l Q.l u d l j f g ",
"OXR.y y l |.R.i i f l @XOX2X2X6XoX8 p 0 I.-XCXZXZXZXZXZXZXjXtXG.zX=Xs 4XY.1X<X3X#Xz w l |.oX[.OX,X'.y r l }.R.f i f 7 8 '.R.R.}.",
"Q.f d '.[.E.r 2 u l  XOX<X8X5XoXR.x l ].[.U.C.L.).uXkXCXuXK.-XJXLX0XoX/.>X6X0X#XT.z g }.[.].[.OXQ.f a |.oXl r w t h 0 0 '.}.R.j ",
"f l XXXXj 1 1 i T.#X*X6X<X6XoXk Q.l  X{.@X&X@XI.- q I.9 & vXLXJXKXLX-XA.7X8X:Xg l R.[..X'.].@X}.h g {.$XT.4 1 i R.@XW.T.[.M h h ",
"T.oX%X'.y < a ].oXOX5X6X:XXXR.h N {.].'..XR. X0 9 T.].0 & SXKXLXLXCXA.7X5X+Xc m l |.@X'.'.XX@X'.N oX%X~.i < a '.#X^.U.W.'.j g R.",
":X%X|.x i x '.XX,X,X6X,XoXM h c l .X!.&X}.}. X%X=X5X:Xz B 9 /.cX;XU.3X9X#XM i R.'.|.|.].].@XoXoXOX1X&Xc i h '.XXoXOX~.W.z 0 z W.",
"8XoXl f T.XXoX X:X6X<XOXk g j l E.@X]. X[.:X3X3X8X+XN f f .XT.T.+X1X9XXX{.0 v j E.|.].@X%X#XOX8X8X,XQ.g k XX$X X>X8X<XW.0 8 0 0 "
};
