/* XPM */
static char *_683145856298[] = {
/* columns rows colors chars-per-pixel */
"64 64 256 2 ",
"   c #27131C",
".  c #5A1B2F",
"X  c #6D2749",
"o  c #2F4F7A",
"O  c #1B457F",
"+  c #606D73",
"@  c #233E6D",
"#  c #9E7D6A",
"$  c #AB2752",
"%  c #978457",
"&  c #B08F59",
"*  c #968878",
"=  c #8D8671",
"-  c #B8956B",
";  c #B89A76",
":  c #AA9270",
">  c #BAA37A",
",  c #BDB17F",
"<  c #D09A53",
"1  c #DCA557",
"2  c #D8A950",
"3  c #E5A64D",
"4  c #E3A554",
"5  c #E3AA54",
"6  c #E4AB5B",
"7  c #EAAC5C",
"8  c #E8A757",
"9  c #E5B35D",
"0  c #F3AE5A",
"q  c #C59B6A",
"w  c #C59E76",
"e  c #D39E67",
"r  c #D9AA67",
"t  c #DCB267",
"y  c #C6A47A",
"u  c #D6A877",
"i  c #DCB377",
"p  c #C8A66A",
"a  c #E4AD63",
"s  c #EAAD64",
"d  c #E6AC69",
"f  c #E4B265",
"g  c #EAB265",
"h  c #E5B46C",
"j  c #EAB46C",
"k  c #EBB96C",
"l  c #E7BA68",
"z  c #F2B768",
"x  c #E5B473",
"c  c #EAB673",
"v  c #E5BA74",
"b  c #EBBA74",
"n  c #EBB67B",
"m  c #E5BB7B",
"M  c #ECBB7C",
"N  c #E4B47A",
"B  c #F2BB75",
"V  c #F2BC7B",
"C  c #F4B777",
"Z  c #EEAD6B",
"A  c #ECC17D",
"S  c #E8C37A",
"D  c #F1C17D",
"F  c #F7C579",
"G  c #DFC17B",
"H  c #E29A34",
"J  c #013699",
"K  c #052D95",
"L  c #043AAF",
"P  c #114A98",
"I  c #356794",
"U  c #024CBB",
"Y  c #0245B6",
"T  c #0255BB",
"R  c #0A4FAA",
"E  c #0F67AC",
"W  c #3271B4",
"Q  c #2A5286",
"!  c #527391",
"~  c #4A7AAD",
"^  c #776CBA",
"/  c #034CC3",
"(  c #0258C7",
")  c #045AD4",
"_  c #0164CC",
"`  c #0366C7",
"'  c #0369D7",
"]  c #0A73DC",
"[  c #1473D5",
"{  c #3078CA",
"}  c #0676E6",
"|  c #197BE5",
" . c #0A72EA",
".. c #237EEA",
"X. c #005EE1",
"o. c #A03A8A",
"O. c #E751A2",
"+. c #F159BD",
"@. c #3689B8",
"#. c #708A94",
"$. c #5084B5",
"%. c #658BB4",
"&. c #7293B0",
"*. c #7EAAB3",
"=. c #388ADC",
"-. c #3689D6",
";. c #1288F2",
":. c #2B83EA",
">. c #2885E8",
",. c #348BEC",
"<. c #3D9AEC",
"1. c #3994E8",
"2. c #2A8AF4",
"3. c #348CF2",
"4. c #3B96F4",
"5. c #3D9BF5",
"6. c #3D9BFB",
"7. c #3496F8",
"8. c #2D93F4",
"9. c #3CA3F9",
"0. c #3CA4EB",
"q. c #4487C7",
"w. c #5193D3",
"e. c #74ADD3",
"r. c #429CEC",
"t. c #4597E8",
"y. c #429CF4",
"u. c #439DFC",
"i. c #499AF5",
"p. c #4F95EE",
"a. c #45A5EC",
"s. c #4BA3F4",
"d. c #4CAAF5",
"f. c #44A3FC",
"g. c #4AA4FC",
"h. c #4BABFD",
"j. c #44A8F7",
"k. c #56AAFA",
"l. c #4AB2FB",
"z. c #57B7FA",
"x. c #53ADEC",
"c. c #7AB9EC",
"v. c #69AAF6",
"b. c #67B8FA",
"n. c #76B9F7",
"m. c #6AAEEA",
"M. c #5F9FD5",
"N. c #5BC2FA",
"B. c #48C6FF",
"V. c #69C4FB",
"C. c #78C7FB",
"Z. c #7BCEF4",
"A. c #91948D",
"S. c #A79A8B",
"D. c #93A999",
"F. c #BAA689",
"G. c #A9A69C",
"H. c #B6A996",
"J. c #ADA68F",
"K. c #8C99A9",
"L. c #8EA7B5",
"P. c #A8B5A9",
"I. c #B5B9B6",
"U. c #AAAFB1",
"Y. c #C7A785",
"T. c #D9B988",
"R. c #D0B291",
"E. c #E5BC83",
"W. c #ECBD83",
"Q. c #EBBD8B",
"!. c #E5B988",
"~. c #F2BD84",
"^. c #F4BE8B",
"/. c #EFBE91",
"(. c #CAB6AB",
"). c #B7C4BC",
"_. c #E6C184",
"`. c #ECC284",
"'. c #EDC38B",
"]. c #E9C78A",
"[. c #F2C284",
"{. c #F2C48B",
"}. c #F2C98B",
"|. c #FAC787",
" X c #EDC593",
".X c #ECCA94",
"XX c #ECC69C",
"oX c #E6CB9B",
"OX c #EDCB9C",
"+X c #E5C595",
"@X c #F2C492",
"#X c #F2CA94",
"$X c #F2C59A",
"%X c #F2CB9B",
"&X c #FACA96",
"*X c #F7D199",
"=X c #EFD099",
"-X c #C7C3B6",
";X c #DAC5B2",
":X c #EDCDA3",
">X c #E8CAA7",
",X c #F2CCA2",
"<X c #F5CCA8",
"1X c #EDD2A3",
"2X c #EDD2AB",
"3X c #E6D0AB",
"4X c #F4D2A5",
"5X c #F2D2AC",
"6X c #FAD4A6",
"7X c #F2D3B2",
"8X c #EFD1B3",
"9X c #DDC58C",
"0X c #92ADC4",
"qX c #AABBC6",
"wX c #B1B8CC",
"eX c #84BBFB",
"rX c #90B7E0",
"tX c #C0B9C1",
"yX c #94C8D9",
"uX c #BBC5C6",
"iX c #B3CFD4",
"pX c #85CAFB",
"aX c #8BD4FE",
"sX c #88D7FC",
"dX c #95D9FB",
"fX c #91CBEC",
"gX c #8AE4FE",
"hX c #97E4FC",
"jX c #9AEEF8",
"kX c #B2F4FB",
"lX c #B2E1DD",
"zX c #C9C9CB",
"xX c #DAD5CC",
"cX c #D7D9D9",
"vX c #CDCECD",
"bX c #E3D9D8",
"nX c #E1D3C8",
"mX c #DBE2DB",
"MX c #E9E6DC",
"NX c #E5F4DF",
"BX c #D9DCE5",
"VX c #CED2E3",
"CX c #E2DDE5",
"ZX c #DAE2E7",
"AX c #C7FCFB",
"SX c #D2ECF5",
"DX c #E6E6E7",
"FX c #F6ECE9",
"GX c #F8F6EC",
"HX c #E9EBF2",
"JX c #EAF9FB",
"KX c #FDFDF4",
"LX c #F4FDFE",
"PX c #FDFDFD",
"IX c #F8F4F8",
"UX c #F6EEF2",
/* pixels */
"f v M M M `..X5X7X:X'.v k k c n +XOX,X'.c Z g a c z v m ^.`.&XoX:X>X.Xj j n c b `.XX<X'.W.f 9 a 9 j n M b S ].:X7X<X'.S l h c V ",
"V c N W..XOXOX%X.X`.b h x n Q.@X%X`.b N i f h c n c m [.'.}.F.R.> q q v B x !.#X@X*XS t d j l V B b v E. XXX%X,X.X`.m j b c W.'.",
"V M W.'.OX.XW.m 9 a l c M `.'.#X`.W.c j f l S @X{.k i $X}.H.(.k v 6 e & p p u Y.`.E.x j 7 g [. X~.M m .X:X$XQ.M f a d C ~.~. X+X",
"m '.#X'.v 9 6 8 1 a n ^.{.{._._.W.$X/.v 9 D $XOXM S &X<X> ;X0 4 8 |.w % y u u u q #X&XE.f S .X>XW.W.@X#XS h 9 1 4 a c W.Q.'.[.D ",
"E.'.{.c 5 3 5 8 b M W.'.Q.'._.`.%X,X/.h j &X%XE.n .X[.r I.#XH 0 t Y.I.iXlXlXiXqXJ.S.T.l g /.,X].m ].@XM 6 3 5 4 j B `.'.'.Q.`.`.",
"Q.`.V j d d j h M M A S `.'.$X,X:X`.l h W.'.W.k V .X|.& HX'.z p D.yXAXSXAXAXAXAXAXSX(.- M &X!.9 m W.~.Z 6 a z x M S M M W.'.XX%X",
"~.~.V M M W.n x N v m `.]. X$X$XE.l g V Q.m h k c [.N G.KX7X& K.Z.pXC.pXpXfXdXjXjXkXJXLXH.u S j A D ~.W.W.~.n c x v M W.`.{.%XXX",
"D `. X XA l f a j V {.$X%X.X_.v j b W.Q.n j c M ^.{.r I.KXw e.dXw.q.m.z.b.n.b.Z.pXdXkXAXJXH.p F M [.`. X`.M f a j n `.XXOX.XA v ",
"V W.W.|.~.c m '.OXOX#X@XW.c c j c M `.!.c g k V k ~.p zXxX~ d.@ + bX~ 0.g.s.g.h.z.V.aXjXkXAXP.i ~.M `.}.M C l _..X%X%X.X`.m x h ",
"`.[.[._.`..X%X%X%X.XW.m h h f f b `.W.M j g h n A %X; vX~ <.o   DXPXL.3.g.<.k.j.l.x.V.Z.jXkXlX: ~.A '.'. X,X#X<X=X#X_.N h j g g ",
"`.'.{..X:X7X4X#X~.n x a 6 6 g k M '.`.b f a j c W.@XF.L.w.{   . LXPXL.4.<.l.u.h.l.h.l.N.Z.jXkXL.j F '.#X,X8X:X%XW.M v g 7 6 7 g ",
"_.'.OX2X8X1XE.h 6 6 4 8 6 g c ~.`.@X{.g 6 f n A |.{.F.! 3.X     JXxXW i.9.h.9.k.d.l.h.h.V.gXjXhX> }..X:X:X1X].N 6 6 8 5 6 a c D ",
"}..X5X5X Xx 6 4 8 4 3 6 g B ~.^..X@XM 6 6 c [.`.Q.=X: ~ { $     . . ,.g.j.u.9.g.g.j.j.k.b.pXjXhXG.&X4X2XOXm g 4 8 4 4 8 g c W.'.",
"@X%XOX`.f 4 8 g j j j j M A '..X4X'.h 6 f `.{.'..X6Xq W ! $ X X . Q j.9.t.u.k.a.j.j.a.k.z.C.hXgX#.{.%X&XZ 3 3 a x h j B V [.{.@X",
"OXOX`.h 6 f b n n M ~.~.{. XOX4X4X`.f f M {.{.'.oX=Xe W @.O.O.O.o.1.9.9.p.g.4.i.5.g.j.a.z.C.dXgXL.R.Y.p 3 z V m M V A `.`. X%X*X",
"OX`.j f b [.[.n v m E. X%X:X5X5XOXi 9 b [.'.].%X%X=Xd ! 8.o.+.+.$.8.-.-.f.y.u.5.y.i.u.s.l.C.fXsX*.bXZX-Xq w N t j j n '..X1X5X2X",
"'.k h E. XA l a s n }..X:X5X8X8XM v v `.'. X@X%XXXc 9 * 4.-.^ $.1.%.qXwX%.M.6.<.p.1.a.i.v.C.aXpXK.U.I.zXIXHXxX-X(.F.% T.5X5X5X%X",
"M x M @XM g 8 x W.`..X:X5X4X.X'.c V ~.[.]. X.X.Xb h |.> -.u.t.4.$.DX(.iXUX&.p.t.u.y.6.g.m.n.Z.n.K.PXMXUXJXDXxXzXR.R.T.:X7X5X,X'.",
"c '.%X&Xs 7 d ~..XOX:X7X5XXXm k E.{.{.'.`.`.`._.v ].<Xv ! 7.9.,.0XbXH.).I.UX&.v.t.t.i.p.k.C.pXe.vXIXPX-X& < < s W..X5X2X5XOX'.m ",
",X1X.XW.d W.m '..X:X5X5X%XQ.m b '.`.'.'.@X@X@X{..X<X,XF # | <.@.wXJXbXDXqXvXVXw.n.v.k.v.b.n.n.&.KXJXJXcXF.q M #X#X@X5X5X1X'.v n ",
"4X.Xm n ~.'..X*X>X4X4X.XQ.m n V A `.{.#X$X%X:X%X1X$XW.[.i E 2.q.xXLXDXFXIXG.DXL.m.eXn.v.eXn.M.# ; R.y R.y y +X.XoX2X8X,XW.m m b ",
"m `.b C V _..X'.8X5X.XS x l n M '.#X#X{.`.`.`.E._.V n n }.+ ;.q.MXLXPXIXUXUXI.MX%.n.n.b.c.n.A.< - E.B B F &X X@X2X5X,X'.b h m M ",
"n b c M `.`.+X: .X@X`.c l v M W.XXXX'.n h l h l v c C S }.* } ~ FXLXPXPXLXLXxXvXzXe.eXeXaX&.1 |.~.M b E.W.W.OX7X%X XW.n b x M `.",
"{.c m +X:XXX3X= r t h b n W.{.$X}.n h a h h n ~.W.M l ].*XA.} q.bXKXKXKXPXPXLXI.FXU.rXSXL.q M Q.D k m `.OX=X.X_.c d j f M M |.{.",
"b ~.>XOX].`.4 G.- s N b F T.=X^.W.].].h j W.@X{.S b +X>X|.! ;.t.I.I &.KXLXPXPXKXU.KXU.&.< F oX}.~.m _.=X$Xn h a 8 a j E.'. X'.{.",
"b `.+XV 6 3 4 D.).2 &X+X`.Q.B |.%X.X`.c d  X=X.Xb ^.>XF % ` 9.0.I ` ' L.PXHXHXPXHXI.IXS.p {.:X}.n '.%XW.a 3 3 3 a c M `.`.`.Q.^.",
"m [.`.7 3 3 g A.dXD.j ^.'.[.+X1XOX'.S g b #X'.i E.].&X< E  .9.j.1.;.7.E zX&.q.U.FXCXcXKXI.Y.[.m z ~./.c 5 5 6 g m M A V M `.'..X",
"W.|.V Z n M B & x.aXA.r }. X,X+XQ.M b b S M b Z ~.l # P } 2.l.a.a.f.s.f.~ ! b.v.q.: xXLXPXbXy r [.{.M l m M m v l b M W.'.OXOXOX",
"`.[.[.{. Xm s 6 ~ m.C.L.H.A [.[.k b M W.`.x j |.r H.qX%.T 3.g.j.h.f.u.u.1.! v.n.A.1 r F.(.xXBXG.; T.`.A Q.~.c d h b W. XOXOX X'.",
"V `.`.'.M c j D = ,.z.c.C.0XH.p r a k k f z c w -XLXKXPX).,.k.f.a.f.k.9.k.c.n.%.r V  XE.d e u R.- i |.{.~.b l j Q. X%XOX'.W.c j ",
"b '.`.`.[.|.'.OX+X+ 1.h.b.V.pXfXqXiXP.).J.* J.HXKXKXPXLXKX&.7.k.h.t.s.s.b.eXM.- V M V C 0 z C z ~.[.[.~.'.E.'.#X,X%X XM v d d g ",
"~.[.'..X%X5X2X:X#Xy A.{ ;.0.k.z.V.sXgXe.0XcXKXLXLXPXPXPXPX&.9.6.u.f.f.v.eXv.* 0 m .XM !.l 9 f x A {.`.{.OX2X5X%XOX'.v g 9 g f h ",
"].'.#XOX2X4X'.b 9 8 - I.$.` } ;.;.2.q.qXKXKXLXPXPXKXPXPXKX%.9.y.s.i.h.n.C.! 0 F .X'.[.b 6 6 h V [.@X+X#X4X8X.XB g 9 6 5 5 6 j C ",
"{.#X:X5X:XE.h 6 6 1 2 ; cXU.W R T ! MXPXJXPXPXPXPXLXKXPXcXq.f.y.y.d.n.eXm.#.R.Y.u E._.h a l D '.@X'.*X4XoX].c r 4 4 8 6 f j n [.",
"@X%X:X.Xb 6 5 8 7 8 9 7 - VXFXG.U.PXPXPXPXIXKXKXPXLXKXKX0X1.h.s.u.n.n.n.%.dXkXVXiXI.F.< 1 S '.XX].+X3X4Xb 6 8 s a 7 g g b S '..X",
":X,X{.x 6 7 j b z ~.Q.[.F y A.cXKXPXLXPXKXPXPXKXPXKXKXFXq.j.l.d.b.n.aXM.e.sXZ.sXhXhXhXyXP.F.i V &X5XXXc 8 s a z V n M M W.'.@X#X",
":X Xb a j B [.W.^.m M '.%XY.DXPXLXPXPXPXLXLXPXPXPXKXKXwX1.d.l.d.C.pXC.$.n.b.V.C.Z.sXaXgXhXdXyXL.F.+X`.f g B n `.c M `.'.@X%X,X6X",
"'.b h b `.'.n d 6 b ].#XF.ZXKXKXKXKXPXPXPXPXPXLXPXPXFXw.9.l.j.z.Z.sXM.w.b.x.l.z.z.N.N.V.V.Z.sXgXrXD.& a |.XX'.0 a k [..XOX5X8X2X",
"V v n `.`.n f 7 B `.|.F.DXKXIXLXPXKXKXKXPXKXPXPXPXKXqX..h.j.d.z.pXpX$.l.l.d.l.d.l.x.x.N.N.z.z.V.V.gXZ.D.Y.S 9 r j `.@X:X5X5X1XXX",
"v W.#X'.x 6 f k +X&XT.vXLXLXPXPXKXPXPXLXPXPXPXPXPXGX~ 4.5.j.g.b.pXZ.~ 5.f.j.h.l.l.N.N.z.z.N.N.N.B.m.sXgX*.: 8 z `..X:X1X5X=X'.M ",
"'.%X:X_.h f M $X%XoXP.PXKXPXKXPXPXPXLXPXPXLXPXLXKXL.| 7.t.6.k.b.C.e.( ;.;.4.h.h.l.C.pXZ.V.N.z.N.N.l.N.Z.gXZ.A.~.#X2X*X>X7X#Xi F ",
"<X%X`.v b V [.].6XR.cXKXPXLXKXPXKXLXPXPXPXPXPXLXDXW 2.4.4.u.d.b.Z.M.P U )  .;.7.9.l.b.pXsXC.N.z.z.z.l.x.b.gXfXA.+X6X2X5X'.n b v ",
"XX'.M V V A +XOX5XH.PXPXPXLXPXPXPXPXPXPXPXKXLXKX&.| 2.,.7.6.f.n.pXv.K.wX~ E / X. .;.;.j.m.Z.Z.b.k.l.9.l.x.N.Z.Z.G.%X:XXXz b C _.",
"x v n ~.`.'.OX5X/.-XLXLXPXPXKXPXPXPXKXPXPXKXPXcXW 8.3.7.7.u.f.n.C.C.%.UXPXDXwXL.W ` }  .W eXC.b.k.l.h.h.z.d.V.hXe.R.}.i z m N M ",
"M j v '.XX:XXX&XY.cXJXKXPXPXKXPXPXKXKXKXLXPXKXL.| 2.7.7.5.f.f.v.pXC.n.#.xXGXGXLXKXxXK.O w.Z.C.v.k.g.j.s.g.h.k.c.V.A.g k j E.`.|.",
"V W.'..X.X'.h f - ZXIXFXLXPXPXPXPXPXPXKXLXPXVXW 2...8.7.5.f.h.d.b.pXZ.V.%.L.U.U.K.K.K.c.gXgXC.z.f.u.r.a.0.9.u.k.b.%.1 A M `.].'.",
"n '.$X'.k 8 3 1 : BXIXFXLXPXPXPXKXPXLXKXPXPXL.X.;.7.2.<.f.f.d.j.b.m.pXpXsXpXc.e.e.C.sXsXZ.V.v.g.y.y.p.<.0.f.u.u.k.M.q }.A `.`.'.",
"M '.`.h 8 3 8 9 ; BXDXGXJXPXPXLXKXLXIXIXKXFXW ;.>.2.7.4.f.9.g.j.6.l.k.n.C.C.pXsXdXpXpXc.V.k.j.t.a.t.i.y.i.t.t.<.k.t.y &Xn Q.@X'.",
"A [.V c j k b M ; cXDXHXNXJXKXJXHXNXCXDXPXU.` 2.| 2.2.7.5.9.f.u.u.u.g.g.k.b.n.C.C.C.b.k.g.i.i.y.t.r.t.t.4.y.t.5.p.q.r V `.{.XX:X",
"~.[.A W.`.n g z - zXHXDXHXHXDXDXDXZXDXcXUX~ _ ....2.2.7.7.5.6.y.y.y.y.f.s.d.z.k.k.k.g.s.y.i.4.<.u.t.4.4.t.p.t.t.u.! N `.'.#X#X'.",
"~.[.[.`.'.n h z r I.DXZXHXDXDXCXcXBXBXbXvXP ] | ..:.3.3.3.4.4.4.<.<.5.5.u.f.g.d.d.s.u.y.y.y.<.t.t.5.t.r.<.t.y.t.,.A.#X#X XW.A c ",
"M Q.{.[.A m `..XQ.H.BXmXCXbXZXCXcXBXcXFXP.Y ] } | ....:.,.,.3.3.,.1.4.4.5.u.f.h.h.g.f.u.y.r.t.1.5.r.1.p.i.1.r.7.$.T.*X{.Q.h l j ",
"M `. X X#X#X4X8X&X; VXcXbXZXcXBXZXxXBXDX&./ ' ' | | >.>.| :.:.:.,.,.4.4.6.6.6.6.9.9.u.5.4.y.t.y.y.t.<.<.t.<.y.=.J.&XN z i 6 g j ",
"[.{..X1X2X5X,X'.W.e G.HXBXZXcXmXBXbXCXMX#./ ` ' ] } | >.>...>.:.:.:.:.3.2.2.4.4.7.4.4.4.<.<.3.t.t.t.p.1.r.6.,.* B b d 3 d 8 g c ",
"{.'.OX1X:X.Xn 6 6 8 & vXBXcXcXmXcXDXcXDX#./ ` ' _ ' ] ] ] | | ........:.2.2.2.8.2.2.3.3.,.,.,.1.1.t.4.t.y.=.= 8 0 2 4 3 7 t c ~.",
"+XOX<X%XW.f 5 3 3 8 5 A.ZXxXcXBXcXBXxXDX&.U ` ( _ _ ' _ _ ' ] | [ | | ..................>.,.,.,.,.,.t.7.-.= 3 r 1 3 1 < 6 u x N ",
".X%X%XE.9 8 a x M j F q J.vXvXzXVXcXBXxXL.R ) ` _ _ ( ( ) ) ' ' }  .} } }  .} } ] ] ] | | | | -.[ ;.] W % 0 0 t j h r d c m n N ",
":X@XM a a j V V V M [.#X; A.iXuXwXvXvXcXuXQ ) _ ` ` ` ` T T T _ ' ' X.] ' ' ) ) ) ) ) _ _ ' } ` ' ` #.< 0 h n `.[.~.r x M n c v ",
"OXW.g g M {.~.l j h m %X2XR.A.zX-XI.-XiXVX#.K / ) ( ( T ( ( / U / ( ) ( ( T / U U Y / / T ( ` ( I : Z C ~.^.{.x h c t i `.W.M [.",
"~.c x `. XW.h 8 v V &XXX:X6XR.A.qXiXuXI.zXzX+ K T T U T U T ( ( R ( T / U U Y Y Y / / / ) Y I S.S B Z W.@X`.t 7 a b x i `.[.E.n ",
"x M  X+Xv 1 a j A +XXX6X6X1XOXi : S.wXzXuXzX-X! J L L L R L L L ( / U U U / / ) U L U E ! S.@X%XM m `.}.'.d 8 7 [.@X!.T.{.A v j ",
"`. X#X[.g 8 k '.#XOX4X5X>X].[.C F T.S.S.U.qXtXxXA.Q K L L J P J Y U U U U Y L Y P ! * u F &X].M m `.oX+Xh 9 n ^.@XXX!.!.'.M m `.",
":X,X{.B z B [.+X>X6X1X1XOXn B x '.}.F !.Y.; G.K.I.U.#.o K K K J K J J P Q + = - T.|.|.|.D [.{.@X:X6X%Xn B k S oX=X.XQ.!.m i N !.",
"7X.XM c E. X.X{.<X5X2XOXW.c m _.^.@X_.*X/.6XXXXXR.y u w & # * * S.H.(.!.W.V V D }.`.'.'.XX:X2X2X<X>X].B j `.XX@X:X7X:X!.i r v i "
};
