/* XPM */
static char *_01d74b22a9a4a3ff2f74c20cb800dd4to8rUAfaqctwk91A[] = {
/* columns rows colors chars-per-pixel */
"64 64 81 1 ",
"  c #D69C4E",
". c #D59D53",
"X c #DCA151",
"o c #D9A55E",
"O c #E4A752",
"+ c #E5A955",
"@ c #E6AC5C",
"# c #DBA663",
"$ c #DDAC6A",
"% c #DCAE73",
"& c #DEB175",
"* c #DEB37A",
"= c #E7AF61",
"- c #E8AF62",
"; c #E7B065",
": c #E8B165",
"> c #E7B269",
", c #E9B46C",
"< c #E2B374",
"1 c #EAB771",
"2 c #EBB975",
"3 c #E3B67B",
"4 c #E7B97B",
"5 c #ECBC7B",
"6 c #DFB783",
"7 c #DFBA8B",
"8 c #E3BC87",
"9 c #EDBF81",
"0 c #E2BC8B",
"q c #F0BF82",
"w c #EEC083",
"e c #EBC187",
"r c #ECC084",
"t c #ECC185",
"y c #EFC084",
"u c #EDC288",
"i c #ECC289",
"p c #EDC389",
"a c #EEC388",
"s c #EEC38C",
"d c #EFC58C",
"f c #ECC48E",
"g c #EEC58E",
"h c #EEC68F",
"j c #F1C185",
"k c #F1C287",
"l c #F0C38A",
"z c #F0C48B",
"x c #EDC590",
"c c #EDC690",
"v c #EEC793",
"b c #EDC794",
"n c #EEC794",
"m c #EEC893",
"M c #EEC895",
"N c #EFCA98",
"B c #EFCB9A",
"V c #EECB9D",
"C c #EFCD9E",
"Z c #F0C792",
"A c #F1C894",
"S c #F0C895",
"D c #F0CA99",
"F c #F1CA99",
"G c #F0CC9E",
"H c #EFCDA0",
"J c #EFCDA1",
"K c #EFCEA3",
"L c #F1CEA2",
"P c #F0CFA5",
"I c #F0D0A5",
"U c #F0D0A6",
"Y c #F0D0A7",
"T c #F1D0A7",
"R c #F0D1A9",
"E c #F1D2AA",
"W c #F0D2AB",
"Q c #F1D3AC",
"! c #F1D4AF",
"~ c #F1D4B0",
"^ c #F1D5B1",
/* pixels */
"1>;@,55yymR^K21225zKK9,>@-2599iK^Ry11229GTg1>;@15wyyB^Qv11225mRV",
"@=15515ymYYf2,225nLy>@@,55229vKRV5,225iKm1@@;25515iBRKe1122wFC2=",
",2zF52vRVe>+@159mV9,1,29F92iKKg1+@,25yLg111,5Zm2wmRm5=@;259Cm212",
"@yTs1vR5@OO@1eggi5iBn@1LG29Tf=OO+,5ggv59ZF>;vT52KC2+OO@2igvw9gV9",
",LF25L2OO+@2wm9yevKK2@nK52Fv+OO@,wmirygKKi@5Ry2zC;OO+;5gf9yyVTm>",
"gG1,lz@@;,5i955ivKB2,2P5>9S,@@,2ij55wgCK91>Vz,2Z5@@;1www55gBTg1,",
"n>>5jq5jp2;:25gBLv212v2:2qj5ql9-;,2imKB512ji:,5z59jy,;,2ymCKy112",
",:55jjlZ1@,5ynKm91,2i9@25qjjZ9@-2wvCBi2,15v:,55jygg;@15gCBv5112n",
";2555jz515imTV9,,,15z>,5559jl129vLKy1,1,5l1:255jjl515gCKm2,,,2yi",
"12,,jjzgmCTRv,,>::5Z2,21,9zjsnKLRC2,>:;1lq,21,5ljzvVPRT9,,,;,yg,",
"@+;wlgmT^^B5>;;@;2zgj1@@5zlvGQ^Pe1>;@@,jZ95@+,ijgSQ!Rv1:;@@;5vyi",
"O@wzzmL!R9@++O+@2jziw++2zzvCQQn-++++@,qlyv=O,pzgBRRV1@@+++;5liv2",
"@wgzmVRV>OOO++:5jjzm:O2gjzmRR2@OOO+;1qjjF2O;gizmCRg@OOO+@,5jjSi+",
"1zzzmRV:O@->,25jzF!wO@pzzmTP2O+@;>15qjZTC@+5zigCRg@+@::,5qjzGR>O",
"jzzmLV:+:2wjjjjZm!R>O1gigBT2+-25jjyjzSR^9O>iggmRi@@,5jzjjzSLRG@@",
"mgvmL,-2zz2,5iSL!^m=1gggmT9@,9Z512ymLR^L,;egzmLm=:5zj,,5zFP^!5@5",
"igmT5;5Zv;+,wSCQQY5>rhpmLv=1lF2+;5vCR!Ri,2ggvBV,>9F9@@1pFT!!m,1f",
"jgSi;5Zp@O,wBKYQK51egipBm,1ln>O=5vCY^Qi15gzlvL2,9F2+@2iGTR^m22iv",
"jzm,5BL;@,ymCK!K52rggkkB12mK2+:9pGYRRy25ggljZ9,iPs@@2vBKT!m22pgi",
"jzgZTRw;2pmCT!Ry25igkkkpgGQB>,9ZFTQ^m,2inijjziBQK2>5pmPK!C22wmzj",
"mVT^!e25agmT^Ry12ryzpZDT!^m25jgmYR!m225izzgSLR^K529zvGQ^Y515ypgp",
"nm92225wimR!Qi1225wBTNgp2222jiiCW!m21255ZLKzs52229iimTQK51125pGR",
"@+;,225yeC!Ky2225wBB5=+;,2225ym^Yv2222wvKy;@@>2225yvT^B51155gKZ2",
",19v92rCYC5;;>55gYm,;,,5vf22BTKi>@,259KB2;,,2lZ22sKTm1-;155BCw::",
"-5Lv1yRn,+++>5yyvw5if=1mP25KG5@+O=2yimy5yv,;sK92BKi-+O@,wygg59m9",
"-FP25Gg@OO+,5viiwiCTy+yRi2nV:OOO;2imiyyBTn@1PB2qP4OOO@1emyawmKC,",
"9T51yB@++=1ig95wgKCi,>Pi,5F1++@,wge5rvBTn1=nG12S9+@@;5gi55imKC5>",
"B5-2jj22991,25wmCC511js-1qi22592,,2ypmTe115m>>5z52295,,2yiBKm212",
"5=25jjjZ9@;15gmKg2119g=15qjjlg=@,5yBCmw215v,:59jjzS2@;2yvLV91>2y",
"@15q5jzy;,5iBTv211,5g1:55qjlz,;5pmTm511>2w5=25q9jz2-1wmCK921115m",
",511jjzyfmBYC5,>>>2p2>2215jjjimBTTw11>>,jj:2512jjzymmKRn1,,,,5g1",
">-=5jzZGR!Rn1,>;=,jm52-=1lllFTQQB5>:;@;eZ95:@:9jvmLR^Ky,>;@-5zi9",
"++2gimG!!S1@@@++,jpip@O,izgBT^P2;@@O+:5zyg,O@ezpmT!Rl-@@++@2jzlj",
"+2gjzDRRq@OOO+@,jjkm,O,pzpmL!v;OOOO@:5jjmeO@ygzgG!B2+OOO+;2jllZ@",
",yzzmTR2OO@@@,2jjzTaO@wpjmGRi@O+@=:1jjzFK@O2gpgDYB;O+@@;,5jlSP2O",
"5gzgGR2O@,555qjlST!2O>hzgSRi@+>255wjjpT^f+@ygpmTC;O;1559jjzFRP@O",
"ggzmT5@:ql959jvCW^G;;yggmTv@-5lw55jzFI!R2@5gimCL;@1wi95yznKR^g@,",
"mgmKy-1iF2@-5mCR!R5;9mggFB;,9B9@@2gCT!^z;2mgzmC2;5Zm:@,wBKR^L,,i",
"zgBB>1iB>+-5nCK~We15izpmK2,5C2+@5pNKW!S22yvzmCi:5mg@+,jvCR^K519g",
"jgB,2zL,O:5SCKRRp1wgvzzm5,jGy+@2pGGW!B22igljmg>5Sm@+,wBKT!L529gg",
"jli9FQg@:wmCLR^v,5phzjkg9nPK>=5iDIT!G22imzjjzyiKR5@2pmCT!T51efpp",
"zZVQ^F22wgmLR^m12rgzkzgDYQK515zmKT!K515ippzznK^Qp,5jmmT!Qy12rgjp",
"CKCgi22igmKR^m2145ypCCTCgv52qiZFR!I5,255gBLGKmm925igmR^Ri1155pSC",
";@@:1559wm!!n21225mYm,@;=12299gR^C51225iLC2;=-;22wwpC^Ri1125wBTp",
":>5iw15vKRm4>,52wCC1@;:2wi22yVRCw>,255SR9==:,qy5,jmRTi1;,55gTm;;",
":5SB25KKi,++;2w9mg55w>,zK52BQv2@++259vm9291,qGg1pRC5;++,5wpmw555",
"@zR92FC-OOO=2iggyymIp@5Rv1fR2+OO@,emyg9pKB->GK25Kg@OOO>5mpgypmK5",
"2Ri1yV>O++;9gg5wgBTS,;DG22V5OO@=2fg55pmTC5@iT51vn+OO@1ymy5wgKYi;",
"Sg,1jj,:,555259gBTi2,5B,,5p1:,529229ymTS211S5:5z2>,2552259nCK51,",
"i-15jjjzi,@>5wmCGw2,5v>;5jjjzv2@;29gBLg212p5;1jjyjp9;=15iBKm5>1e",
"@,55jjzi:@2wmKmj2,12g2;55j5zm1@,5gBKg51,1wz;15jjjZ9@;5ymTm92125m",
",2555jzw9iZTYg2,,,1j5;2555jjw5jgBRB5,,,,5p:,552wjy9jvmTCw,,,,2y4",
"1,;1ljgmYK!K5,,>;:jZ22,;,jzzmGKRKg,,:-:5pw2,::5pizBKRRB2,>:;1jp2",
"+O,lzlBR!Yr,;@@+>5pza>O=jjpmT!!m1;=@@@2jZp5+@5zjmK!^L2;;@@+,jgyp",
"O,ljgmT!m>+O+O+;5jwg5O;wpzvL!K2@OO++@2jzip++2gamBRRi=O+OO@,jjim>",
"-lllmGQi@OOO@@15jjBm@+5hzzFRB;OO++@>5jjzL>O,gppmTR2+OO+X.#%*%*&X",
"2gzgCRg++@,225jjiY!5O;hzzmTF;+@>125jjzF!m+@eiimTT2O@;11#<20229* ",
"igzmTi@@2yiwjjpFY^T;@5ppmGG;@,5jijjpZGR!5+1gzgmY2+;5jjl&4w,,em3o",
"ggmCm;,5Sr=;2gGTQ^e;2hghmT1;2zg,=1wmLR^F>,ivgmTy@1yF2;>$<wyyw5<*",
"gzSC1>wBw@@2pFL!Qb22egpmGe;5ZZ:+,wFTR!Y5,wgzvFm;2iB,O;5%>gm2;23*",
"lzG2,yC5O@1mGCT!m25yzpzFy>5mm@O,emCT!K52jglymm,2zG>O=5m69m2,5F<&",
"jlg2yTB@@5gmTT^m22igzjjm2wGT,@,pmCY^T51wgiljS55mRj@:9vC7iy22CB3<",
"jpmG!K5,5gBKT^T525gpzjzgGRRi,2ymCT!Re15illjlsFKQm1,9bBK768<80&&&",
"FTQ^R51jzgmY!R5,5wpzgDLR^Rg15pgmK!!i,2relvmGRQ^B25jzbKRK7$$&333g"
};
