/* XPM */
static char *_683145640363[] = {
/* columns rows colors chars-per-pixel */
"64 64 256 2 ",
"   c #060503",
".  c #110006",
"X  c #0B271F",
"o  c #57122E",
"O  c #7D4136",
"+  c #0A3E6E",
"@  c #06597D",
"#  c #21536E",
"$  c #6F6154",
"%  c #936E3A",
"&  c #962C5C",
"*  c #EC0178",
"=  c #7C837C",
"-  c #988C72",
";  c #B8A876",
":  c #BC9C73",
">  c #DEAB5B",
",  c #D9A657",
"<  c #DAA84D",
"1  c #E5A44D",
"2  c #E3A84C",
"3  c #E3A554",
"4  c #E3AA54",
"5  c #E4AB5B",
"6  c #EBAD5D",
"7  c #E8A657",
"8  c #E4B25D",
"9  c #EBB45C",
"0  c #F5AA4D",
"q  c #CCA765",
"w  c #DDAA64",
"e  c #DBAB69",
"r  c #D9AD79",
"t  c #DEB47B",
"y  c #DBB676",
"u  c #D8B266",
"i  c #E5AD63",
"p  c #EAAE63",
"a  c #E3AE6B",
"s  c #ECAD6B",
"d  c #E5A568",
"f  c #E4B164",
"g  c #EBB264",
"h  c #E5B36B",
"j  c #EBB46C",
"k  c #EAB96D",
"l  c #E7BA6A",
"z  c #F4B66A",
"x  c #E3AD75",
"c  c #E5B473",
"v  c #EBB573",
"b  c #E6BA74",
"n  c #EBBA74",
"m  c #E5B57A",
"M  c #EBB67A",
"N  c #E6BB7B",
"B  c #ECBB7B",
"V  c #F1B674",
"C  c #F2BB74",
"Z  c #F2BD7C",
"A  c #F7B876",
"S  c #F1AC68",
"D  c #ECC17E",
"F  c #E3C17E",
"G  c #F2C27D",
"H  c #FAC27A",
"J  c #F4C46D",
"K  c #DFC17B",
"L  c #7A388F",
"P  c #025D97",
"I  c #04679B",
"U  c #007297",
"Y  c #286E91",
"T  c #026CAC",
"R  c #016EA4",
"E  c #0272A4",
"W  c #0173AC",
"Q  c #0478AA",
"!  c #0377B6",
"~  c #1563A1",
"^  c #2C75A8",
"/  c #1F5BA4",
"(  c #5B6B91",
")  c #267EC5",
"_  c #885097",
"`  c #0B86BA",
"'  c #308BAD",
"]  c #55868C",
"[  c #748B92",
"{  c #5689A9",
"}  c #6A91AF",
"|  c #5AAEBA",
" . c #77A9A8",
".. c #6AABB7",
"X. c #74A8B8",
"o. c #6CB7BE",
"O. c #169BD7",
"+. c #0594D1",
"@. c #2D9BCD",
"#. c #04A4D9",
"$. c #18A5DC",
"%. c #2BA5D4",
"&. c #34AED3",
"*. c #029BE5",
"=. c #01ABEC",
"-. c #06A7E8",
";. c #1AA7E5",
":. c #05B5EA",
">. c #02ACF5",
",. c #02ADFC",
"<. c #0CADFD",
"1. c #07A9F4",
"2. c #14AEF7",
"3. c #02B4F4",
"4. c #0AB3F5",
"5. c #03B4FD",
"6. c #0BB5FD",
"7. c #02BAFE",
"8. c #0BBAFE",
"9. c #05BBF5",
"0. c #12B4FE",
"q. c #12BAFE",
"w. c #17B4F8",
"e. c #1CB2E5",
"r. c #27AAE5",
"t. c #35B0E3",
"y. c #4F9FD3",
"u. c #57ABC3",
"i. c #4DAECD",
"p. c #6EB4CD",
"a. c #5CA9E1",
"s. c #04C4FC",
"d. c #96AD8E",
"f. c #B2AD8F",
"g. c #96B8B7",
"h. c #8FB1AB",
"j. c #AFB6B1",
"k. c #859D9F",
"l. c #CAB88A",
"z. c #D7B88A",
"x. c #C9B797",
"c. c #D5B896",
"v. c #CEAC85",
"b. c #E6BC83",
"n. c #ECBD83",
"m. c #E3BD8B",
"M. c #EBBD8A",
"N. c #E8B684",
"B. c #F2BE84",
"V. c #F2BE8A",
"C. c #F8BE84",
"Z. c #E7BB97",
"A. c #F3BF90",
"S. c #C9BAA7",
"D. c #D7BBA4",
"F. c #C8B8B6",
"G. c #AFC2B0",
"H. c #9AC0B5",
"J. c #DCC499",
"K. c #DAC48A",
"L. c #E6C384",
"P. c #ECC284",
"I. c #E5C38C",
"U. c #ECC38B",
"Y. c #EDC98C",
"T. c #E8CA88",
"R. c #F2C285",
"E. c #F2C38C",
"W. c #F7C888",
"Q. c #E5C492",
"!. c #EDC492",
"~. c #ECCA94",
"^. c #EBC59A",
"/. c #EDCB9C",
"(. c #E6CA98",
"). c #F2C593",
"_. c #F2CA94",
"`. c #F2C59A",
"'. c #F2CB9B",
"]. c #FBCA98",
"[. c #ECD29B",
"{. c #F5D199",
"}. c #ECD08F",
"|. c #D7C6A9",
" X c #CDC7B8",
".X c #D8C9B6",
"XX c #D9D3B9",
"oX c #CBC4A5",
"OX c #ECCDA3",
"+X c #E9C8A7",
"@X c #F2CDA3",
"#X c #F1CEAA",
"$X c #F6C9A5",
"%X c #EDD1A3",
"&X c #EDD2AA",
"*X c #E8D9A8",
"=X c #F2D1A3",
"-X c #F3D2AB",
";X c #FAD3A5",
":X c #ECD4B4",
">X c #F4D2B2",
",X c #EDCCB0",
"<X c #98BBCB",
"1X c #87B3CB",
"2X c #ADB3CB",
"3X c #CCBDD2",
"4X c #92C5CE",
"5X c #A9C6D7",
"6X c #B0CDCF",
"7X c #CBC8CA",
"8X c #D7C7C8",
"9X c #D8D7C8",
"0X c #CCC9D8",
"qX c #D8C9D8",
"wX c #C7D6D8",
"eX c #DAD4DA",
"rX c #C6D3C9",
"tX c #E3D4D4",
"yX c #E2CBCD",
"uX c #DBE5D7",
"iX c #E5E6D9",
"pX c #E9F8DB",
"aX c #F7F2D6",
"sX c #DBD9EA",
"dX c #DCDDF4",
"fX c #DDDDFB",
"gX c #D8D7F5",
"hX c #CCC8E1",
"jX c #E4DAEA",
"kX c #E2DDF4",
"lX c #E3DCFC",
"zX c #E7DBF7",
"xX c #EFD9ED",
"cX c #DDE4EA",
"vX c #DDE4FE",
"bX c #DBE3F6",
"nX c #DEF2F3",
"mX c #E8E7E8",
"MX c #ECF6EB",
"NX c #ECFBEC",
"BX c #E8F9E7",
"VX c #F2FCEC",
"CX c #FDFDEC",
"ZX c #F4F8E5",
"AX c #E2E2F4",
"SX c #E4E3FD",
"DX c #E9E7F7",
"FX c #F6E8FA",
"GX c #ECFCF3",
"HX c #EEFEF9",
"JX c #EAF5F5",
"KX c #F2FDF4",
"LX c #FDFEF2",
"PX c #FCFDFA",
"IX c #F5F8F9",
"UX c #F7E1ED",
/* pixels */
"g v m.~.n.M n.[.+XY.t j > x.b n.).~.L.M s j h B Y.n.B.Z T.~.Y.D g i j c n.P.E._.Z c h j k P.U.M B ).'./.I.l i z h N M._.).P.c h ",
"6 B _.P.N V.`._.B 5 7 7 oX9Xm.P.U.I.U.U.M h b !.E.P.n.!.^.M.m p 5 i b n.E.U.!.U.P.n.c j R.~.U.n /.~.R.c p 5 i h n.R.U.P.n.P.n.B.",
"f E._.B B _.U.h 7 < 0 e uXiXb.L.U.E.)._.b l B @XV.N I.~.b.5 1 1 e m R.R.U.L.I.U.~.U.j n './.b.B (.t 5 2 1 6 c B V.R.R.P.!.'.E.B ",
"M.`.E.n D U.m 4 4 8 s D.PXeXc U.I.`.].Y.b m n.).v B R.B.4 2 2 i n.B.C.B D L.~.~.^.B j n.'.P.h U.D a i 5 p c R.P.B.n.U.!.OX'.P.h ",
"~.n.v M P.n.v g b z v.uXHX8Xb _.~.^.!.n c n.n.n b B.V.V a j Z Z j G n D U._.'.^.M.l B M.n.j n E.C V M B n k n N N U./.'.~.N b c ",
"N v j B U.R.C.R.U.9 D.VXSX7Xc.]._.m.t j B M.N g N B.R.G R.E.M 5 w m L.(.(._.E.M v n M.n.g j C.L.D P.R.V 8 8 k B !.!.'.Y.n l M B.",
"f j V Z n.V.V.n.m , tXKXSXF.).~.B v v M B.b l j B P.n.R.R.b u u |.+XJ./.L.B n j v n.n.j g M n.Z L.U.B c h n D ).'.U.n.n j n Z B.",
"g v N V C U.!.D C c.JXJXDXD.s q w 9 A V.B l f n.n Z M.V.R.m |.iXGXiXc.n.C g c c B n.b g B b.N B.B.R.D N U.'./.OXn.B h h v N B B ",
"z g v B N W.T.J.z.7XLXqXX.%.e.$.e.&. .l.A V 9 c k B U.G z.mXGXKXBXc.k g a f a B R.P.v j g h b C.A.)._./.&XOX!.B.m p 6 p c P.E.N ",
"5 5 x B P._.!.+XcXiX<X#.<.,.7.7.5.9.<.2...f > 8 M.n Y.J.iXKXZXHXJ.e g 9 > f j G U.n.v i 5 b P.W.I.'.=X-X'.n.j g f 5 p C B P.U.n.",
"3 f n.G P.'.#X8XKXg.-.3.1Xu.6.5.0.1.w.:.:.&.7 A E.W.l.mXHXZXKXiX, 3 7 5 i j Z R.E.n.s 5 h B.E.Y.'.%X=X!.b 6 2 < 4 5 g B U.U.P.B ",
"g b W.T.I.@X=X|.mXj.1.t.LXUX@.s.5.6.0.8.w.>.%.m C.S.BXHXBXJXxXx.1 7 5 g j B R.!.~.c 4 f B E.).I.#X'.M.a 3 2 3 5 5 g n n.!._.Z i ",
"v n.).U.(.#X_.; F.5X5.-.p.p.:.0.5.q.>.-.4.6.7...z.uXGXVXDXSXeX, p V h n H B./.OX!.f 4 M U.E.E./.OXP.i 5 5 p c V n Z G ~.@X`.b < ",
"n.U.).Y./._.J % f.t.5.q.<.5.4.0.s.+. .{ #.q.7.O. XCXNXAXzXSXS.V n P.N R.W.!.%X>Xn.i f R.!.U.~.$XL.h d j Z n.B Z E.R.~.=X#X).h 4 ",
"E.~.)._.(.n g O ( 5.6.6.6.0.9.7.1.( IXF.@ s.1.<XKXNXIXzXSX9Xm.B.v B I._.'.&X&X@Xk b N R.U.Q.~._.h h j Z B m B G ).~.#X-X=Xn.h j ",
"Y.E.).`.I.f z & ! 1.>.5.8.6.6.8.I S.KX$ + s.&.aXHXmX0X7XwX2Xr > p Z ).~.OX:X&XR.g m !.E.U./.~.N s B R.D f a c n.Y.@X>X,X~.b m B.",
"R.).Y.I.A a S.j.6X5X1Xr.1.8.8.>.X IX7X  @ <.7XKXrXrXuXmXZXNXGX|.c U.~.OX-X;XU.N N P.!.U.!._.P.v n.W.n.d 4 g P./.OX-X#X`.P.b n.!.",
"B U._.B r XXIXLXKXLXLXaX<XO.s.^ X o   o @.i.CXpXrXrXiXDXDXDXyXz.P._.=X-X-X!.n.n E.E.R.E.E.P.N n `.P.h i j B._.[.OX&X'.M.m D E.E.",
"W.!.A.M.|.NXHXmXZXBXBXKXaXwX2.U   . . & *.4XCX X0XfXzXlXbX Xt G ~.=X-X#X~.b.v D ).V.B.R.E.U.U._.'.N u c P.~./.=X&XOXP.m B E.E.n.",
"I.~.`./.XXKXZXGXNXIXNXJXBXCXwX# o o & _ s.a.rXhXDXlXzXlX0Xz.A `./.&X-X'.n.c B n.L.U.!.!./.OX@X=XU.B B R.!./.&X&X%XU.b b n.).E.P.",
"_.{.E.U. XIXaXNXVXKXBXpXJXJXLXp.L * _ :.<.#.iXjXfXDXkXsXc.C.I.(.-X-X@Xn.l l B M.~._._.!.!.^.!.M.B n G R.(.OX-X#XU.B k n n.!.!._.",
"v h j v x.cXIXMXpXBXPXBXZXVXPX5X:.O.;.5.s.#. .CXfXkXlX Xh W.Q.[.-X~.U.m j j n.!.@XU.B b n n c b B B G E./.-X=XI.v n j b U.'.~.T.",
"p a n C x  XdXmXMXNXHXVXLXBXaXwX-.s.6.9.O.+.P k.VXlXlXc.D ).;X^.B.b c n n B.U.!.A.n.a 6 g n n B M P.U.I._.E.n.c v M B P._._.n.h ",
"g M I._.Z x qXlXAXkXDXcXnXAXFX1X! ` ! ! P W ! P j.JXjXD._.+Xb.l a f j b N.!.Y.T.b n j h B W.U.b.B ~.OX^.n.p 5 g B N P.!.U.b.v v ",
"S D /.D Z E.Q.x.gXSXFXSXFXFX7XY T W U W W E W ' x 9XDXJ.W.p 4 5 4 j B U.!.U.P.M.}.).x i W./.m.n /.U.M 6 1 3 a m U.R.P.P.U.).I.P.",
"l ~.OXb.B _.m 8 - ( 2X2X2X} / W W W W W E ! I j.A z..Xm.p 3 9 3 c B B.n.P.L.U._./.N h B _.U.N B.).c 5 < 5 h B R.M.n.P.U.`.`.P.b ",
"I.^.n.n B W.x 0 ] T I T E I ! E W R ! Q E T k.W.V N z.k 7 f j S B B R.n.P.U.~._.R.h l ).E.c n ).Z j i f j B B G n.n.I.~.'._.B j ",
"_.B 8 k P.b R.x Y { { / Q W E Q W R ! E Q [ A c f W.P.n n D M V h n n.U.)._.`.Q.n m b.B c v B R.B B B B k g c V P.U.'.'.P.b b M ",
"s g l n.V.R.T.v.0XUXFXhXY T E E E Q W R [ b.S h D n.n.B.W.b.c f c n.U.!.~.E.B m j n.U.b g V B.P.P.E.P.v h h B n.~._.).P.c j b V.",
"5 J n.N B.C.b.8XSXzXgXFX2XI ! T E W ! ] M N z k n B B.B.W.m b k E.).'.!.L.b l g n P.N c k C B n.R.R.C m m U.~./.!.P.n g j M n.P.",
"h c M b C B.D.NXIXUXbXAXjX^ R W +.` ' n.B.e n g h B.R.M.).P._._.]._.U.N h i g k M.B c v j k B n.V.R.P.Y.~.'.'.I.n.h 8 i v n.P.B ",
"g a j n G P.XXHXNXBXMXBXUX%.-.>.<.-.K.W.N V u g B n.R._.~._.,X,X(.b.h i 6 p v B.U.B C j i h D E.U.^.OX&X%X{.P.M s i 5 h B R.R.B ",
"5 1 B n.R.c.GXZXVXVXNXGXiX$.7.w.7.k.W.n.n.8 3 h P.U.).).-X:X/.Z g 6 5 3 5 g C Z L.U.c 4 6 N U.R.Y.&X:XOXR.V s 5 5 3 p V B.P.P.M.",
"5 M B.E.I.iXNXVXBXKXBXLXrX-.7.5.e.z.W.Q.C 5 6 U.R.P.E.[.-X!.c 5 4 < 4 5 j M B.E._.m 5 f n R.!.E.'.@X/.N 5 3 2 > 5 g v Z R.).n.c ",
"p U.R.B.|.KXBXGXBXIXBXCX1X5.6.5.X.H (.(.5 7 z /.E.).[.%XI.s 7 3 > 5 f j V U._.^._.f > b R.P.E./.>X!.b 6 2 2 4 i i B B.P.~.`.B 4 ",
"V I.U.m.iXGXNXJXNXIXMXCXi.5.6.4.c.].@XB., j P.!.U.'.=XI.h 7 6 j n V n Z P.)./.@XR.5 5 B U.U._.OX$Xv 4 5 j M B V Z R.U.(.=X`.c 4 ",
"!.Y.L..XKXNXVXMXVXMXVXiX;.<.3.i.].:X[.g 5 D !.R.!./.!.h 5 j B B B Z B.U._.'.=X=XN f j L.!.Q._./.m f f M V.n.B.B.)._.~.=X;XU.h g ",
"!.R.K.mXGXZXVXNXZXBXLX6X1.w.3.p.>X*XU.f V I.Y.U.OX~.b g V !.P.l h b U.'.@X-X@X/.h v n.W.~.`._.P.8 j n.E.N f h B.^.'.%X-X@XB h n ",
"R.!.|.HXJXZXMXNXVXJXCXp.7.0.3.G.>XY.N m R.!.R.(._.n.h n B.n.b 5 h B !.%X-X@X^.U.b n.P.U.)./.U.b k n.U.B 8 i b U.~.@X-X@XU.B N P.",
"R.c.uXGXVXVXMXNXVXIXpX&.7.5.4.|.].l B C.I.A.R./.D b B !.U.a 6 p n.).OX&X&X@XP.b R.P.U.U.!.!.N j ).U.b 4 5 A `.~.[.>X>XQ.b B U.U.",
"Z oXGXVXNXJXVXNXBXCX6X>.6.7.r.~.D B P.R.E.V.U.P.B n.`.].B 5 f B Y./.&X>X@Xm.N Z E.U.P.P.U.M.n.D OXP.p 9 B !.'.$X&X:XU.l b.U.W.U.",
"N.9XGXZXVXJXNXZXBXCX4X5.6.7.&.P.m B P.U.U.M.!.!.~.'.OX!.m h n._.@X$X{.%XT.D B b.~.E.C.E.~.}.OX;X].A z z W.{.{.;X;X).B Z B.G P.B.",
"z.iXHXZXVXNXBXVXGXZXi.7.4.7.u.V n n.P.U.U._.`.'./.[.^.m.N D U./.@X>X:X!.B h b P.P.).`.].W.].`.Z.x.f.h.g.H.g.g.H.oXb.S C B U.~./.",
"x.GXKXZXVXVXMXGXPXuXO.8.w.5...g k B I.'._.E.P.D n.n.M B G P.!./.*X&X~.A S b P.P.W.W.W.l.H.| t.w.:.3.7.7.7.7.5.5.4.r.| d.n.W.Y.$X",
" XGXNXZXVXNXVXNXPX6X:.8.6.7. .z N P.~.!.n.c f h v v v v D U.!.@XOXU.B y m B R.E.G.X.&.,.7.6.3.3.6.8.7.6.0.0.0.q.q.7.5.:.t.g.N.J ",
"9XHXNXZXNXNXNXNXLX4X5.6.6.7...H Y.!.!.n.h 5 s Z R.P.N n.Y./.~.m.c c c z J l.h.t.5.8.5.5.0.<.6.8.4.6.q.q.6.>.-.-.=.,.5.6.>.7.e.: ",
"9XHXNXNXNXNXZXMXPXp.5.w.4.7.i.H !.!.U.R.k h M )._.P.P.U.~.U.j 6 7 g j l. .;.7.7.0.6.4.4.6.6.8.8.7.,.+.W ! T T ! W ^ ' &.i.t.e.i.",
"9XGXNXNXGXNXZXJXLXu.,.w.5.5.i.P.P.U.`.).B c N '.L.m n._.N.w 1 1 0 ; u.2.7.5.6.6.5.8.q.8.7.7.+.` ^ ( { [ [ - - ; t z.n.Z Z U.I.a ",
"wXFXbXSXFXNXpXNXZXp.,.q.6.9.w.v.)./.+X~.h h W.^.y Z W.R.0 0 q d.&.4.5.8.4.6.6.2.7.5.5.1.@.} <X3XeXD.m p g V H W.H G L.~./.'.n.j ",
"0XAXbXdXDXDXNXNXLXp.,.7.2.6.:.' Q.W.H z B P.W.z z A N.l.d.| r.<.3.5.4.6.8.5.6.7.>.#.i.<XgXzXtX,Xx x j v v M n.N.n.U.!._.~.U.B c ",
"3XcXfXkXkXkXJXMXLX5X3.8.5.q.9.+.' p.d.f.f.f.f.d. .p.t.:.3.7.7.6.<.q.4.<.q.8.,.#.y.2XxXUXyXc.c n.C.B.n.v g p k B !._.`.).n.b b B ",
"S.vXlXAXfXkXDXJXCXjX;.9.6.4.5.2.-.8.5.5.4.4.3.7.5.6.<.6.8.2.0.6.:.5.7.6.,.-.u.6XUXSXsXD.h z R.M.R.P.n.v j M P.~._.).M.B c c B R.",
"v.lXzXdXfXkXAXDXNXZX1X3.4.w.8.5.8.3.5.8.q.6.6.7.9.=.4.q.6.3.7.6.9.8.5.1.i.6XxXFXvX8Xt f n Z n.M n.n.B n.M.^./.(.U.b l l v n.n.N ",
"d qXDXkXSXjXdXlXcXVXZXy.7.5.8.0.0.0.0.0.<.<.6.6.8.6.6.6.5.6.q.6.6.-.i.5XmXFXzXeX+Xm.V j h b B W.E._.'.OX+X%X_.R.b f 4 f V R.n.B ",
"3 v.kXfXDXlXAXlXSXDXpXjX$.3.0.<.6.3.5.5.5.8.6.5.5.8.0.6.6.4.4.1.@.4XiXFXlXkXyXz.E.E.v 6 6 j B.E.T.~.%X-X[.U.V S 5 5 i h n.R.R.n.",
"3 q eXlXjXlXkXkXlXvXJXVXtX%.7.8.6.6.6.6.8.7.6.0.<.8.3.0.7.,.%.p.mXUXzXfXkXZ.h W.U.B i > j P.U.T.`.#X-X!.b 5 4 > 3 p s N P.R.P.N.",
"d n x.SXlXlXlXAXlXzXzXAXLXiXp.+.5.5.8.6.4.6.8.6.7.8.,.=.@.1XeXFXkXSXfX.Xt M C.R.'.m > g C E.).I.OX$XU.f , 3 3 1 < , c N.t m x w ",
"n C.z.F.SXjXzXdXvXzXDXfXsXPXPXwXp.%.-.,.,.<.1.3.-.O.u.6XmXFXSXvXvXeXZ.M B.B.~.OXW.f > n R.P.!.'.@XU.a 7 6 p a e w x c c t N.r , ",
"D U.W.K.7XFXkXdXxXAXkXzXlXsXcXIXCXtX6X<Xp.p.1X4X7XjXFXFXkXsXkXvXyXI.c B.W.~.%X%XR.5 f R.^.U.~.@XU.h 4 j V B B x x B n b n.V.c , ",
"U._.!._.c.0XSXlXgXbXvXbXAXkXkXkXlXDXIXJXIXFXFXmXUXdXgXkXAXSXyXZ.v M G _.#X%X[.@Xc g n E.Q.!.'.~.g f n n.B.b n y m B n B n.n.m e ",
"I._.`.$XL.q .XzXDXkXkXxXkXfXSXzXkXkXfXkXAXkXlXfXfXvXSXAXsX.Xb.9 f Z E.~.OX;X%X^.h N _.U.U.'._.B p B I.P.f g v e y n.R.B m c y c ",
"P.L.'.V.k n z.D.qXvXvXlXzXSXsXzXfXlXlXfXsXsXdXxXSXdXqX+XN h f 2 B P.`.@X[.&X$XN b M.!.U.U.!.M.j D ).U.f 4 g B y m R.U.m b n m t ",
"W.I.~.g n ^._.a d D.sXgXlXSXvXvXvXSXFXDXSXSXzXjX,Xz.N Y.P.s p m P./.OX-X&X/.B B P.!.U.U.T.P.b.B ~.U.h i g R.).z.n.P.N m n.W.n.r ",
"B.`.E.n.~.'.U.j l v Z.Q.S.qXqX7XqX0X0XqX8X|.J.m.N E.].'.N.i j P.`./.&X#X_.B n N R.E.R.P.W.P.n._.OXB 6 s U./.^.M.m.L.b B ).`.m e "
};
