/* XPM */
static char *_683143096674[] = {
/* columns rows colors chars-per-pixel */
"64 64 256 2 ",
"   c #171917",
".  c #131110",
"X  c #261A17",
"o  c #2C1911",
"O  c #1C2318",
"+  c #162414",
"@  c #272519",
"#  c #352E14",
"$  c #171925",
"%  c #111931",
"&  c #2A1B27",
"*  c #281730",
"=  c #1A2831",
"-  c #272727",
";  c #342827",
":  c #363427",
">  c #252937",
",  c #373939",
"<  c #293332",
"1  c #463418",
"2  c #46372D",
"3  c #364434",
"4  c #39411C",
"5  c #4E461C",
"6  c #524B31",
"7  c #675731",
"8  c #706831",
"9  c #6A5D1E",
"0  c #30164B",
"q  c #142D52",
"w  c #2E344B",
"e  c #3A1B6C",
"r  c #2F2D71",
"t  c #15296D",
"y  c #4B1058",
"u  c #45215A",
"i  c #481B68",
"p  c #561868",
"a  c #4E1372",
"s  c #492369",
"d  c #47267C",
"f  c #562474",
"g  c #314953",
"h  c #175277",
"j  c #2F526F",
"k  c #36647D",
"l  c #1B405D",
"z  c #4C4F4C",
"x  c #6C5A43",
"c  c #776C4E",
"v  c #4A5869",
"b  c #4D6970",
"n  c #636C5F",
"m  c #887131",
"M  c #91711A",
"N  c #8E7751",
"B  c #937965",
"V  c #73804A",
"C  c #97892F",
"Z  c #A89436",
"A  c #B69939",
"S  c #AC922E",
"D  c #B1A237",
"F  c #9E851E",
"G  c #CAA836",
"H  c #C19C34",
"J  c #8E8B4E",
"K  c #AE954B",
"L  c #B6A653",
"P  c #B2936C",
"I  c #B2A973",
"U  c #938A6F",
"Y  c #CF985A",
"T  c #DBA859",
"R  c #D3AC4F",
"E  c #E4A94E",
"W  c #E4AC5B",
"Q  c #E6A857",
"!  c #E7B25D",
"~  c #F0AC59",
"^  c #DBA964",
"/  c #DBB676",
"(  c #D4B16D",
")  c #E4AD63",
"_  c #E8AC66",
"`  c #E5B264",
"'  c #EAB365",
"]  c #E5B46C",
"[  c #EAB46C",
"{  c #EBBA6D",
"}  c #E6B96A",
"|  c #F3B868",
" . c #E3AD74",
".. c #E5B573",
"X. c #EBB573",
"o. c #E5BA74",
"O. c #EBBA75",
"+. c #E4B57B",
"@. c #EBB67B",
"#. c #E5BB7B",
"$. c #EBBB7B",
"%. c #F1BD7C",
"&. c #F2B875",
"*. c #F4AE68",
"=. c #D09C63",
"-. c #D6CE6F",
";. c #E7DA6A",
":. c #ECC17D",
">. c #E8C178",
",. c #F3C47B",
"<. c #E7DB78",
"1. c #F2DD77",
"2. c #FAC26F",
"3. c #EAE479",
"4. c #F6E679",
"5. c #EAE56E",
"6. c #DBCC60",
"7. c #1B3A90",
"8. c #253785",
"9. c #263A96",
"0. c #37378F",
"q. c #2B3AA1",
"w. c #561781",
"e. c #582886",
"r. c #472D8A",
"t. c #65288B",
"y. c #542BA1",
"u. c #184E8D",
"i. c #265784",
"p. c #284596",
"a. c #395899",
"s. c #324D8D",
"d. c #376A93",
"f. c #2A49A6",
"g. c #3A59A6",
"h. c #2F55AD",
"j. c #3967A8",
"k. c #3969B5",
"l. c #3977B7",
"z. c #2F6EAE",
"x. c #175F9F",
"c. c #47569B",
"v. c #4C5098",
"b. c #4F7291",
"n. c #647995",
"m. c #4859A6",
"M. c #5359A7",
"N. c #4C59B2",
"B. c #4864A8",
"V. c #4F6DAE",
"C. c #6972A4",
"Z. c #3577C4",
"A. c #4879C4",
"S. c #4D70C6",
"D. c #3885B8",
"F. c #598A90",
"G. c #4585BA",
"H. c #528FAF",
"J. c #6E91AE",
"K. c #71A6B2",
"L. c #678D9C",
"P. c #3C8FC8",
"I. c #4488C8",
"U. c #4F96D0",
"Y. c #56A6D7",
"T. c #54ABD4",
"R. c #6CB5D6",
"E. c #59AAE5",
"W. c #57B2EA",
"Q. c #66B8E7",
"!. c #6BB0EA",
"~. c #679DE7",
"^. c #71C6D5",
"/. c #6AC5E9",
"(. c #75C7E8",
"). c #77C9F6",
"_. c #77D1F2",
"`. c #6AD1F5",
"'. c #A09F9E",
"]. c #D9B986",
"[. c #CBAC87",
"{. c #E6BC83",
"}. c #ECBD83",
"|. c #ECBD89",
" X c #E5BA88",
".X c #F1BD83",
"XX c #F3BE8B",
"oX c #F0BD92",
"OX c #C2B2B2",
"+X c #D9CF8C",
"@X c #E6C385",
"#X c #ECC284",
"$X c #EDC38B",
"%X c #EAC78B",
"&X c #F1C284",
"*X c #F2C48B",
"=X c #F5C889",
"-X c #E8DB84",
";X c #EDC592",
":X c #EDC994",
">X c #EDC59A",
",X c #EDCB9C",
"<X c #E4C796",
"1X c #F2C593",
"2X c #F2CA95",
"3X c #F1C69B",
"4X c #F2CB9C",
"5X c #FCC998",
"6X c #F9D397",
"7X c #EDD98E",
"8X c #EAE585",
"9X c #F7E785",
"0X c #FDF58B",
"qX c #F7EA94",
"wX c #EEEC92",
"eX c #D1CBB4",
"rX c #EDCCA2",
"tX c #EECDAA",
"yX c #F2CCA3",
"uX c #F3CCA9",
"iX c #ECD3A6",
"pX c #F2D1A4",
"aX c #F2D3AC",
"sX c #FBD6A4",
"dX c #F8D9B4",
"fX c #ECD2B3",
"gX c #F4EDB2",
"hX c #8AB4CB",
"jX c #AEB8CE",
"kX c #89A9D7",
"lX c #8AC9DA",
"zX c #B2C8D3",
"xX c #89D8FA",
"cX c #95DAF9",
"vX c #89D1EF",
"bX c #A4DEFC",
"nX c #AFD0F0",
"mX c #8CE4FB",
"MX c #9AE2FD",
"NX c #98E7FC",
"BX c #95F1FF",
"VX c #A2E8FC",
"CX c #A7F4FF",
"ZX c #BCEEF9",
"AX c #C7CFD8",
"SX c #F8F2D0",
"DX c #D2DAEA",
"FX c #D9E7F8",
"GX c #D4E8EC",
"HX c #FBF6E9",
"JX c #E6EBF3",
"KX c #EAF7FB",
"LX c #FAFBFA",
"PX c #EDECED",
"IX c #DFDEE2",
"UX c #BCC09B",
/* pixels */
"] ' _ W [ &.@.#X@X1XaXaX,X@Xo.[ @.o.=X4X;X}.] ' _ X.] o.>.%.%XtXfXtX#XO.' { O.#XtX2X$.] ` ~ ~ } #.O.&X1X,XiXaX;X@.O.{ X..X*X4X>X",
"` ' X.}.$.{ O.<X,X,X2X#X$.[ X.@.}.>X>X#X>.` ) [ X.&.@.$.$X>X3XyX*X#XO...o.{.%X1X%X#.] [ { @.$.o.O.#X%X,X4X1X#X#.X.X.>.#X3X3X#X] ",
"_ ..%X1X$.$.%X,X:X}..._ ! ' &.XX*X5X<X#.{ [ X.$.*X}.$.oX4X>X$XO.~ _ [ @.#X%X1X;X$.#.[ [ O.:X<X$.}.2X:X%X$.] W ] X.}.%X<X;X$X@.[ ",
"' $X,X#X#.;X2X{.' W T ) [ $.#X$X}.@X@X1X.X_ $.2X=X{..X=X*X/ W E T ' $.&X$X|.#X#X*X&X@.[ *X,X X$.3X;X$.) E E ) @.@X#X*X|.}.#X#X$X",
"O.1X1X$.$.:X{.Q E Q W O.&X%X$X|.@X%X4X4X@.` &XrX{.{.&X#X` T E Q o.O.#X.X|.$X$X1X4X#X_ $.6X%Xo.&X<X+.Q E Q ) &.&X&X#X#X#X2X5X%X#.",
"%X&XO.@.*X%X..~ _ [ { o.$.}.|.&X,X3X2X:.] $.*X XX.}.%X#.) ~ [ _ o.$.$.}.&X1X>X,X@XX.X.&X$X@.@.&X$._ ! ' ] #..X&.&.&X%X>X,X%X@...",
"%XO.' @.|.&XO.$.}.@.] O.#.}.$X*XyX1X$.` o.$X$.' O.,.}.$..X.X&.X.X.O.}.$X;X:X:X$X] O.&X}...] .XoX%.$.,.O.o...@.$.:.*XyX>X@Xo.o.@.",
"..] X.#X$..X=X$XX.` _ &.XX1X:X:X@XO.[ @.#XO.) &.}..X.X&X|.{.] ' &..X%X;X;X$X$.] X.}.}.] ' O.$..X$X*X$...' ' o.$X,X,X*X.XX.X.O.&X",
"! X.%.$.%.&X$X}.o.#.*X1X4X=X#.{.O.' { @.}.+.[ &.@.%.%.%X6X.X/ ( [.].<X6X.X&.| ` &.}.O.! *.$.$.|.:.#X}.X.} XXyXrX$X}.X.' ] @.:.{.",
"[ [ [ O.}.|.%X=X;XpXpX4X%X$.%.| *.^ >.$X$.[ } o.:.=X/ P c x 2   . @ 2 7 m P  .*X5X.X] @...[ { &X*X$X>X,XiXrX1X@XO...) ] X.$.&X}.",
"] W ' }.$X$X:X4XaXrX@X=X .Y K K =.|.5XyX&.` ' =.N 1 @ & > j v b b b v w = . o 6 U / &X*.Q ] #X%..X4X4XpXrX%XO.` ` W W ' $.&X$X}.",
"Q ` $.$X;X;X,XtX1X}.{ N &   .   & - 7 P $XY 7 @ % j d.H.U.U.W.cXBX/.).xXcXhXL.g   # x ^ ,.,.2X6XsXiXfXrX{.| E ~ E W [ O.XX*X}.@.",
"W O.*X$X;X4XpX:X+.*.Z . z -.( -.I 8 3 O ;   % j j.V.S.B.c.g.Y.NXY.g.B.l.P.Q.xXcXhXb.  X N %X[.c 2 2 @ @ : x ^ E W ' %..X1X=XO.` ",
"} #X*X%X2XyX;Xo.Q Q ; z gX4.8X3.9X4.0X8 . v V.N.c.c.g.g.a.U.cXQ.m.m.B.c.c.m.k.U.).NXlXb . : . - z c m J x   2 X.%.@.&X;X4X2Xo.T ",
"}.#X%X2X4X1XO.^ | =.. OX4.,.7X<.;.wXJ < M.N.k.l.U.Y.E.!.!.).xXU.Z.k.g.M.c.B.g.m.j.U.).VXK.= J 8X0X3.0X0X0XI . P =X$X:XrXyX:X] W ",
"%X$X;XyX;XO.` [ =Xc q gX3.8X5.3.4.+X& s.Z.Y.(.xXmXMXcXxXvXcXxXcXcX_.Y.I.k.m.N.B.B.m.k.Q.J.6 qX3.<.8X-.<.9XeX  P 6X;XpXaXiX;X^ | ",
"=X%X:X,X.X' O.$X=X7 v gX3.1.1.<.qX8 h W.vXVXbXW.P.P.k.P.vX).P.Y.Q._.MXMX).U.j.m.B.M.m.V.q J 9X-X3.1.-X3.9XPX- c sXyXaXpX%X..o.$X",
"XX>X:X$X+.$.$X|.{ # v gX;.8X8X-X-.6 R.FXGXFXJXzXC.m.h.!.NXA.a.g.a.j.I.E.xXVXQ.P.k.m.N.m.- -.4.<.3.8X<.<.gXgX@ N aXtXaX:X{.$.}.*X",
"$.1X%Xo.>.2X*X/ } @ B SX;.4.<.9X=.q lXFXIXFXIXPXFXc.P.cXQ.B.M.B.N.M.M.g.l.Q.xXMXY.B.g.l 8 0X3.1.3.-X-X<.HX-.@ c dXaX:X X@..X=X}.",
"#X*X1X;X,X4X#X] >.@ n SX<.-X<.0Xc j FXFXFXDXDXDXJXC.U.NXI.c.M.B.N.V.B.m.m.g.I./.VXQ.A.- ( wX<.<.<.3.;.gXHXS   B dX4X>.o.}.*X&X%X",
"3X2X4XuXuX;X{.$.1.; 7 SX-X3.<.9X5 n.PXAXDXJXDXFXJXlX!.xXZ.g.g.M.m.B.m.m.V.m.m.k.Q.CXV.6 9X<.3.8X-X5.3.LX-.M   '.sX}...O.}.;X;X:X",
"|.$.:.$X}.o.X..X=Xu 5 gXqX<.8X1.: C.KXJXJXKXKXLXKXcXcXxXmX_.W.A.j.M.M.m.m.m.B.M.j.T.g L 9X3.<.8X1.;.HXgXS C * I *XO.] O.#X2X:X%X",
"[ ] ..} ] [ $.@X6Xc # +XSX;.9X<.; H.KXKXKXJXFXKXnX!.xXY.R._.mXcXQ.P.a.B.m.B.B.g.j.r 6 5.8X3.;.-X<.gXHXL D 7 & o.%.] X.}.%X*X%X$.",
"~ ..|.&X&.}.;X%XsXU . L SX;.-X-., xXZXKXFXJXPXzXl.vX(.k.g.N.U./.VXxXT.k.m.M.M.b.M.= ( 0X<.<.8X<.wXHX( S Z @ x { ] o.*X1X1X@X@.[ ",
"! .X5X$X#.#X4XoX>.Y $ 8 gXiX4.-.3 Q.l.J.zXjX~.m.P.bXY.j.M.N.M.a.P.!.VXQ.Z.m.m.V.w c 9X3.-X9X-X8XLX+XS A 2   N &.].#X*X&X.X.X|.{.",
"] >X3X$.>.1XXX` E R   1 / gX5.<.w c.M.c.g.c.v.m.~.cXG.m.B.B.M.N.m.j.T.MXvXl.M.s.- 8X;.8X5.;.5.LX7XS A 2 b v 1 |.&X#X@X$X>X2X*X$.",
"}.3X$Xo.:.oX@.E *.K - @ Z gX-X<.< a.N.N.B.M.m.j.(.xXj.g.M.B.d.B.B.M.j.T.xXxXD.* L 4.-.<.1.8XLX%XC A 5 % (.J.. / &X%.|.>XrX:X:.[ ",
"%X>.o.] #XXX@.[ XXc = r 1 -.wX3.6 c.m.M.M.M.m.l.cX/.a.M.M.M.B.m.M.B.v.g.U.CXg 7 qX8X3.<.-XHX+XS K 5 > r D.lX  P =X=X>XyX:XO.o...",
"X.` ] %.&X.X*X.X|.1 = I.w 8 8X9X6 r V.c.m.g.A.P.cXW.g.v.m.c.B.N.N.m.N.M.V.d.# 8X5.-X<.wXHX6.D m @ l 0.r u.lX> x 6X2X>X*XO.` $..X",
"' ...X,.$.#X*X#Xo.1 q W.kX  A 0X8 r N.l.E./.^.K.^.Q.R.U.j.m.M.B.m.B.c.B.c.  -.9X5.<.gXSXL S 9 - K.z.8.r r R.j 6 pX%X@.X.[ @.,.&X",
"' X.@.$.$.#X%X=X[.& 8._.xXi.@ -.U q U.^.H.g ; @ o , z H./.U.f.c.B.M.V.B.> L 0X-.8XSX7XG 8 2 q I.CXU.7.r t G.b ; }.o.` ` X.%.{.$.",
") ' ` @.&X&X&XuXUXo d.MXE.f.j ; m j (.g o @ g g g w < X z R.E.c.m.B.M.% N 3.<.gXgX( M : = r 9.z.vXvX7.r r z.b.1 [ ' W ` @.&X%X{.",
"E W &.$X%X#X4XdX[.. H.NXl.9.m.s.  : 3 @ j j h h h h h j - @ K.E.m.M.= N 0X0XwX( 9 : * t f.p.9.p./.xXj.r w f.d.1 T Q ! X.,.%X&X}.",
"W [ }.XX%X,X4XpXI - H.cXZ.9.p.f.E.< - g i.i.J.zXjXhXF.i.i.< + hXU.> c 9XL C 6 = b H.f.f.p.p.p.9.U.BXV.t r 8.i.# Q ' | $.$X;X}.[ ",
"_ @X%X$X3XpX:X,.P X J.mXx.7.7.Z.hX- g h b.DXIXAXJXLXLXhXa.k = w g o 7 : > q r 7.Q.BXz.9.q.q.9.0.I.NXT.t u.Y.b # X.X.:.%X4X3X@.E ",
"}.#X#X$XyXyX#.! )   L.bXQ.P.u.U.n.. k k nXJ.B.J.V.n.AXLXjXi.j @ g k t u.9.f.f.9.I.bXP.7.s.p.q.9.j.xXW.D./.ZXj z *X}.%XyXtX2X] T ",
";X*X%X,X,X|. .` $.; b xX_.MX).).6 = i.hXJ.'.LXHXLXzXd.zXLXJ.i.> g /.f.9.p.9.f.8.Z.MXE.7.9.9.u.p.Z.xXvXVXmX~.% 7 6X>XrXfXpX*X) ' ",
"%X*X1X4X$X] [ }.6X7 g MXZ.U._.bX< g d.J.L.LXKXJXHXLXnXn.LXzXi.g & Q.h.q.9.8.q.8.x.cXW.x.f.Z.Y./.cXmXxXP.j i $ B 6X>XfXaX2X#....X",
"$X$X2X1Xo.o.:.|.&.N   vXA.w.a.Q.w < b.n.nXLXPXLXPXPXLXn.zXeXd.g @ K.l.7.h.x.h.z.P.xXxX).xXNXmXxXQ.vX).r y u   [.6XtXtX,X}.O.$.$X",
"XX%X=XO...1X2Xo.~ Y . K.!.w.d Q.z < z.V.IXHXKXPXPXLXIXn.zXOXd.h X J.).!.(._.xXMXcXxXvXxX!.U.l.r.u.cXR.d a 0 1 <XaXaX,X#X$.$.$X<X",
"XX$X@X#X>XyX*X! _ &X2 j _.r.a ~.n.@ k d.jXLXJXLXHXPXPXb.jXOXi.j o K._.xX).(.Q.~.U.cXQ.s.r.r.y y a.cXQ.e s X c sXfX>X{.$.,.&X$X$X",
"1X:X4XpX6X4X Xo.%X6XN $ vXU.a l.R.+ g z.n.KXHXPXPXLXjXc.PXn.u.g - R.k.0.r.r.0.d h.mX~.e.f f p u j.VXY.i u + OXdX4X%X$.$.$.$X$X%X",
"%X1X;X%X$X$.$.XX.X%X X; n./.d d Q.z ; d.g.J.GXHXLXzXk zXOXi.j ; z /.r.f a t.t.f A.BXU.a f s p u G.CXI.i * 3 fXpX&X$.[ o.{.;X1X2X",
"..X.X...o.X.O.#X&XrXdX6 . ^.V.a V.^.& < d.V.b.F.H.L.jXjXh h g $ J.G.w.t.r.t.e.r.Q.mXj.a u i u r Y.mXV.* @ 3 >X.X$.X.X.O.%X2X;X#X",
"] _ &.,.@.X..X%X%XrX<X2 : 3 T.v.i Y.K.X < i.d.H.K.K.n.u.i.g o b `.r.t.d r.e.e.f.(.xX0.p p s p d _.BXr 1 c O ' X...O.%.%X1X$X{. .",
"` @.1X*X#.@X2X2X{.#.^ O I J < j y r H.b . - w j i.l j j w   ; _.m.e.t.r.e.f i G.VXU.i u i s y j.VXb.+ A m   Q ] $.#X&X$X$X$X%.{ ",
"` ;XyX{.:.3X;Xo._ E R - J 0XL x 6 ; z 3 v b - X - < * O < F.3 < r d e.t.f e.r./.mXc.a u a s u H.v # Z G m -  .>.$X}.$X$X;X;X&X$.",
"O.1X;X{ $.oX{.E E ! ^ * L wX8X9X-X<.0Xc l Q.^.J.n b b.L.^.!.r.@ 6 * 0 e s d Y.CXY.i i s i i 0 > 9 K S L 8 O ].*X}.}.}.$X,X4X$X#.",
"1X}.@.@.}.:.X.` ' &.( - L 4.3.-X;.gX+X5 0 e v.V.).NXE.A.v.e a 0 g [.9 : ; w j b.w 0 0 * > ; 9 m A Z Z H 9 > @.,.o.#X>X4X:X@XO.] ",
":.o.' O..X$X.X.X|.O.Y - U 9X1.;.gX7XD 5 e i y y V.mXV.0 p f i f $ z wXR F M 9 9 6 7 7 8 m Z A A S A Z Y 6 6 %.@.%X*X2X;X#.o.O.&.",
"] { X.%..X#XXX=X&.[ >.- J 5.;.SXgXA H 2 H.b.e 0 s.mX(.r a i s u p * w eX-XH A K A D A A Z Z Z A S Z Z Z : 6 5X1X>X;X$X$.[ ..}.XX",
"] X.&.O.}.#X#X#X$.}.2X; n SXSXSXD J 8 . v _./.V.r R.xXv.y y y i 0.I.F.+ '.gXR S S Z K Z Z A C K C K S K @ U sX2X$X$.] _ [ &.}.}.",
"' ' ..@.&X*X%X%X<XpXdXx < OX'.5 2 . X x @ + F.vX_.`.cXU.b.G.U.!._.CXNXF.* n UX<.6.L S S Z S S S S G ( m @ [.2X].' ) ) _ X..X#X#.",
"Q ) ] }.*X%X>XpXdX4XXXP : + + : x N ( 6X{.x X $ b hXcXxXBXNXNXxX(.U.m.y.t.0 * n P -.4.;.R 6.6.6.6.6.c . c ,.[ Q Q W ' X..X&X%X:.",
"E _ }.*X1X;XyXaXoXo.~ E R T T ! 2.5X1X{.}.*.R c o . * v b.b.d.a.r r.a 0 0 w $   . O 6 x N J J c 6 $ . c o.Q T *.Q W ] #.}.|.#XX.",
"] %.*X%X;X6X4X<X' T E Q W *.' >.XX@X<X;X) Q | 5X%X[.c 6 : o + $ @ - - ; 4 6 B [.( N 6 : ; ; - 3 6 U ( ` _ Q G Q ^ ^ ] / / +. .T ",
"O.%X%X$X4X,X{.W T ! { X.X.@.>.#X=XrXuX#.W _ }.@X5X4XsXpX .Y =.P P P ( [.}.2XsXsX5X' | &X*X>.%XaXsX&X~ ~  .#.+.)  .+.@.] o. X .Y ",
"$X#X#X:X4X|.X.) O.,.%.%.%..X;X5XyXaX4X] ` %.1X%X%X2X:X..` { ,.%X=X2X*X=X1X3XyXuXO.^ ] :.%X:X4X4X#.] ` &.$.$.&.[ o.@.$.o.:.%X+.T ",
";X$X:XrX%XX.[ @.oX$...X.$.*X>XtXfXaX@X` o.$X;X$X<X2X%.) { &X{.] ! ] >.;X,XtXtXyX} ..}.#X<XyXyXo._ O.{.#XX.' X.( ...X|.@.:.#.....",
"*X1X4X>XO.' %.3X%.` ^ ..#X:XyXaXaX%Xo.@.#X#X$X1X,X$XX.&.*X|...W X..X2XpXaXdX:X#.} }.1X*X%X3XoX] &.&X%Xo.) ' @./ ..|..X@.#.+. ...",
":.1X1X$.o.>.%X|.W ` { %X5XrXiXiX%X@.@.*X*X@X&X1X@X..o.%X#X] ` ~ .X>X,XaXaX3X#X} }.XXXX&X=X%X{.&.#X#X@.) ) $.*X X X&X$...$X$X+...",
"#X*X*X$.%XrX:X' W { &X>XtXfXpX<X$.O.#X2X$X:.=X;X%.{.,X4X#.T ' @.3XrXiXaX>X|.@.&X3X*X}.@X%X}.#.*X4X}.) ' $.;X:X].|.@XO.+.1X$X+. .",
";X2X%X>XyXyX}.[ }.#X:X,XfXaX4X@XX.#X%X;X#X&X:X<X4XyXpX;X@.[ #X4X:XrXtXiX$XO.@.$X1X#X#X1X4X:X,XyX:X@.[ %.1X,XrX X X#...+. X+./ ].",
"2X4XiXfXtX}.@.$.;X$X:XpXaX,X}.@.$.#X@X#X*X1X,XaXtXaX%X} &..X;X:XpXaXaX;XO.{ $.|.%X#X1X3XrXaXaXrX}.$.}.&X<XrXtXrX{./  ./ +. .+. X"
};
