/* XPM */
static char *_683145335840[] = {
/* columns rows colors chars-per-pixel */
"64 64 256 2 ",
"   c #050404",
".  c #1C1B18",
"X  c #5F1735",
"o  c #033E66",
"O  c #10526E",
"+  c #6A5656",
"@  c #9B2C5E",
"#  c #E30069",
"$  c #9B7A4F",
"%  c #EBA63F",
"&  c #8B8970",
"*  c #B5A776",
"=  c #B09D65",
"-  c #DCA449",
";  c #DEAC5A",
":  c #DBA956",
">  c #DEB05A",
",  c #E4A54F",
"<  c #E4A94D",
"1  c #E3A655",
"2  c #E3AA54",
"3  c #E4AB5B",
"4  c #EAAC5D",
"5  c #E9A856",
"6  c #EBB25C",
"7  c #E3B35D",
"8  c #F6B258",
"9  c #F2AD52",
"0  c #DBAB64",
"q  c #CCAB74",
"w  c #D9AC73",
"e  c #CDB27C",
"r  c #DBB87A",
"t  c #D8B169",
"y  c #E4AD62",
"u  c #EAAD64",
"i  c #E4AE6B",
"p  c #EAAD6B",
"a  c #E4A765",
"s  c #E4B264",
"d  c #EAB265",
"f  c #E5B46C",
"g  c #EBB46C",
"h  c #E5B96D",
"j  c #EAB96D",
"k  c #E3B963",
"l  c #F2B36B",
"z  c #F3B86A",
"x  c #E5AE78",
"c  c #E5B573",
"v  c #EAB573",
"b  c #E5BA74",
"n  c #EBBA74",
"m  c #E5B57A",
"M  c #EAB57B",
"N  c #E5BB7C",
"B  c #EBBC7B",
"V  c #F1B473",
"C  c #F2BB75",
"Z  c #FBBA72",
"A  c #F2BC7C",
"S  c #F7B97A",
"D  c #FAAF6B",
"F  c #DF9D5A",
"G  c #E6C17C",
"H  c #EBC27D",
"J  c #E8C175",
"K  c #F3C27C",
"L  c #F9C278",
"P  c #7E3A91",
"I  c #09598F",
"U  c #036699",
"Y  c #04709C",
"T  c #106A94",
"R  c #286B94",
"E  c #016CAB",
"W  c #046CA6",
"Q  c #0173A6",
"!  c #0173AC",
"~  c #0778AB",
"^  c #0276B3",
"/  c #0E74B1",
"(  c #2978B2",
")  c #5A6C96",
"_  c #90549E",
"`  c #0383BC",
"'  c #1A84BE",
"]  c #338BAF",
"[  c #528799",
"{  c #738A8C",
"}  c #5987AC",
"|  c #6F8EAA",
" . c #72AAA9",
".. c #6DACAE",
"X. c #5AA3B4",
"o. c #059BD7",
"O. c #0D90C9",
"+. c #2E9AD6",
"@. c #05A9DA",
"#. c #1BADD9",
"$. c #27A4D7",
"%. c #2DB1D5",
"&. c #36ABCF",
"*. c #05A8E9",
"=. c #16A8E6",
"-. c #04B5EC",
";. c #15B5EB",
":. c #02ACF4",
">. c #02AEFE",
",. c #0BAEFD",
"<. c #08A7F4",
"1. c #02B4F5",
"2. c #02B4FD",
"3. c #0BB4FD",
"4. c #03BAFD",
"5. c #0BBAFE",
"6. c #07B7F4",
"7. c #12B4FE",
"8. c #12B9FD",
"9. c #15B4F6",
"0. c #15AEF6",
"q. c #2DB0E8",
"w. c #0B9CED",
"e. c #499ECE",
"r. c #58B5CB",
"t. c #4BABD0",
"y. c #67B5C6",
"u. c #78B6C7",
"i. c #6DB1D1",
"p. c #04C2FD",
"a. c #09D0FA",
"s. c #91AD98",
"d. c #B2AF8E",
"f. c #91B2B1",
"g. c #B0B6B4",
"h. c #9E9189",
"j. c #CBB687",
"k. c #D9B886",
"l. c #CCB998",
"z. c #D8B994",
"x. c #CBAC8C",
"c. c #E3B482",
"v. c #E5BC83",
"b. c #ECBD83",
"n. c #E5BC8A",
"m. c #EBBE8A",
"M. c #ECB684",
"N. c #F2BD83",
"B. c #F2BE8A",
"V. c #FFBD86",
"C. c #E1BD97",
"Z. c #F2BE93",
"A. c #CCBAA6",
"S. c #D6B9A7",
"D. c #CEBBB9",
"F. c #E1BCA1",
"G. c #DBC18E",
"H. c #D7C196",
"J. c #E6C284",
"K. c #ECC284",
"L. c #E6C38C",
"P. c #EDC38B",
"I. c #EDC98D",
"U. c #E8CB88",
"Y. c #F2C284",
"T. c #F2C38B",
"R. c #F1C98B",
"E. c #F9C587",
"W. c #E5C492",
"Q. c #ECC593",
"!. c #EDCA94",
"~. c #EDC79B",
"^. c #EDCB9B",
"/. c #E5CA99",
"(. c #F2C493",
"). c #F2CA94",
"_. c #F2C69A",
"`. c #F2CC9B",
"'. c #FBC796",
"]. c #ECD19B",
"[. c #F5D19C",
"{. c #D6C5A6",
"}. c #DAC7B7",
"|. c #D1CAB4",
" X c #EDCDA3",
".X c #E8C8A6",
"XX c #F2CDA4",
"oX c #F3CEAA",
"OX c #F6C9A3",
"+X c #ECD2A3",
"@X c #EDD2AA",
"#X c #E9D9A6",
"$X c #F2D1A5",
"%X c #F3D2AB",
"&X c #FAD5A9",
"*X c #E6C5BA",
"=X c #EAD5B6",
"-X c #F3CAB4",
";X c #89B8D2",
":X c #89B7C5",
">X c #ACB5C8",
",X c #BDBBE3",
"<X c #D2BECF",
"1X c #95C4CA",
"2X c #98C6D2",
"3X c #B4CDD1",
"4X c #BDC7E0",
"5X c #CAC8C7",
"6X c #D5C7CA",
"7X c #D8D6C9",
"8X c #CAC8D6",
"9X c #D5C9D5",
"0X c #D0D5D3",
"qX c #E4D1D1",
"wX c #DEE4D9",
"eX c #CFE1C7",
"rX c #E6E6D9",
"tX c #E9F7DC",
"yX c #F7F8D8",
"uX c #F1E5D7",
"iX c #DBDCEE",
"pX c #D9D5E4",
"aX c #DDDDF2",
"sX c #DCDCFB",
"dX c #D8D9F6",
"fX c #D2CFE3",
"gX c #E7DBE7",
"hX c #E2DCF4",
"jX c #E3DCFD",
"kX c #E9D9F7",
"lX c #EED7ED",
"zX c #DFE6EC",
"xX c #DFE1F5",
"cX c #DDE2FC",
"vX c #DCE9FA",
"bX c #E6E7EA",
"nX c #ECFCE4",
"mX c #EDF6EC",
"MX c #ECFBEC",
"NX c #E6F6E8",
"BX c #F1F5E3",
"VX c #F2FBEB",
"CX c #FDFDEC",
"ZX c #F5F8E8",
"AX c #E3E2F3",
"SX c #E4E2FD",
"DX c #EBE3FE",
"FX c #E9E9F8",
"GX c #F7E7FB",
"HX c #EDFDF3",
"JX c #E8F8F6",
"KX c #F2FDF4",
"LX c #FDFEF2",
"PX c #F4FEFD",
"IX c #FAF8F8",
"UX c #F3ECE8",
/* pixels */
"d c n.!.b.n b.]. X!.B p p n A A P._.Q.n f g v z T.B M b.Q.^.!.L.s f f n c Y.T.).n.v g g j Y.(.B S L.A.~.K v.d g j N m.(.(.Y.n f ",
"4 K ).K.N B._.Q.c d 3 2 s N b.m.(.K.L.K.B g b Q.!.K.b._.~.K.s 4 1 3 n Y.P.Q.L.m.K.B.f g Y._.m.n ).z.wXA.2 3 3 d b.Y.P.K.K.K.b.b.",
"s T.).B B (.Q.g , , 2 s J K.K.P.B.U.!.`.b.y B @XK.B K.~.c.3 - 5 i v B T.K.J.L.!.).m.k h _.~.v.H /.c.rXwXF 5 c n B.Y.Y.K.Q.).P.B ",
"m.(.B.B K.P.c 2 3 a g S K.m.b.K.Q.!.`.P.v v P.~.n B K.b.1 < 1 n v.b.K.N.b.K.!.`._.N k m.OXv.c P.U.1 7XKXx.k Q.K.N.b.K.~.XX`.m.f ",
"!.B.M c K.K.v d B c v A M.M.K.T.^._.P.v f B.T.v v b.T.C 4 C c b n n B v.P.).).P.M h N (.b.h n B.Y.a <XPXrXq C B v.K.^.`.!.G c v ",
"G g g n K.B.N.Y.B f p d n K.!.`.!.b.c n B b.n u N N.N.K K.n.v.; u n K.Q./.~.P.M f n B.b.s g B.Y.N.v.6XSXIXl.u N.Q.^.(.P.n f c N.",
"s p n C b.B.T.K.c c v H R.!.Q.P.B c n B B n f g B b.B.K.I.z..XH.v.n.).`.I.b.m c j B.b.f 6 C B.H K K.D.jXMXwXr ).`.T.b.n h v A T.",
"d c M.C C T.Q.B B B (.~. XQ.N f g f c b.B v f B z B P.T.Y.r qXJXwX}.H.b.l d g h B b.b j S A j r k.x S.GXJXNXS.U.m.B f g c B B B ",
"N d d n m.P.T.!.^.$XoX`.K.n g p > V N.b.G v d g b B Q.!.(.(.{.NXPXHX7Xt 4 c f n Q.K M d q  .$.q.=.q.+.i.fXCX5Xe c a p 6 z M.T.B ",
"3 4 g b.T.T.!.$X%X`.K.n f y 3 3 f n N.(.K.d 4 i b.Y.K.W.[.[./.}.VXtXHXbXw 5 i R.T.r H { 0.3.-.2.1.4.:.>.o.1XbXzXG.3 y t J (.P.G ",
", p v.P.T.!.^.%XOXb.3 5 5 1 3 7 B A K._.B 2 3 b.m.E.P.^.$X[.K.w rXLXHXPXtXk.A H E.M &.6.6.3.9.3.2.0.i.;X6.*.f.PX{.- g b K.(.m.B ",
"5 A Q.K.P.XX XP.f ; : < 5 a f n Y.K.!.P.i 3 j P.Y.P.`.XX XN u - l.jXNXtXPXNXj.V.n.%.1.7.5.7.4.2.4.+.UXCX&.<.>XAXz.> L E.K.(.b.u ",
"n K.Q.P.!.$X!.v 1 3 d p g j B B.K.`.XXb.y p N.K.I.Q.$X^.M a 3 3 0 pXvXbXBXHXbX{.y.4.7.1.:.<.p.3.3.-.i.i.=.4.2XD.q K A (..XXXg 1 ",
"K.K.P.).^.Q.N 4 g V N.B B H Y.T.(.%XXXn 3 M K.U.(.^.^.n 4 d j A D S.hXjXFXnXKX5Xo.2.6.*.| | O.6.3.,.2.2.9.>.q.d.$ [.Q.^.#X_.d : ",
").P.Q.).Q.N f g N.B B B H Y.).^.%X%XQ.g f v.!.K._.!.v.g d H B.n n r pXSXAXFXnXPX;X>.a.O g.LX) *.4.6.7.3.3.8.p.+ @ ].oX@X#Xb.4 b ",
"K.P.).^.m.g g K.P.c y g A (. X@X=X^.b.g A I.!.T.!.).c j B L.K.u 0 e D.,X8X8XUXMXyXt.4.o + LX|.U p.4.6.5.2.1.4.` @ ].%X-XI.j V m.",
"T.~._.K.h c K.K.d y s B (.XXXX%X`.K.N H K T.T.(.T.n n B.T.b 3 < |.PXVXUXNXeX5X0XVX5X7.I   eXJX. <.8.4.*.q.:X>X3X>X}./.+XK.d b.(.",
"B T.T.N N (.'.c 2 p N !.).^. XoXK.v.b.K.T.m.K.I.B N v.).N.y 0 B z.0XbXbXFXzX5X5XtXCXr.( . . X   ' p.#.:XuXCXIXLXLXPX}.r N E.K.T.",
"K.P.P.Q._.OXT.y d B (. X X+XXX~.b B K.P.Q.n.P.!.K.^.+XP.b i B I.R..X5XsXxXhXsX0X0XCX2Xw.@       T 9.8XyXKXNXJXBXBXKXMXk.N.U.P.K.",
").~. X$X&X!.N b K P.!. X=X%X).N B b.K.P.T.!.(._. X%X`.G j M T.Y.`.XX}.8XSXhXhXFX4X|.t.5._ @ X X O 3XCXnXHXKXmXMXNXnXPX}.f K.(.!.",
"(.!.Q.Q.L.G B Y.P.!.^.@X%X`.B g n b.P.P.R.(.(.).Q.Q.n.B n m.Q.I.%X@X[.x.pXhXlXsXbX0X*.6.*._ # P f.CXJXHXtXMXMXKXMXmXPX*Xc I.).!.",
"v d j v n c B B.L.^.$X$XI.N c v c K.).(.K.B c m g B M n B K.~.@X%X XA f D.jXDXxXLX..@.p.3.@.=.-.3XPXnXZXNXIXnXMXMXJXhXx.B.U.(.Z.",
"s 3 V N.M h B Z.!.!.(.K.b f c A K.T.(.P.B y y f n n B M K.!.^.^.v.G V d z.jXaXFXf.I / O.p.5.4.*.fXyXNXVXMXHXMXmXFXAXS.J.(.).N c ",
"f B Z._.B J K. X~.b.f 3 g c B b.!.Q.L.B f d C N..XG z T. X/.B V p 4 i K S.dXPXg.I ` W / ` ^ ` ~ :XGXxXvXbXbXjXSXsX6Xv.!.^.M B v ",
"6 K.`.Y.b Q.~.b.4 1 1 3 g B P.P.B.J.L.!.B g c `._.v.J.`.T.p 5 1 < v B Y.z.bX7Xe ] E Q Q Q W ! E R 8XGXjXjXGXJXpXS.H b.'.B.J.U.B ",
"m (.).b.N.Q.K.: 1 : y v b.Y.K.Y.b.). X!.n g b.XXJ B T.K.s : 3 4 j N b.Y.k.{..X`.g.Y ! Y ^ ^ Q ~ ^ R | >X<X>X) h.(.G K.B._.`.Q.B ",
"Q.I.N c B.T.v 2 4 g v B K.b.b.B.I.`.~.B b B K.L.d B T.n 0 3 d d B b.B B.b.G.W.[.T.& E E ! ~ Q Q ! / U Y E U E [ L n.U.`.^.Q.M.x ",
"T.b f N B.N.n A C c j j c b.P.!.~.P.B b B m.m.f n B.K.B B N.n f g c b.Y.T.].^.M.v j { E ~ ! / W ! E ! ^ T } } R x (.P.`.L.n c j ",
"j s j b.K.K Y.P.c v f c b.T.!.^.Q.N g C N.B c g N.N.b.K.(.A f f g b.Q.).I.!.J.c n C b.{ E Q W ^ Q Q ^ R ,XGXGX8Xx.[.(.n.A j b Y.",
"g d C b.B K E.n.n c v.Q.`.).K.B n f v N.B g g S B G K.P.Y.j f b.K.`.~.I.H B i z N B K u [ W W ! / ~ U g.GXsXpXDX7Xr B c g g G m.",
"v g l n v.Y.T.L.T.Q.`.`.!.m.c p d g B b.B h g g g H K.P.K.K.P.`.~.`.K.c f g u g K.b.c z j ] O.` E W ( lXSXaXrXmXKXj.y v f M B.b.",
"i y d b T.(.B.).@X+X`.!.b.f y s 4 n K.K.B M f 7 v N.T.P.`.oX%X^.XXN d g u 4 n v.P.B B g 8 * ;.5.-.*.+.gXtXmXPXJXHX=X: d b T.B.n ",
"2 3 n P.U.Y.`.=XoXQ.B s 5 2 3 3 n A K.K.Y.p 2 f K.K.T.).%X=X^.C d u 3 1 4 p C L P.H v 3 ; L f.-.3.4.#.bXVXHXtXVXBXJXj.z m.T.A K.",
"5 j Y.P.K.).XXXXb.f : < 2 3 3 g n Y.(.Q.v 5 d A T.T.T.].oX!.c 3 < : 2 3 g c m.T.P.b.: 9 v.P.k.;.3.4.*.8XVXNXVXKXMXPX=Xc T.Q.Y.c ",
"p b.Q.K._.$X`.B 3 2 < 2 4 s j B K Q.XXP.3 : B (.B.P.].+XP.p 5 1 : 3 3 g B Y.Q._.~.g - g (.Q.E.y.2.5.*.;XLXNXHXMXHXnXHX{.T.~.B 1 ",
"B K.T.Q.XX].b.y 3 d V V A M.K.K.T..XXXY.2 7 K.(.K.`. XW.f 5 4 v n A n A N.!.`. X^.< 4 J.K.K.'.{.9.2.4.t.CXMXMXMXHXBXHXrX/.).g : ",
"L.Y.T.^.].K.f y M B A A b.T.(.).XX%X^.v d B P.P.^.~.Q.f y g B A B N.B.P.(.`.[.+XG 4 M L.U.T.!.'.t.2.3.=.rXVXMXVXVXVXnXHX7Xb.p s ",
"!.T.T.`.L.c f B (.M f f n K.~.%X%X%XK.f c T.!.P. X!.n d V P.U.s f b K.).XX%X$X~.d v L.E.Q.R./.E. .1.8.*.3XLXnXnXmXHXZXHXzXr g n ",
"K.T.).P.B c B Y.B f y h K.!.XX%X%X).B b b.T.T.!.).b.h n B.b.c 3 f B Q.+X%X%X~.n.v B L.T.T.^.K.C d.3.5.4.i.CXVXNXVXNXZXVXHX{.w K.",
"N.!.^.b.v B T.m.2 6 v B.OXoX@X+X^.b.c b.P.T.T.!.K.c B Q.P.y 3 p b.T. X@X@XXXK.n N.U.R.J.Z.OX7 b.G 7.4.1.+.BXIXMXMXHXMXBXKXwXk.R.",
"Y.T.W.B G `.(.s > b Y.(..X@X+X!.N B B.K.P.Y.Z.(.n m._.`.v 5 s K.).^.+X%XXXn.c.J T.T.K.K.T.b.B T.^.q.2.5.<.3XLXnXnXVXNXMXVXKX|.B ",
"T.L.K '.-X.XG l L L E.).&X&X`.(.V G U.R.H H K.P.Q.+X+XP.j f B '.^.+X%XXXP.b.B Y.T.T.K.U.R.!.^..X).&.2.2.3.;XVXMXVXMXHXMXmXKX|.c.",
"OX!.^.@X[.V.r j.f.g.f.1X1Xf.d.x.x n C E.'.`. X^.].[.P.r v.B.Z.!.+X@X%XQ.n j n b.K.(.(.(.!.`.XX~.K r.2.5.2.t.nXVXMXmXMXKXnXHXrXz.",
"W.Y.L m s.t.%.1.1.4.4.2.4.2.4.6.;.q.y.f.l.B.L K v.B S S Y.U.L.^.@XXX!.b.j g B m.^.!.Q.Q.m.v.B B Z ..2.6.2.#.zXLXVXmXVXnXnXHXHX{.",
"d a s.#.-.4.4.3.7.7.3.7.3.5.5.4.4.1.2.2.6.%. .* l C f h m.Q.!.$X`.P.N f v B K.Q.~.m.c f s f c n Z ..4.7.2.:.3XLXmXVXMXMXBXMXPX|.",
"* %.2.6.7.3.2.3.*.*.6.5.7.5.8.3.3.3.3.3.6.1.2.,.%.f.k.L K.~.Q.T.M c s n b.T.Q.!.B v u y h K.Y.B Z ..4.7.3.>.2XCXmXBXMXMXVXmXPX7X",
"e.%.q.t.&.] / T E E E W ` O.*.2.4.7.7.3.3.3.3.6.2.2.;.y.l.E.L > 5 y b K.K.P.P.K.H H g v T.).J.r E.r.4.3.3.2.u.CXJXBXVXMXVXMXHXeX",
"3 N.^.M D L.z.: * & $ { | } ) ( O.o.1.4.4.3.3.3.3.,.2.2.;.X.= % 9 V b.Q.K.K.m.T. XL.c v R.).m.b.'.&.4.3.8.2.r.CXJXnXVXHXmXBXHX0X",
"n.).T.M b.T.n 3 9 9 z K P.F.*XqX<X>X} +.>.3.6.2.7.3.3.9.8.2.,.&.s.z.L L B.T.].]. Xb 3 K.^.v.n E.j.;.-.3.5.>.r.CXHXtXKXFXjXhXmXfX",
"T.H c N K.H n j m M M n B B c.k.}.gXDXpXf.&.=.2.4.3.3.4.2.2.6.3.2.q.y.s.H.(.'.E.Z Z K E.Z 8 Z c.] -.3.,.3.2.i.LXMXVXbXSXhXAXxX9X",
"B j f B T.b.A A B h s g n Y.T.`.!.m k.pXDXlX>Xe.@.1.5.5.,.6.5.,.-.1.4.4.;.%.y. .s.d.d.d.d.s...' o.1.8.4.5.:.3XLXmXmXxXjXhXxXSX5X",
"f v n C K T.T.Y.f f f H T.Q.!.Q.b v l x S.aXFXGX3Xt.*.>.5.5.2.0.7.7.7.3.3.2.2.>.2.6.*.2.2.4.4.<.<.3.6.3.4.=.wXLXIXAXxXjXiXjXkXA.",
"d g B n B Y.P.K.N m.!.`.`.P.N w j d g K c m }.cXkXlX3Xt.:.>.5.6.4.2.>.3.5.7.3.4.3.5.5.3.3.3.6.3.3.1.9.7.2.;XCXNXFXiXaXjXhXSXkXx.",
"l d f B b.Y.P.Q.).`.XX~.P.b.v l y b K.P.B l m z.pXGXGXlX3Xe.w.5.5.3.3.2.3.3.3.2.,.4.2.3.7.3.3.2.7.p.3.4.e.uXnXxXkXSXiXhXhXSX6XN ",
"p 3 f b.T.K.`.+X%X XQ.B f 3 2 5 p M B.Q.b.d 2 2 k.qXjXsXGXUX1X+.,.:.5.7.,.6.1.,.,.5.4.7.3.2.6.0.0.3.1.$.iXnXUXjXhXSXhXAXjXhXS.B ",
"< y B R.K.(.$X%X XK.i 1 2 2 3 s j K (.Q.B 4 u B T.n .XdXdXAXbXbXu.$.>.4.6.5.5.7.3.2.2.3.3.4.5.3.3.4.$.qXVXJXjXhXDXaXSXhXAXpXj.A ",
"u B P.Y.T.XX X^.V a - < < 2 p C E.B !.(.i 1 j L.L Q._..XqXjXSXhXGXpXf.%.:.>.1.3.3.3.5.2.6.8.2.2.o.u.uXCXJXhXjXSXkXjXcXhXkXx.r a ",
"c Y.I.L.`.$XP.c : 3 u g v c B K T.).^.K.a 4 B L.Q.T.`.!.r k.qXSXiXDXGXgX3Xr.$.<.:.<.,.,.>.*.$.i.0XMXPXdXsXkXhXsXAXjXaXFXD.r t F ",
"J.Y.T.~.+XI.v 5 7 g C N.m.b.P.!.).%XOXc : j Y.Q.L.XX`.H 3 1 k.7XcXAXdXsXGXGXpX3X2Xu...u.1X5XwXZXIXiXiXDXjXhXhXAXaXdXDX6Xq T.c.: ",
"Q.K.(..X!.n d g T.N.B B B P.!.~.+X%X(.f s K.(.P.Q.^.n.p l N.b.h v.qXjXSXiXsXAXGXFXJXGXGXFXJXDXjXxXiXAXjXdXsXhXkXSXjX6Xq E.Z.w w ",
"L.T._.`.K.d l P.B.m f f B K.[.%X=X`.B h B Q.Q.R..XP.b d B (.b.6 2 M *XpXxXSXhXdXjXhXhXhXhXsXaXhXkXSXjXhXkXiXxXDXhX<Xr B b.c B w ",
"Y.).).m.c v Y.W.7 y 0 n T.`.$X%X.XU.n B (.(.K.R.'.B k G Q.v 3 i B R.'.`.-XpXhXAXAXhXaXdXhXjXjXjXhXaXjXkXjXsXcXpXS.n.V.M.s J r b ",
"Y.P.P.B b.P.T.N 3 d B Q.XXXX+XoXm.N B b.T.T.P.P.N.f J.~.K.u 3 c Q./. X@X%XQ.C.}.pXkXjXjXjXDXSXvXjXSXcXhXaX9X}.k.N J.v.n K Q.N w ",
"T.P.K.K.Q. XP.6 g n P.`.+X%X+X~.j B U.(.T.b.K.I.B !.$X_.c 7 j B.'.].#X@X_.A j b n.z.{.}.8X9X8X9X6X9XD.l.j.n.~.L.n.b.b J.Q.T.x c."
};
