/* XPM */
static char *_e0a581168484c9adf4ff146faef96f08AKgdGaLX356BeWd[] = {
/* columns rows colors chars-per-pixel */
"64 64 252 2 ",
"   c #13ADDF",
".  c #36AACC",
"X  c #25ACDE",
"o  c #29A9D6",
"O  c #36ACD6",
"+  c #2BB5DA",
"@  c #37B7DB",
"#  c #1BADEB",
"$  c #1FA4E5",
"%  c #1DBBED",
"&  c #1AB4E9",
"*  c #0DB9F9",
"=  c #1BBCF5",
"-  c #14BBFE",
";  c #1CBDFD",
":  c #15B5FA",
">  c #16AFFF",
",  c #26ABE6",
"<  c #25B2E5",
"1  c #2EBBE4",
"2  c #24B5EB",
"3  c #2CB5EA",
"4  c #24BCEC",
"5  c #2CBCEC",
"6  c #2AB7E4",
"7  c #34B5E3",
"8  c #3BB5E3",
"9  c #34BBE6",
"0  c #3BBCE3",
"q  c #34BCEC",
"w  c #3ABCEC",
"e  c #37B5EA",
"r  c #23BCF4",
"t  c #2CBDF3",
"y  c #23BDFD",
"u  c #2BBDFC",
"i  c #25B4F4",
"p  c #32BCF4",
"a  c #35BCF7",
"s  c #47B9DB",
"d  c #55BBD9",
"f  c #4EAFCA",
"g  c #44B4E3",
"h  c #44BBE4",
"j  c #4ABCE4",
"k  c #44BDEB",
"l  c #4BBDEC",
"z  c #4AB6E5",
"x  c #55BCE7",
"c  c #40BDF5",
"v  c #6BBFEE",
"b  c #72B3D1",
"n  c #1CC2F5",
"m  c #14C3FB",
"M  c #1DC2FD",
"N  c #1ECAFE",
"B  c #15C0F6",
"V  c #1FD3FF",
"C  c #2DC2ED",
"Z  c #2EC3E3",
"A  c #35C2E5",
"S  c #3DC3E4",
"D  c #34C2ED",
"F  c #3BC3EC",
"G  c #3DCAED",
"H  c #35CCEB",
"J  c #3CD3ED",
"K  c #25C3F4",
"L  c #2CC4F5",
"P  c #2BCBF5",
"I  c #24C4FD",
"U  c #2BC4FD",
"Y  c #24CAFD",
"T  c #2CCBFD",
"R  c #26C9F5",
"E  c #34C4F4",
"W  c #3BC4F3",
"Q  c #34CAF5",
"!  c #3BCCF5",
"~  c #33C5FD",
"^  c #3AC6FC",
"/  c #34CCFD",
"(  c #3BCDFD",
")  c #2DD2FC",
"_  c #2CD1F7",
"`  c #35D3F4",
"'  c #3CD4F5",
"]  c #34D2FD",
"[  c #3CD3FE",
"{  c #33DAFB",
"}  c #3CDAFD",
"|  c #39DAF7",
" . c #4AC1D8",
".. c #58C6DD",
"X. c #66C3DE",
"o. c #76CAD9",
"O. c #43C3E5",
"+. c #4BC4E4",
"@. c #4CCBE6",
"#. c #45C4EC",
"$. c #4CC3EA",
"%. c #42CBEC",
"&. c #4CCBED",
"*. c #46CAE3",
"=. c #54C4E4",
"-. c #5CC6E4",
";. c #53C9E4",
":. c #5CCBE4",
">. c #54C4EC",
",. c #58C4EB",
"<. c #53CBEC",
"1. c #5CCCEC",
"2. c #43D3ED",
"3. c #4AD2EC",
"4. c #49DAEB",
"5. c #54D4EC",
"6. c #5CD4EC",
"7. c #5CDCEF",
"8. c #52DAEB",
"9. c #43C4F3",
"0. c #4BC4F2",
"q. c #44CCF5",
"w. c #4CCDF4",
"e. c #43CDFC",
"r. c #4BCCFD",
"t. c #46C6FB",
"y. c #53C4F1",
"u. c #54CCF3",
"i. c #5BCCF2",
"p. c #52CCFC",
"a. c #5AC7F6",
"s. c #44D3F4",
"d. c #4BD3F4",
"f. c #44DBF5",
"g. c #4CDCF5",
"h. c #43D5FE",
"j. c #4BD4FD",
"k. c #44DAFE",
"l. c #4CDCFD",
"z. c #53D3F4",
"x. c #5CD3F3",
"c. c #53DBF5",
"v. c #5BDBF4",
"b. c #53D4FC",
"n. c #5BD5FC",
"m. c #53DCFE",
"M. c #5BDCFE",
"N. c #64C5E3",
"B. c #65CBEC",
"V. c #6ECDEB",
"C. c #68C8E7",
"Z. c #76CCE9",
"A. c #63D2E4",
"S. c #64D2ED",
"D. c #68D8EB",
"F. c #72D5EB",
"G. c #7ADAEB",
"H. c #65CDF7",
"J. c #74CFF2",
"K. c #63D4F4",
"L. c #6BD3F3",
"P. c #6BDAF6",
"I. c #63D5FC",
"U. c #6CD3FB",
"Y. c #64DCFD",
"T. c #6CDCFD",
"R. c #63DAF5",
"E. c #75D3F3",
"W. c #74DCF5",
"Q. c #72D5FD",
"!. c #73DCFD",
"~. c #7BDDFE",
"^. c #7BD8F9",
"/. c #45E1EF",
"(. c #45E1FD",
"). c #4CE2FD",
"_. c #48E4F6",
"`. c #5AE1F5",
"'. c #53E3FE",
"]. c #5CE3FE",
"[. c #53EAFF",
"{. c #5DEAFF",
"}. c #50E2F5",
"|. c #5CE1EA",
" X c #63E4FE",
".X c #6BE2FF",
"XX c #65EAFF",
"oX c #6CEBFF",
"OX c #69E4F4",
"+X c #73E3FE",
"@X c #7CE4FE",
"#X c #74ECFF",
"$X c #7AEBFF",
"%X c #74E3F2",
"&X c #6EF4FF",
"*X c #67F4FF",
"=X c #74F4FF",
"-X c #7BF2FF",
";X c #74FCFF",
":X c #7BFAFF",
">X c #68E0EE",
",X c #87D3E8",
"<X c #83DCFB",
"1X c #87D9F6",
"2X c #95DAF6",
"3X c #96DBF8",
"4X c #B1DEF1",
"5X c #99E4EE",
"6X c #83E5FE",
"7X c #8BE3FE",
"8X c #83ECFF",
"9X c #8DEBFF",
"0X c #87E3F5",
"qX c #93E3FC",
"wX c #9BE5FF",
"eX c #93ECFE",
"rX c #9CECFF",
"tX c #97E4F5",
"yX c #84F4FF",
"uX c #8CF3FF",
"iX c #85FCFF",
"pX c #8CFDFF",
"aX c #92F4FF",
"sX c #9AF4FF",
"dX c #94FDFF",
"fX c #9BFDFF",
"gX c #98F1F7",
"hX c #A3E5FD",
"jX c #A2ECFF",
"kX c #ACEBFE",
"lX c #AAE2FB",
"zX c #A4F4FF",
"xX c #ACF4FF",
"cX c #A3FEFF",
"vX c #ACFEFF",
"bX c #B4F6FF",
"nX c #BCF4FE",
"mX c #B4FDFF",
"MX c #BCFEFF",
"NX c #B1F2F5",
"BX c #CDF4FF",
"VX c #C4FEFF",
"CX c #CCFEFF",
"ZX c #D3FEFF",
"AX c #DCFFFF",
"SX c #D6FBF7",
"DX c #E3FFFF",
"FX c #EBFFFF",
"GX c #FDFFF4",
"HX c #F4FFFF",
"JX c #FDFDFF",
"KX c #F6FFF3",
/* pixels */
"/ j.cX^.5.(.(.(.M.n.'.}.c.M.%XpXc.s.l.j.M.m.l.).l.].F.tXDXDXZX4Xb f A _ ( j.( h.e.d.b. .5XMXiX~ t K T T T T / T / T / / / T / T ",
"( 9.1.dX Xg.).(.M.M.'.}.'. XD.yX].j.m.j.m.m.l.l.}.v.S.mXbXkXnXMXVX8X@ %.b.b.k.j.j.w.@...mXsX0.p U I U T T T T / T / / / ] / ] / ",
"Q e.%.6.dX+Xd.'.M.M.m.'.[.`.v.=XoXc.m.m.M.m.M.M.'.m.oXoXh O 7 k n.cXaXd -.5.s.m.n.R.A.fXdXh p ~ ~ R I U / / / / / / / / / ( / ] ",
"Q [ ! s.R.dXv.}.'.m.'.{.}.`.v.oX+Xx.d.c.m.'.].].c.'.*X1 p u r I 2 >.MXVXsXuX-XM.Y.@XvXfXb.p ~ u T U U U T T / / ] ] / [ [ / [ [ ",
"h.! [ ( r.Y.uXD.[.[.).[.[.{.M.+XcX7X+X X`.v.R.v.XX&Xs.9 / ~ U U T F wXZXzXsXcXfXcXcXdXa.3 ~ T Y / T U U T / / / [ / ( ( [ [ [ ] ",
"h.[ [ [ [ w.8X$X4.[.'.(.[.'.M.$XaX~. XM.{.{.*XXX Xm.D ^ ~ ~ y U R W N.mXG.f s i.a.y.8 a / U Y T T / / / T U / / ] [ [ [ [ [ [ [ ",
"h.( } ] Q d.L.iXv.].].M.[.c..X$Xq 4 r % K L U ~ ( 3 e.^ / ( T T / ! 8 $X$X@ 8 5 K = U Y Y T R Q / / / ~ / U / ( ( [ [ [ h.[ [ h.",
"h.h.[ ] f.s.;.uXuXK.I. X].`.$Xx.t M Y N Y Y T T / ~ / / / / / T ( ! ( l.:X@ t I M Y Y Y T I ] Q / / / / Q Q / ( ( ( [ h.[ h.[ h.",
"j.j.k.k.f.@.=.@XmXjX0X-XyXpXfXs L I I Y ) Y T ) ` _ P ] ] ] / / ( e./ Q -XY.i T U U K T T U ] / / ( ( / Q / ( ( [ ( ] h.h.h.h.h.",
"j.h.k.(.2.c.6.~.mXwX8XA.D.6XcXs p R I R Y ] ] R ] _ _ _ ) ] [ [ t./ [ ' R.uXw 3 u U R Q / T / T / / / ( ( ] ( [ ! ] ( h.h.h.h.h.",
"h.k.k.k.h.&.s yXeXz O.%.*.s rXv 3 U T U U U U h./ Q ] { { | ! e.( / } q.:.cXeX^.9.~ / T P ] T T / ( ] ( [ [ [ [ [ [ ! [ h.k.k.h.",
"} k.[ h.M.x.A.cXsX,.m.h.].#XeXcX0.< E ^ ( ( e.a e.h.] ] { | h.h.] [ [ d.N.mXAXbXi.^ / U T ) T / ] Q ( ( [ [ [ h.h.h.h.h.h.k.j.k.",
"(.} l.b.d...tXZXZXxX8X:X Xj.t.r.pX@Xi.j c W ^ e.^ ( ( ] ] } h.( [ [ ( b.Z.VXFXAX9Xt.a / ] T T [ / / [ [ h.k.[ [ h.k.k.h.k.k.j.k.",
"k.l.b.i.#XpXcXwX5XMXaXO 7 2 U 2 +.pXfXuX.X Xj.h.r.r.r.e.e.j.j.j.f.k.( p.eXCXAXnXQ.Y.b.( W ! ( L ] [ [ [ [ h.h.k.k.k.h.k.k.k.j.k.",
"j.d.:.fXaXy.e 2 e w yXk 5 r y U Q 1 p.pX.Xw.{.=X-XyX@XU.i.u.z.d.s.c.I.@X-X=.V.aX0 C j.{.n.O.q [ [ [ [ h.} k.h.h.k.k.k.k.k.k.k.j.",
"l.v.%XvXH.O U Y Y ~ c Y.a U U / T / E r.M.o + + O.I.@XuXyX-XoX XXX#X+Xy.7 F @ -XXX0 E W  X#Xj.t.( h.[ } [ k.k.k.h.k.k.(.j.(.k.l.",
"M.z..XcX,.8 L Y U ~ a j.j.5 ^ ~ / ] Q F I.T.< 4 & C % u ^ ^ k.l.b.t.a E E p ! b.cXN.S Q J s.oXY.9.e.k.] } h.j.h.j.k.k.k.(.(.l._.",
"g.M.x.#XaX$.5 K U U ( ~ j.e.p ( / / } f.t.I.oX4 n n N M y a K C ~ ~ ^ U P / E O.vXmX+.G ' ! r.Y.oXj.h.k.k.h.j.l.k.} k.k.k.m.}.l.",
").l.].b.yX$X+ Q R / / ( e.].E ( [ } } { h.j.Y.oXL = Y Y / ~ % ) Y Y T Q Q ( ( F wXVXaX@.G l.r.w.b.oXv.*.#.M.j.h.k.(.(.l.m.M.m.c.",
"[.(.j.M.v.:XoXA ] ] ] ( e.m.).! ( ] } } k.h.w.=XoXa C T u ~ / T ) _ / Q ( ] [ w.x sXMX9Xz.r.p.b.b.3.XXiX+XR.x.u.b.d.b.z.n.i.M.].",
"/./.}.XX}.`.fXU.( / h.h.j.s.{.).[ (.l.2.f.j.k.n.xX<Xj A / / / [ ) _ ( ( [ [ } | d.1.rXVXuX-.n.b.m.s.J 7.fXmXvXcXfXsX9X6X^.E.R.x.",
"OX8.XXc.`.c.~.cXw.q.d.j.e.j.b.&X&.3. X5.].g.s.x.jXVXuX&.W W ( ( ] } h.( ( h.} ` k.w.X.tXVXsXV.T.M.M.l.v.dXuXF.E.L.~.yXpXfXvXdX6X",
"xXtXF.D. X XL.dX-X5.c.%.m.g.j.#XyX-.OX6.S.R.#XpXfX8XaXcX+X#.e.h.[ } h.r.[ h.k.} h.9.c...gXMXnXxX<X~.$XXX/ # , , , & & 4 e..XsXmX",
"bXmXsX@XK.U.E.6XVXG.@.m.s.'.b.R.cXjXtX9X9X9XuXn.S O O K.pXiXb.q.h.h.h.j.j.h.h.j.j.m.s.8.o.nXDXAXZXmXC.o * - > u m * * n % < x ^.",
"O.T.fXmXzXtX,X,XZXbXB.n.l.l.c..XbXZXAXDXVXv 6 & r i 2 5 3 t.#X.X<.z.j.k.k.f.h.l.j.j.l.x.1XbXDXHXHXCXs < M * ; ; - - n = n I t i ",
"t 5 $.@XmXVXVXVXZXAX<Xu.m.m.v.8XnXFXHXFX4Xv 4 - - I Y = L 2 7 dXuX:.d.g.).f.k.g.h.m.M.1.V.xXDXDXAXnXT.& ; - ; > ; I M = M ; ; I ",
"Y K 5 1 O.v.uXMXAXAXmXF.Y.oX@XzXDXHXJXJXBX<Xh.= U = I * Y I # Y.MX0Xx.l.g.)././.).l.y.T.9X7X3XrX@X=.XX].& y > y y ; ; M I ; ; M ",
"I Y R K C 1 0 s ,XVXVX,XP.K.@XtXSXHXJXFXVXJ.p U U r M Y M I I p vXVXF.x.].l./.4.j.M.#X+XH.l t.b.D D + ].].i u U y y ; I U Y M N ",
"U U T U U t C H + .XMXjXS.R.%XzXDXFXHXDX3Xy.r : y U K R Y = T a +.vXMXC.x.Y. X;X:X;Xl.t p t 5 Q ~ i / 1 XXoX< r ; Y Y ; u U I N ",
"U U U U ~ / P P ) D E.mX9X$X$XuXxXNXZXVX9Xk U ; y y I R R T / Q 9.j cXaXW.yXoXz.h 3 r U U U P P U u T ( 0 #XXX< r ; I Y y U R R ",
"T T T T T U ~ ^ / ^ 9.!.vXaX0 D w l H...aXT.5 U y y T T U R T Q Q F @.cXVXJ.+ 4 6 P T Y / ~ / ( ~ / U / W F iXXXE 4 K T Y Y T Y ",
"T Y Y T T / ^ ^ ( ^ E 0.cXC.X % y ~ h.O.;.fXM.p / U y U / T T T Q Q F <.mXJ.7 / K K Y T ~ ( ( ~ [ p / ( ( ! k pX XA t U I Y T U ",
"T _ T T / / ( / / Q Q &.T.8X7 D R ) / ( %.K.vXK.q R / L T [ L ( ( ( ` 0 P.dXk W Q I I T / ( ~ ( e.( / / ( [ e.q.dXI.p Q U T T Y ",
") T / / / / / T _ ] ! F 0.fX9Xs F E h.j.h.@.@XfXw.E L L / U [ / ( ( ` s.S Y.pXt.9 / / U ( ( ( h.! ! / / / [ [ ( x.dXO.E E / Y / ",
") / ] / / ] ] ] / / / [ #.8XZXVX7XB.;.S f.}.z.iX$X@ / / P ] / ] ] T *Xs.s.q.Y.pXz.F / / U / [ Q ! h.[ [ [ [ { | S #XyX8 ( R T Y ",
") ] / / ( ( ] ] / [ [ ( q.@XCXnXzXpX:XoXl.g.d.z.dXH.0.( ( Q [ / ] [ &X%.' s.O.Y.pXx.9.e.( ( ] J s.[ [ [ [ ] { | f.#.fXI.W ) T ) ",
"/ / ( [ ( e.[ ( [ [ h.W #.-XpXo , i W Y. X#X#X!.2XmXQ.h w.e.W e.! l. Xb.k.k.[ q. XfX6X=.w.] H k.s.f.} } [ } | | k.u.6XdX! T _ / ",
"[ ] ] ( [ [ [ [ { ] ! d.0.M.M.  - > # 6 8 0.b.@XjXbXsX$XoX].u.u.+.oX].! ! l.} h.#.!.mXvXB.O.g.s.k.k.(.} h.h.s.| h.0.<XcXq.P [ Q ",
"] ] ] s.} [ [ [ ] } k.h.b.n.m.# : - = 4 L L % W p.fX$X. s.'.#XuXsXyXq.(.j.h.j.h.l.w.~.VXCX2X+.l.k.k.} k.j.j.h.j.h.0.~.aX1 ] [ ! ",
"[ ] [ [ [ [ } } } ( (.' d.b.-X, : - M Y I Y T T ~ w.dX;.Z Z #.B.eXuXd.k.h.l.j.j.h.j.<.0XZXZX@X&.k.(.k.l.m.b.j.d.j.p.6X!.D / ( e.",
"[ [ h.[ h.h.[ } [ k.} k.h.w.+XT.& - I U ~ ( ) P ] %.$X8XG ! / t...uXx.h.(.k.l.j.j.l.j.u.rXZXMXF.d.(.).j.M.b.l.l.j.b.8Xx.e.E ( ~ ",
"! ! [ ( h.h.h.k.k.j.h.h.h.d.L.yXA 2 U ~ ^ ( ) { ` G :.cXK.d.h.h.$.yX.Xp.k.(.h.d.m.e.(.j.-.rXVXzXv.l.j.M.m.c.).l.m.m.-X#.e.( [ ( ",
"h.e.[ h.h.d.h.h.h.h.h.h.j.l.2.;XoXs 5 ~ h.( { { (.s.&.yXvXN.d.l.w.oXyXx.J ).f.j.m.s.(.'.w.H.rXMXK.z.].].l.[.).}.5. X#XW ( h.[ ] ",
"h.h.h.h.h.s.h.h.] k.j.q.l.m.J '.vX6X$.q t.j.k.} [ j.d.P.CXkXC.i.z.M.dX.X4.).k.l.l.c.f.(.'.&.B.sXaXK.Y.l.).[.8.|.A.$XXX! [ [ [ [ ",
"[ } | f.f._.k.k.k.k._.' j.l.k.d.zXCXsX6XH.a.u.d.j.'.M.B.CXDXwXJ.R.x.aX+X}.).).(.).m.l.g.}.g.b.n.dXW.T.].{.c.A.0X5XsXp.[ } ] [ h.",
"} f.h.k.} | k.k.(.k.(._.(.h.).w.sXxXx I.9XdXuX!.M.w.1.Z.AXDXVXcX$X$XsXE.c.).'.).m.l.m.).g.}.).w.6XsXD.R.R.P.cXVXCXMXy.( } } h.j.",
"k.k.k.k.k.f.k.g.l.k.l.'.l.k.}.5.6X6X7 L C u.jXVXcXaXhXVXVX,X6.c.iXdXmX6XR.}.'.m.M.n.l.).'.l.k.}.F.mXaXyXsXmXAXDXFXCXQ.e.' | k.e.",
"b.d.l.j.l.l.l.).l.).j.m.k.'.c.7.%XP.0 E [  XaXqXF.G.nXZX2Xd G J s W.vX6XD.`.M.].Y.M.).(.l.l._.4.A.fXpXA.U.<XlXAXCXnX6Xu.G 2.z.u.",
"K.5.w.m.f.(.[.f.l.h.].m.l.l.l.8.F.9XF.yX=XXXj.9 q l j eXMXZ.S k.j.<.W.fXD.|.v.v.Y.I.m.).'.l.k.c.@.:X8.+ W 0.y.!.+XB..XiX@X1.V.C.",
"fXfX#Xx.2.[.4.'.'.].j.'.'.g.'.v.@XvXaXT.#.E / ] ~ ^ W >.vXcX<.j.l.M.C.eXpXOXOXoXY.+XoXv.c.}.'.c.5. Xf.H / / r.r.m.s.5.S.@XsXvXvX",
".X~.sX6X`.(.(.c.M.M.'.).f.[.M.z.aXaXn.Z Q ` Q ! ^ ^ ( 0 P.MX6XF.x. XZ.hXMX9X+X$XuXiX-X:XoXY.K.i.,.oX'.R ( h.h.d.j.g.d.x.1.6XcXaX",
"c j F.vXP.v.x.K.!.T.}.}.[.`.z.uXuX>.E _ _ ] h.E ( E ! h.0 9XmXrXpX$XaXrXcX@X,.y.>.i.1.1.!.yX6X^.7X9Xq.T e.( ! l.g.z.n.p..XpXR.j ",
"s.G >.7XmX2X3X3XjXeX%XOX6.P.uXuXp.W h.( { ` ( [ ( Q ' ` s.<.nXVX9X9.q , e b. XyXdX8XT.R.S.V.qXVXAXlX@ ! h.w.g.3.x.K.T.8X=Xq.F e.",
"` h.F !.ZXDXBXBXZXVXvX7X0XfXdX>.^ / [ ] ] [ h.( e.] ] ` k.$.wXVXs < & = I ~ w 0  .Y.yXdXpXdXcXVXDXCX-.%.m.XX;X=XyX6XsXU.#.] Q T ",
"] [ h.>.VXFXFXFXHXHXFXBXZXvX,.9.[ } ] Q k.[ ^ h.[ ] { [ ] 9.E.cX#.& M Y y U L ` J A G n.].x.<.X.kXAXmXyXoXh.F O.!.cXdXx ! T / { ",
"] } [ &.3XAXAXFXKXGXJXHXCXo.k j.` ` [ k.] [ l.e.} } [ [ k.j.<.fXY.X Y M M ] T _ ` ` ' ! h.! %.<.C.bXMX..o , 2 , O !.cXH.9.( ] _ ",
"( h.[ d.<.9XZXSXKXGXJXFX3X+.&.s.' [ h.[ [ [ h.k.k.[ h.h.h.h.w.iXcX. H Y Y ) / / ] [ [ [ } k.j.j.,.@XyXo u u u y K 6 uXcXl e.' Q ",
"h.h.[ h.h.3.G.NXSXHXJXDXwX$.s.h.h.h.h.h.k.} } k.[ h.j.j.h.j.z.W.VX,X@ L Y T / [ [ [ k.j.k.[ [ j.+.-XM.i u y U ; * P g aXuXl g.J ",
"( h.k.[ } k.5.A.0XVXFXFXbX>.h.} h.e.h.} k.f.} } (.} l.j.h.j.;.0XAXVXd D ( } ] ! h.j.r.h.j.l.(.8.;.iX/ ; y I M M n = ~ w vX<X0 f.",
"l.[ k.} } (.h.b.K.qXVXAXCX~.G } h.h.} k.k.f.k.k.k.| k.e.j.M.X.jXDXDXwX>.W ! q.m.d.m.m.b.j.j.f.3.T.$Xr M ; I Y Y R I I ^ x dX.X*.",
"s.s.k.k.k.l.r.n.n.T.T.7XVXvX>.h.k.h.k.k.k.k.k.j.g.s.f.(.h.z.1XAXAXAXCXcX@X<.$.u.&.3.l.).'.'.).4.-Xn.C K I U I U P R I U ~ t.dXQ.",
"c.3.k.h.k.(.m.j.m.d.l.u.1XmX6X<.j.h.k.h.h.k.j.l.m.M.k.[.3.P.bXVX3XZ.C.E.+XyXdX$X$XR.v.`.v.8.v. XoXw L n I U u ~ R U / = T Q n.aX",
"sX!.w.l.(.| l.m.'.s.[.l.5.$XfXD.d.g.f.k.l.m.l.m.j.].g.5.0XvXsXz , 3 , 2 7 m.uXcXNXvXcXsX7X1X1XuXr.r Y N Y Y T U ~ U / / n P F  X",
"3XaXY.2.(.(.} (.m.).).).'.6.uX9X5.f.f.k.j.m.m.M.m.l.c.>XxXMXx $ ; ; M I / D ..o.,X,XtXjXmXVXbXeXe Y n V Y Y / U U ( u / T T ! D "
};
